  0
SECTION
  2
HEADER
  9
$ACADVER
  1
AC1014
  9
$HANDSEED
  5
FFFF
  9
$MEASUREMENT
 70
     1
  0
ENDSEC
  0
SECTION
  2
TABLES
  0
TABLE
  2
VPORT
  5
8
330
0
100
AcDbSymbolTable
 70
     4
  0
VPORT
  5
2E
330
8
100
AcDbSymbolTableRecord
100
AcDbViewportTableRecord
  2
*ACTIVE
 70
     0
 10
0.0
 20
0.0
 11
1.0
 21
1.0
 12
210.0
 22
148.5
 13
0.0
 23
0.0
 14
10.0
 24
10.0
 15
10.0
 25
10.0
 16
0.0
 26
0.0
 36
1.0
 17
0.0
 27
0.0
 37
0.0
 40
341.0
 41
1.24
 42
50.0
 43
0.0
 44
0.0
 50
0.0
 51
0.0
 71
     0
 72
   100
 73
     1
 74
     3
 75
     0
 76
     0
 77
     0
 78
     0
  0
ENDTAB
  0
TABLE
  2
LTYPE
  5
5
330
0
100
AcDbSymbolTable
 70
     1
  0
LTYPE
  5
14
330
5
100
AcDbSymbolTableRecord
100
AcDbLinetypeTableRecord
  2
BYBLOCK
 70
     0
  3

 72
    65
 73
     0
 40
0.0
  0
LTYPE
  5
15
330
5
100
AcDbSymbolTableRecord
100
AcDbLinetypeTableRecord
  2
BYLAYER
 70
     0
  3

 72
    65
 73
     0
 40
0.0
  0
LTYPE
  5
16
330
5
100
AcDbSymbolTableRecord
100
AcDbLinetypeTableRecord
  2
CONTINUOUS
 70
     0
  3
Solid line
 72
    65
 73
     0
 40
0.0
  0
ENDTAB
  0
TABLE
  2
LAYER
  5
2
100
AcDbSymbolTable
 70
9
  0
LAYER
  5
50
100
AcDbSymbolTableRecord
100
AcDbLayerTableRecord
  2
0
 70
0
  6
CONTINUOUS
  0
LAYER
  5
51
100
AcDbSymbolTableRecord
100
AcDbLayerTableRecord
  2
Defpoints
 70
0
  6
CONTINUOUS
  0
LAYER
  5
52
100
AcDbSymbolTableRecord
100
AcDbLayerTableRecord
  2
PCB
 70
0
  6
CONTINUOUS
  0
LAYER
  5
53
100
AcDbSymbolTableRecord
100
AcDbLayerTableRecord
  2
SIZES
 70
0
  6
CONTINUOUS
  0
LAYER
  5
54
100
AcDbSymbolTableRecord
100
AcDbLayerTableRecord
  2
3
 70
0
  6
CONTINUOUS
  0
LAYER
  5
55
100
AcDbSymbolTableRecord
100
AcDbLayerTableRecord
  2
4
 70
0
  6
CONTINUOUS
  0
LAYER
  5
56
100
AcDbSymbolTableRecord
100
AcDbLayerTableRecord
  2
COTAS
 70
0
  6
CONTINUOUS
  0
LAYER
  5
57
100
AcDbSymbolTableRecord
100
AcDbLayerTableRecord
  2
6
 70
0
  6
CONTINUOUS
  0
LAYER
  5
58
100
AcDbSymbolTableRecord
100
AcDbLayerTableRecord
  2
7
 70
0
  6
CONTINUOUS
  0
ENDTAB
  0
TABLE
  2
STYLE
  5
3
330
0
100
AcDbSymbolTable
 70
     1
  0
STYLE
  5
11
330
3
100
AcDbSymbolTableRecord
100
AcDbTextStyleTableRecord
  2
STANDARD
 70
     0
 40
0.0
 41
1.0
 50
0.0
 71
     0
 42
2.5
  3
txt
  4

  0
ENDTAB
  0
TABLE
  2
VIEW
  5
6
330
0
100
AcDbSymbolTable
 70
     0
  0
ENDTAB
  0
TABLE
  2
UCS
  5
7
330
0
100
AcDbSymbolTable
 70
     0
  0
ENDTAB
  0
TABLE
  2
APPID
  5
9
330
0
100
AcDbSymbolTable
 70
     2
  0
APPID
  5
12
330
9
100
AcDbSymbolTableRecord
100
AcDbRegAppTableRecord
  2
ACAD
 70
     0
  0
ENDTAB
  0
TABLE
  2
DIMSTYLE
  5
A
330
0
100
AcDbSymbolTable
 70
     1
  0
DIMSTYLE
105
27
330
A
100
AcDbSymbolTableRecord
100
AcDbDimStyleTableRecord
  2
ISO-25
 70
     0
  3

  4

  5

  6

  7

 40
1.0
 41
2.5
 42
0.625
 43
3.75
 44
1.25
 45
0.0
 46
0.0
 47
0.0
 48
0.0
140
2.5
141
2.5
142
0.0
143
0.03937007874016
144
1.0
145
0.0
146
1.0
147
0.625
 71
     0
 72
     0
 73
     0
 74
     0
 75
     0
 76
     0
 77
     1
 78
     8
170
     0
171
     3
172
     1
173
     0
174
     0
175
     0
176
     0
177
     0
178
     0
270
     2
271
     2
272
     2
273
     2
274
     3
340
11
275
     0
280
     0
281
     0
282
     0
283
     0
284
     8
285
     0
286
     0
287
     3
288
     0
  0
ENDTAB
  0
TABLE
  2
BLOCK_RECORD
  5
1
330
0
100
AcDbSymbolTable
 70
     1
  0
BLOCK_RECORD
  5
1F
330
1
100
AcDbSymbolTableRecord
100
AcDbBlockTableRecord
  2
*MODEL_SPACE
  0
BLOCK_RECORD
  5
1B
330
1
100
AcDbSymbolTableRecord
100
AcDbBlockTableRecord
  2
*PAPER_SPACE
  0
ENDTAB
  0
ENDSEC
  0
SECTION
  2
BLOCKS
  0
BLOCK
  5
20
330
1F
100
AcDbEntity
  8
0
100
AcDbBlockBegin
  2
*MODEL_SPACE
 70
     0
 10
0.0
 20
0.0
 30
0.0
  3
*MODEL_SPACE
  1

  0
ENDBLK
  5
21
330
1F
100
AcDbEntity
  8
0
100
AcDbBlockEnd
  0
BLOCK
  5
1C
330
1B
100
AcDbEntity
 67
     1
  8
0
100
AcDbBlockBegin
  2
*PAPER_SPACE
  1

  0
ENDBLK
  5
1D
330
1B
100
AcDbEntity
 67
     1
  8
0
100
AcDbBlockEnd
  0
ENDSEC
  0
SECTION
  2
ENTITIES
  0
LINE
  5
100
100
AcDbEntity
  8
0
 62
7
100
AcDbLine
 10
42.520019
 20
498.898061
 30
0.0
 11
42.520019
 21
25.511839
 31
0.0
  0
LINE
  5
101
100
AcDbEntity
  8
0
 62
7
100
AcDbLine
 10
42.520019
 20
25.511839
 30
0.0
 11
342.991702
 21
25.511839
 31
0.0
  0
LINE
  5
102
100
AcDbEntity
  8
0
 62
7
100
AcDbLine
 10
342.991702
 20
25.511839
 30
0.0
 11
342.991702
 21
498.898061
 31
0.0
  0
LINE
  5
103
100
AcDbEntity
  8
0
 62
7
100
AcDbLine
 10
342.991702
 20
498.898061
 30
0.0
 11
42.520019
 21
498.898061
 31
0.0
  0
LINE
  5
104
100
AcDbEntity
  8
0
 62
7
100
AcDbLine
 10
42.520019
 20
498.898061
 30
0.0
 11
42.520019
 21
498.898061
 31
0.0
  0
LINE
  5
105
100
AcDbEntity
  8
0
 62
7
100
AcDbLine
 10
102.571290
 20
448.582144
 30
0.0
 11
282.940433
 21
448.582144
 31
0.0
  0
LINE
  5
106
100
AcDbEntity
  8
0
 62
7
100
AcDbLine
 10
282.940433
 20
448.582144
 30
0.0
 11
282.940433
 21
338.031851
 31
0.0
  0
LINE
  5
107
100
AcDbEntity
  8
0
 62
7
100
AcDbLine
 10
282.940433
 20
338.031851
 30
0.0
 11
102.571290
 21
338.031851
 31
0.0
  0
LINE
  5
108
100
AcDbEntity
  8
0
 62
7
100
AcDbLine
 10
102.571290
 20
338.031851
 30
0.0
 11
102.571290
 21
448.582144
 31
0.0
  0
LINE
  5
109
100
AcDbEntity
  8
0
 62
7
100
AcDbLine
 10
102.571290
 20
448.582144
 30
0.0
 11
102.571290
 21
448.582144
 31
0.0
  0
SPLINE
  5
10a
100
AcDbEntity
  8
0
 62
7
100
AcDbSpline
 70
8
 71
3
 72
8
 73
4
 74
0
 40
0
 40
0
 40
0
 40
0
 40
1
 40
1
 40
1
 40
1
 10
192.508297
 20
319.774039
 30
0.0
 10
194.805322
 20
319.840796
 30
0.0
 10
197.031583
 20
318.975083
 30
0.0
 10
198.680068
 20
317.374061
 30
0.0
  0
SPLINE
  5
10b
100
AcDbEntity
  8
0
 62
7
100
AcDbSpline
 70
8
 71
3
 72
8
 73
4
 74
0
 40
0
 40
0
 40
0
 40
0
 40
1
 40
1
 40
1
 40
1
 10
198.680068
 20
317.374061
 30
0.0
 10
200.328554
 20
315.773038
 30
0.0
 10
201.258917
 20
313.573010
 30
0.0
 10
201.259275
 20
311.275016
 30
0.0
  0
SPLINE
  5
10c
100
AcDbEntity
  8
0
 62
7
100
AcDbSpline
 70
8
 71
3
 72
8
 73
4
 74
0
 40
0
 40
0
 40
0
 40
0
 40
1
 40
1
 40
1
 40
1
 10
201.259275
 20
311.275016
 30
0.0
 10
201.293112
 20
308.214634
 30
0.0
 10
199.679811
 20
305.372134
 30
0.0
 10
197.034939
 20
303.832092
 30
0.0
  0
SPLINE
  5
10d
100
AcDbEntity
  8
0
 62
7
100
AcDbSpline
 70
8
 71
3
 72
8
 73
4
 74
0
 40
0
 40
0
 40
0
 40
0
 40
1
 40
1
 40
1
 40
1
 10
197.034939
 20
303.832092
 30
0.0
 10
194.390066
 20
302.292049
 30
0.0
 10
191.121649
 20
302.292049
 30
0.0
 10
188.476776
 20
303.832092
 30
0.0
  0
SPLINE
  5
10e
100
AcDbEntity
  8
0
 62
7
100
AcDbSpline
 70
8
 71
3
 72
8
 73
4
 74
0
 40
0
 40
0
 40
0
 40
0
 40
1
 40
1
 40
1
 40
1
 10
188.476776
 20
303.832092
 30
0.0
 10
185.831904
 20
305.372134
 30
0.0
 10
184.218603
 20
308.214634
 30
0.0
 10
184.252440
 20
311.275016
 30
0.0
  0
SPLINE
  5
10f
100
AcDbEntity
  8
0
 62
7
100
AcDbSpline
 70
8
 71
3
 72
8
 73
4
 74
0
 40
0
 40
0
 40
0
 40
0
 40
1
 40
1
 40
1
 40
1
 10
184.252440
 20
311.275016
 30
0.0
 10
184.253141
 20
315.874503
 30
0.0
 10
187.910768
 20
319.639861
 30
0.0
 10
192.508297
 20
319.774039
 30
0.0
  0
LINE
  5
110
100
AcDbEntity
  8
0
 62
7
100
AcDbLine
 10
192.508297
 20
319.774039
 30
0.0
 11
192.508297
 21
319.774039
 31
0.0
  0
SPLINE
  5
111
100
AcDbEntity
  8
0
 62
7
100
AcDbSpline
 70
8
 71
3
 72
8
 73
4
 74
0
 40
0
 40
0
 40
0
 40
0
 40
1
 40
1
 40
1
 40
1
 10
120.899415
 20
279.205196
 30
0.0
 10
125.494471
 20
279.339531
 30
0.0
 10
129.948213
 20
277.608066
 30
0.0
 10
133.245915
 20
274.405294
 30
0.0
  0
SPLINE
  5
112
100
AcDbEntity
  8
0
 62
7
100
AcDbSpline
 70
8
 71
3
 72
8
 73
4
 74
0
 40
0
 40
0
 40
0
 40
0
 40
1
 40
1
 40
1
 40
1
 10
133.245915
 20
274.405294
 30
0.0
 10
136.543616
 20
271.202521
 30
0.0
 10
138.404394
 20
266.801238
 30
0.0
 10
138.404295
 20
262.204219
 30
0.0
  0
SPLINE
  5
113
100
AcDbEntity
  8
0
 62
7
100
AcDbSpline
 70
8
 71
3
 72
8
 73
4
 74
0
 40
0
 40
0
 40
0
 40
0
 40
1
 40
1
 40
1
 40
1
 10
138.404295
 20
262.204219
 30
0.0
 10
138.404295
 20
256.127738
 30
0.0
 10
135.162531
 20
250.512838
 30
0.0
 10
129.900144
 20
247.474598
 30
0.0
  0
SPLINE
  5
114
100
AcDbEntity
  8
0
 62
7
100
AcDbSpline
 70
8
 71
3
 72
8
 73
4
 74
0
 40
0
 40
0
 40
0
 40
0
 40
1
 40
1
 40
1
 40
1
 10
129.900144
 20
247.474598
 30
0.0
 10
124.637758
 20
244.436357
 30
0.0
 10
118.154230
 20
244.436357
 30
0.0
 10
112.891843
 20
247.474598
 30
0.0
  0
SPLINE
  5
115
100
AcDbEntity
  8
0
 62
7
100
AcDbSpline
 70
8
 71
3
 72
8
 73
4
 74
0
 40
0
 40
0
 40
0
 40
0
 40
1
 40
1
 40
1
 40
1
 10
112.891843
 20
247.474598
 30
0.0
 10
107.629456
 20
250.512838
 30
0.0
 10
104.387693
 20
256.127738
 30
0.0
 10
104.387693
 20
262.204219
 30
0.0
  0
SPLINE
  5
116
100
AcDbEntity
  8
0
 62
7
100
AcDbSpline
 70
8
 71
3
 72
8
 73
4
 74
0
 40
0
 40
0
 40
0
 40
0
 40
1
 40
1
 40
1
 40
1
 10
104.387693
 20
262.204219
 30
0.0
 10
104.387507
 20
271.404335
 30
0.0
 10
111.703215
 20
278.936812
 30
0.0
 10
120.899415
 20
279.205196
 30
0.0
  0
LINE
  5
117
100
AcDbEntity
  8
0
 62
7
100
AcDbLine
 10
120.899415
 20
279.205196
 30
0.0
 11
120.899415
 21
279.205196
 31
0.0
  0
SPLINE
  5
118
100
AcDbEntity
  8
0
 62
7
100
AcDbSpline
 70
8
 71
3
 72
8
 73
4
 74
0
 40
0
 40
0
 40
0
 40
0
 40
1
 40
1
 40
1
 40
1
 10
192.259275
 20
279.205196
 30
0.0
 10
196.854332
 20
279.339533
 30
0.0
 10
201.308076
 20
277.608069
 30
0.0
 10
204.605780
 20
274.405297
 30
0.0
  0
SPLINE
  5
119
100
AcDbEntity
  8
0
 62
7
100
AcDbSpline
 70
8
 71
3
 72
8
 73
4
 74
0
 40
0
 40
0
 40
0
 40
0
 40
1
 40
1
 40
1
 40
1
 10
204.605780
 20
274.405297
 30
0.0
 10
207.903483
 20
271.202524
 30
0.0
 10
209.764262
 20
266.801239
 30
0.0
 10
209.764163
 20
262.204219
 30
0.0
  0
SPLINE
  5
11a
100
AcDbEntity
  8
0
 62
7
100
AcDbSpline
 70
8
 71
3
 72
8
 73
4
 74
0
 40
0
 40
0
 40
0
 40
0
 40
1
 40
1
 40
1
 40
1
 10
209.764163
 20
262.204219
 30
0.0
 10
209.764163
 20
256.127738
 30
0.0
 10
206.522399
 20
250.512838
 30
0.0
 10
201.260012
 20
247.474598
 30
0.0
  0
SPLINE
  5
11b
100
AcDbEntity
  8
0
 62
7
100
AcDbSpline
 70
8
 71
3
 72
8
 73
4
 74
0
 40
0
 40
0
 40
0
 40
0
 40
1
 40
1
 40
1
 40
1
 10
201.260012
 20
247.474598
 30
0.0
 10
195.997625
 20
244.436357
 30
0.0
 10
189.514097
 20
244.436357
 30
0.0
 10
184.251711
 20
247.474598
 30
0.0
  0
SPLINE
  5
11c
100
AcDbEntity
  8
0
 62
7
100
AcDbSpline
 70
8
 71
3
 72
8
 73
4
 74
0
 40
0
 40
0
 40
0
 40
0
 40
1
 40
1
 40
1
 40
1
 10
184.251711
 20
247.474598
 30
0.0
 10
178.989324
 20
250.512838
 30
0.0
 10
175.747560
 20
256.127738
 30
0.0
 10
175.747560
 20
262.204219
 30
0.0
  0
SPLINE
  5
11d
100
AcDbEntity
  8
0
 62
7
100
AcDbSpline
 70
8
 71
3
 72
8
 73
4
 74
0
 40
0
 40
0
 40
0
 40
0
 40
1
 40
1
 40
1
 40
1
 10
175.747560
 20
262.204219
 30
0.0
 10
175.747375
 20
271.404332
 30
0.0
 10
183.063078
 20
278.936808
 30
0.0
 10
192.259275
 20
279.205196
 30
0.0
  0
LINE
  5
11e
100
AcDbEntity
  8
0
 62
7
100
AcDbLine
 10
192.259275
 20
279.205196
 30
0.0
 11
192.259275
 21
279.205196
 31
0.0
  0
SPLINE
  5
11f
100
AcDbEntity
  8
0
 62
7
100
AcDbSpline
 70
8
 71
3
 72
8
 73
4
 74
0
 40
0
 40
0
 40
0
 40
0
 40
1
 40
1
 40
1
 40
1
 10
260.063963
 20
279.205196
 30
0.0
 10
264.658769
 20
279.339128
 30
0.0
 10
269.112129
 20
277.607484
 30
0.0
 10
272.409509
 20
274.404756
 30
0.0
  0
SPLINE
  5
120
100
AcDbEntity
  8
0
 62
7
100
AcDbSpline
 70
8
 71
3
 72
8
 73
4
 74
0
 40
0
 40
0
 40
0
 40
0
 40
1
 40
1
 40
1
 40
1
 10
272.409509
 20
274.404756
 30
0.0
 10
275.706889
 20
271.202028
 30
0.0
 10
277.567467
 20
266.800977
 30
0.0
 10
277.567380
 20
262.204219
 30
0.0
  0
SPLINE
  5
121
100
AcDbEntity
  8
0
 62
7
100
AcDbSpline
 70
8
 71
3
 72
8
 73
4
 74
0
 40
0
 40
0
 40
0
 40
0
 40
1
 40
1
 40
1
 40
1
 10
277.567380
 20
262.204219
 30
0.0
 10
277.511068
 20
252.851163
 30
0.0
 10
269.913039
 20
245.298742
 30
0.0
 10
260.559814
 20
245.298742
 30
0.0
  0
SPLINE
  5
122
100
AcDbEntity
  8
0
 62
7
100
AcDbSpline
 70
8
 71
3
 72
8
 73
4
 74
0
 40
0
 40
0
 40
0
 40
0
 40
1
 40
1
 40
1
 40
1
 10
260.559814
 20
245.298742
 30
0.0
 10
251.206588
 20
245.298742
 30
0.0
 10
243.608560
 20
252.851163
 30
0.0
 10
243.552248
 20
262.204219
 30
0.0
  0
SPLINE
  5
123
100
AcDbEntity
  8
0
 62
7
100
AcDbSpline
 70
8
 71
3
 72
8
 73
4
 74
0
 40
0
 40
0
 40
0
 40
0
 40
1
 40
1
 40
1
 40
1
 10
243.552248
 20
262.204219
 30
0.0
 10
243.552063
 20
271.404332
 30
0.0
 10
250.867765
 20
278.936807
 30
0.0
 10
260.063963
 20
279.205196
 30
0.0
  0
LINE
  5
124
100
AcDbEntity
  8
0
 62
7
100
AcDbLine
 10
260.063963
 20
279.205196
 30
0.0
 11
260.063963
 21
279.205196
 31
0.0
  0
SPLINE
  5
125
100
AcDbEntity
  8
0
 62
7
100
AcDbSpline
 70
8
 71
3
 72
8
 73
4
 74
0
 40
0
 40
0
 40
0
 40
0
 40
1
 40
1
 40
1
 40
1
 10
192.424808
 20
142.435661
 30
0.0
 10
195.488177
 20
142.525349
 30
0.0
 10
198.457389
 20
141.371165
 30
0.0
 10
200.655949
 20
139.236074
 30
0.0
  0
SPLINE
  5
126
100
AcDbEntity
  8
0
 62
7
100
AcDbSpline
 70
8
 71
3
 72
8
 73
4
 74
0
 40
0
 40
0
 40
0
 40
0
 40
1
 40
1
 40
1
 40
1
 10
200.655949
 20
139.236074
 30
0.0
 10
202.854508
 20
137.100984
 30
0.0
 10
204.095151
 20
134.166845
 30
0.0
 10
204.095171
 20
131.102164
 30
0.0
  0
SPLINE
  5
127
100
AcDbEntity
  8
0
 62
7
100
AcDbSpline
 70
8
 71
3
 72
8
 73
4
 74
0
 40
0
 40
0
 40
0
 40
0
 40
1
 40
1
 40
1
 40
1
 10
204.095171
 20
131.102164
 30
0.0
 10
204.095171
 20
127.051278
 30
0.0
 10
201.934050
 20
123.308106
 30
0.0
 10
198.425880
 20
121.282663
 30
0.0
  0
SPLINE
  5
128
100
AcDbEntity
  8
0
 62
7
100
AcDbSpline
 70
8
 71
3
 72
8
 73
4
 74
0
 40
0
 40
0
 40
0
 40
0
 40
1
 40
1
 40
1
 40
1
 10
198.425880
 20
121.282663
 30
0.0
 10
194.917710
 20
119.257221
 30
0.0
 10
190.595467
 20
119.257221
 30
0.0
 10
187.087298
 20
121.282663
 30
0.0
  0
SPLINE
  5
129
100
AcDbEntity
  8
0
 62
7
100
AcDbSpline
 70
8
 71
3
 72
8
 73
4
 74
0
 40
0
 40
0
 40
0
 40
0
 40
1
 40
1
 40
1
 40
1
 10
187.087298
 20
121.282663
 30
0.0
 10
183.579128
 20
123.308106
 30
0.0
 10
181.418006
 20
127.051278
 30
0.0
 10
181.418006
 20
131.102164
 30
0.0
  0
SPLINE
  5
12a
100
AcDbEntity
  8
0
 62
7
100
AcDbSpline
 70
8
 71
3
 72
8
 73
4
 74
0
 40
0
 40
0
 40
0
 40
0
 40
1
 40
1
 40
1
 40
1
 10
181.418006
 20
131.102164
 30
0.0
 10
181.418131
 20
137.235003
 30
0.0
 10
186.294594
 20
142.256207
 30
0.0
 10
192.424808
 20
142.435661
 30
0.0
  0
LINE
  5
12b
100
AcDbEntity
  8
0
 62
7
100
AcDbLine
 10
192.424808
 20
142.435661
 30
0.0
 11
192.424808
 21
142.435661
 31
0.0
  0
LINE
  5
12c
100
AcDbEntity
  8
0
 62
7
100
AcDbLine
 10
0.000000
 20
524.409449
 30
0.0
 11
0.000000
 21
524.409449
 31
0.0
  0
LINE
  5
12d
100
AcDbEntity
  8
0
 62
7
100
AcDbLine
 10
385.511811
 20
0.000000
 30
0.0
 11
385.511811
 21
0.000000
 31
0.0
  0
LINE
  5
12e
100
AcDbEntity
  8
0
 62
7
100
AcDbLine
 10
385.511811
 20
0.000000
 30
0.0
 11
385.511811
 21
0.000000
 31
0.0
  0
LINE
  5
12f
100
AcDbEntity
  8
0
 62
7
100
AcDbLine
 10
9.921387
 20
660.471799
 30
0.0
 11
9.921387
 21
566.929804
 31
0.0
  0
LINE
  5
130
100
AcDbEntity
  8
0
 62
7
100
AcDbLine
 10
9.921387
 20
566.929804
 30
0.0
 11
375.590332
 21
566.929804
 31
0.0
  0
LINE
  5
131
100
AcDbEntity
  8
0
 62
7
100
AcDbLine
 10
375.590332
 20
566.929804
 30
0.0
 11
375.590332
 21
660.471799
 31
0.0
  0
LINE
  5
132
100
AcDbEntity
  8
0
 62
7
100
AcDbLine
 10
375.590332
 20
660.471799
 30
0.0
 11
9.921387
 21
660.471799
 31
0.0
  0
LINE
  5
133
100
AcDbEntity
  8
0
 62
7
100
AcDbLine
 10
9.921387
 20
660.471799
 30
0.0
 11
9.921387
 21
660.471799
 31
0.0
  0
SPLINE
  5
134
100
AcDbEntity
  8
0
 62
7
100
AcDbSpline
 70
8
 71
3
 72
8
 73
4
 74
0
 40
0
 40
0
 40
0
 40
0
 40
1
 40
1
 40
1
 40
1
 10
141.890625
 20
625.034299
 30
0.0
 10
144.953744
 20
625.123583
 30
0.0
 10
147.922575
 20
623.969220
 30
0.0
 10
150.120813
 20
621.834174
 30
0.0
  0
SPLINE
  5
135
100
AcDbEntity
  8
0
 62
7
100
AcDbSpline
 70
8
 71
3
 72
8
 73
4
 74
0
 40
0
 40
0
 40
0
 40
0
 40
1
 40
1
 40
1
 40
1
 10
150.120813
 20
621.834174
 30
0.0
 10
152.319051
 20
619.699129
 30
0.0
 10
153.559494
 20
616.765222
 30
0.0
 10
153.559568
 20
613.700801
 30
0.0
  0
SPLINE
  5
136
100
AcDbEntity
  8
0
 62
7
100
AcDbSpline
 70
8
 71
3
 72
8
 73
4
 74
0
 40
0
 40
0
 40
0
 40
0
 40
1
 40
1
 40
1
 40
1
 10
153.559568
 20
613.700801
 30
0.0
 10
153.559568
 20
609.649903
 30
0.0
 10
151.398439
 20
605.906718
 30
0.0
 10
147.890258
 20
603.881268
 30
0.0
  0
SPLINE
  5
137
100
AcDbEntity
  8
0
 62
7
100
AcDbSpline
 70
8
 71
3
 72
8
 73
4
 74
0
 40
0
 40
0
 40
0
 40
0
 40
1
 40
1
 40
1
 40
1
 10
147.890258
 20
603.881268
 30
0.0
 10
144.382076
 20
601.855819
 30
0.0
 10
140.059819
 20
601.855819
 30
0.0
 10
136.551637
 20
603.881268
 30
0.0
  0
SPLINE
  5
138
100
AcDbEntity
  8
0
 62
7
100
AcDbSpline
 70
8
 71
3
 72
8
 73
4
 74
0
 40
0
 40
0
 40
0
 40
0
 40
1
 40
1
 40
1
 40
1
 10
136.551637
 20
603.881268
 30
0.0
 10
133.043456
 20
605.906718
 30
0.0
 10
130.882328
 20
609.649903
 30
0.0
 10
130.882328
 20
613.700801
 30
0.0
  0
SPLINE
  5
139
100
AcDbEntity
  8
0
 62
7
100
AcDbSpline
 70
8
 71
3
 72
8
 73
4
 74
0
 40
0
 40
0
 40
0
 40
0
 40
1
 40
1
 40
1
 40
1
 10
130.882328
 20
613.700801
 30
0.0
 10
130.882475
 20
619.834204
 30
0.0
 10
135.759824
 20
624.855637
 30
0.0
 10
141.890625
 20
625.034299
 30
0.0
  0
LINE
  5
13a
100
AcDbEntity
  8
0
 62
7
100
AcDbLine
 10
141.890625
 20
625.034299
 30
0.0
 11
141.890625
 21
625.034299
 31
0.0
  0
SPLINE
  5
13b
100
AcDbEntity
  8
0
 62
7
100
AcDbSpline
 70
8
 71
3
 72
8
 73
4
 74
0
 40
0
 40
0
 40
0
 40
0
 40
1
 40
1
 40
1
 40
1
 10
239.512207
 20
622.204219
 30
0.0
 10
241.809994
 20
622.270998
 30
0.0
 10
244.036937
 20
621.404690
 30
0.0
 10
245.685555
 20
619.802710
 30
0.0
  0
SPLINE
  5
13c
100
AcDbEntity
  8
0
 62
7
100
AcDbSpline
 70
8
 71
3
 72
8
 73
4
 74
0
 40
0
 40
0
 40
0
 40
0
 40
1
 40
1
 40
1
 40
1
 10
245.685555
 20
619.802710
 30
0.0
 10
247.334173
 20
618.200730
 30
0.0
 10
248.264015
 20
615.999558
 30
0.0
 10
248.263185
 20
613.700801
 30
0.0
  0
SPLINE
  5
13d
100
AcDbEntity
  8
0
 62
7
100
AcDbSpline
 70
8
 71
3
 72
8
 73
4
 74
0
 40
0
 40
0
 40
0
 40
0
 40
1
 40
1
 40
1
 40
1
 10
248.263185
 20
613.700801
 30
0.0
 10
248.263185
 20
610.662560
 30
0.0
 10
246.642303
 20
607.855110
 30
0.0
 10
244.011109
 20
606.335989
 30
0.0
  0
SPLINE
  5
13e
100
AcDbEntity
  8
0
 62
7
100
AcDbSpline
 70
8
 71
3
 72
8
 73
4
 74
0
 40
0
 40
0
 40
0
 40
0
 40
1
 40
1
 40
1
 40
1
 10
244.011109
 20
606.335989
 30
0.0
 10
241.379915
 20
604.816869
 30
0.0
 10
238.138150
 20
604.816869
 30
0.0
 10
235.506956
 20
606.335989
 30
0.0
  0
SPLINE
  5
13f
100
AcDbEntity
  8
0
 62
7
100
AcDbSpline
 70
8
 71
3
 72
8
 73
4
 74
0
 40
0
 40
0
 40
0
 40
0
 40
1
 40
1
 40
1
 40
1
 10
235.506956
 20
606.335989
 30
0.0
 10
232.875762
 20
607.855110
 30
0.0
 10
231.254880
 20
610.662560
 30
0.0
 10
231.254880
 20
613.700801
 30
0.0
  0
SPLINE
  5
140
100
AcDbEntity
  8
0
 62
7
100
AcDbSpline
 70
8
 71
3
 72
8
 73
4
 74
0
 40
0
 40
0
 40
0
 40
0
 40
1
 40
1
 40
1
 40
1
 10
231.254880
 20
613.700801
 30
0.0
 10
231.253226
 20
618.302549
 30
0.0
 10
234.912395
 20
622.070771
 30
0.0
 10
239.512207
 20
622.204219
 30
0.0
  0
LINE
  5
141
100
AcDbEntity
  8
0
 62
7
100
AcDbLine
 10
239.512207
 20
622.204219
 30
0.0
 11
239.512207
 21
622.204219
 31
0.0
  0
SPLINE
  5
142
100
AcDbEntity
  8
0
 62
7
100
AcDbSpline
 70
8
 71
3
 72
8
 73
4
 74
0
 40
0
 40
0
 40
0
 40
0
 40
1
 40
1
 40
1
 40
1
 10
323.664548
 20
622.204219
 30
0.0
 10
325.962084
 20
622.270595
 30
0.0
 10
328.188645
 20
621.404108
 30
0.0
 10
329.836942
 20
619.802172
 30
0.0
  0
SPLINE
  5
143
100
AcDbEntity
  8
0
 62
7
100
AcDbSpline
 70
8
 71
3
 72
8
 73
4
 74
0
 40
0
 40
0
 40
0
 40
0
 40
1
 40
1
 40
1
 40
1
 10
329.836942
 20
619.802172
 30
0.0
 10
331.485239
 20
618.200237
 30
0.0
 10
332.414881
 20
615.999297
 30
0.0
 10
332.414062
 20
613.700801
 30
0.0
  0
SPLINE
  5
144
100
AcDbEntity
  8
0
 62
7
100
AcDbSpline
 70
8
 71
3
 72
8
 73
4
 74
0
 40
0
 40
0
 40
0
 40
0
 40
1
 40
1
 40
1
 40
1
 10
332.414062
 20
613.700801
 30
0.0
 10
332.414062
 20
609.004090
 30
0.0
 10
328.606625
 20
605.196653
 30
0.0
 10
323.909914
 20
605.196653
 30
0.0
  0
SPLINE
  5
145
100
AcDbEntity
  8
0
 62
7
100
AcDbSpline
 70
8
 71
3
 72
8
 73
4
 74
0
 40
0
 40
0
 40
0
 40
0
 40
1
 40
1
 40
1
 40
1
 10
323.909914
 20
605.196653
 30
0.0
 10
319.213202
 20
605.196653
 30
0.0
 10
315.405765
 20
609.004090
 30
0.0
 10
315.405765
 20
613.700801
 30
0.0
  0
SPLINE
  5
146
100
AcDbEntity
  8
0
 62
7
100
AcDbSpline
 70
8
 71
3
 72
8
 73
4
 74
0
 40
0
 40
0
 40
0
 40
0
 40
1
 40
1
 40
1
 40
1
 10
315.405765
 20
613.700801
 30
0.0
 10
315.404133
 20
618.303098
 30
0.0
 10
319.064164
 20
622.071542
 30
0.0
 10
323.664548
 20
622.204219
 30
0.0
  0
LINE
  5
147
100
AcDbEntity
  8
0
 62
7
100
AcDbLine
 10
323.664548
 20
622.204219
 30
0.0
 11
323.664548
 21
622.204219
 31
0.0
  0
LINE
  5
148
100
AcDbEntity
  8
0
 62
7
100
AcDbLine
 10
42.462891
 20
616.535269
 30
0.0
 11
76.479495
 21
616.535269
 31
0.0
  0
LINE
  5
149
100
AcDbEntity
  8
0
 62
7
100
AcDbLine
 10
76.479495
 20
616.535269
 30
0.0
 11
76.479495
 21
610.866326
 31
0.0
  0
LINE
  5
14a
100
AcDbEntity
  8
0
 62
7
100
AcDbLine
 10
76.479495
 20
610.866326
 30
0.0
 11
42.462891
 21
610.866326
 31
0.0
  0
LINE
  5
14b
100
AcDbEntity
  8
0
 62
7
100
AcDbLine
 10
42.462891
 20
610.866326
 30
0.0
 11
42.462891
 21
616.535269
 31
0.0
  0
LINE
  5
14c
100
AcDbEntity
  8
0
 62
7
100
AcDbLine
 10
42.462891
 20
616.535269
 30
0.0
 11
42.462891
 21
616.535269
 31
0.0
  0
LINE
  5
14d
100
AcDbEntity
  8
0
 62
7
100
AcDbLine
 10
9.921387
 20
801.770623
 30
0.0
 11
9.921387
 21
708.227164
 31
0.0
  0
LINE
  5
14e
100
AcDbEntity
  8
0
 62
7
100
AcDbLine
 10
9.921387
 20
708.227164
 30
0.0
 11
375.590332
 21
708.227164
 31
0.0
  0
LINE
  5
14f
100
AcDbEntity
  8
0
 62
7
100
AcDbLine
 10
375.590332
 20
708.227164
 30
0.0
 11
375.590332
 21
801.770623
 31
0.0
  0
LINE
  5
150
100
AcDbEntity
  8
0
 62
7
100
AcDbLine
 10
375.590332
 20
801.770623
 30
0.0
 11
9.921387
 21
801.770623
 31
0.0
  0
LINE
  5
151
100
AcDbEntity
  8
0
 62
7
100
AcDbLine
 10
9.921387
 20
801.770623
 30
0.0
 11
9.921387
 21
801.770623
 31
0.0
  0
SPLINE
  5
152
100
AcDbEntity
  8
0
 62
7
100
AcDbSpline
 70
8
 71
3
 72
8
 73
4
 74
0
 40
0
 40
0
 40
0
 40
0
 40
1
 40
1
 40
1
 40
1
 10
144.417480
 20
776.248651
 30
0.0
 10
150.161049
 20
776.416365
 30
0.0
 10
155.727923
 20
774.252044
 30
0.0
 10
159.849868
 20
770.248760
 30
0.0
  0
SPLINE
  5
153
100
AcDbEntity
  8
0
 62
7
100
AcDbSpline
 70
8
 71
3
 72
8
 73
4
 74
0
 40
0
 40
0
 40
0
 40
0
 40
1
 40
1
 40
1
 40
1
 10
159.849868
 20
770.248760
 30
0.0
 10
163.971813
 20
766.245476
 30
0.0
 10
166.297773
 20
760.744178
 30
0.0
 10
166.297853
 20
754.998161
 30
0.0
  0
SPLINE
  5
154
100
AcDbEntity
  8
0
 62
7
100
AcDbSpline
 70
8
 71
3
 72
8
 73
4
 74
0
 40
0
 40
0
 40
0
 40
0
 40
1
 40
1
 40
1
 40
1
 10
166.297853
 20
754.998161
 30
0.0
 10
166.297852
 20
743.256582
 30
0.0
 10
156.779422
 20
733.738152
 30
0.0
 10
145.037842
 20
733.738152
 30
0.0
  0
SPLINE
  5
155
100
AcDbEntity
  8
0
 62
7
100
AcDbSpline
 70
8
 71
3
 72
8
 73
4
 74
0
 40
0
 40
0
 40
0
 40
0
 40
1
 40
1
 40
1
 40
1
 10
145.037842
 20
733.738152
 30
0.0
 10
133.296263
 20
733.738152
 30
0.0
 10
123.777833
 20
743.256582
 30
0.0
 10
123.777832
 20
754.998161
 30
0.0
  0
SPLINE
  5
156
100
AcDbEntity
  8
0
 62
7
100
AcDbSpline
 70
8
 71
3
 72
8
 73
4
 74
0
 40
0
 40
0
 40
0
 40
0
 40
1
 40
1
 40
1
 40
1
 10
123.777832
 20
754.998161
 30
0.0
 10
123.777998
 20
766.498019
 30
0.0
 10
132.922516
 20
775.913175
 30
0.0
 10
144.417480
 20
776.248651
 30
0.0
  0
LINE
  5
157
100
AcDbEntity
  8
0
 62
7
100
AcDbLine
 10
144.417480
 20
776.248651
 30
0.0
 11
144.417480
 21
776.248651
 31
0.0
  0
LINE
  5
158
100
AcDbEntity
  8
0
 62
7
100
AcDbLine
 10
245.646975
 20
766.337516
 30
0.0
 11
285.331058
 21
766.337516
 31
0.0
  0
LINE
  5
159
100
AcDbEntity
  8
0
 62
7
100
AcDbLine
 10
285.331058
 20
766.337516
 30
0.0
 11
285.331058
 21
743.660269
 31
0.0
  0
LINE
  5
15a
100
AcDbEntity
  8
0
 62
7
100
AcDbLine
 10
285.331058
 20
743.660269
 30
0.0
 11
245.646975
 21
743.660269
 31
0.0
  0
LINE
  5
15b
100
AcDbEntity
  8
0
 62
7
100
AcDbLine
 10
245.646975
 20
743.660269
 30
0.0
 11
245.646975
 21
766.337516
 31
0.0
  0
LINE
  5
15c
100
AcDbEntity
  8
0
 62
7
100
AcDbLine
 10
245.646975
 20
766.337516
 30
0.0
 11
245.646975
 21
766.337516
 31
0.0
  0
SPLINE
  5
15d
100
AcDbEntity
  8
0
 62
7
100
AcDbSpline
 70
8
 71
3
 72
8
 73
4
 74
0
 40
0
 40
0
 40
0
 40
0
 40
1
 40
1
 40
1
 40
1
 10
59.749512
 20
766.331659
 30
0.0
 10
62.812632
 20
766.420944
 30
0.0
 10
65.781463
 20
765.266581
 30
0.0
 10
67.979701
 20
763.131535
 30
0.0
  0
SPLINE
  5
15e
100
AcDbEntity
  8
0
 62
7
100
AcDbSpline
 70
8
 71
3
 72
8
 73
4
 74
0
 40
0
 40
0
 40
0
 40
0
 40
1
 40
1
 40
1
 40
1
 10
67.979701
 20
763.131535
 30
0.0
 10
70.177940
 20
760.996489
 30
0.0
 10
71.418383
 20
758.062582
 30
0.0
 10
71.418457
 20
754.998161
 30
0.0
  0
SPLINE
  5
15f
100
AcDbEntity
  8
0
 62
7
100
AcDbSpline
 70
8
 71
3
 72
8
 73
4
 74
0
 40
0
 40
0
 40
0
 40
0
 40
1
 40
1
 40
1
 40
1
 10
71.418457
 20
754.998161
 30
0.0
 10
71.418457
 20
750.947261
 30
0.0
 10
69.257327
 20
747.204076
 30
0.0
 10
65.749145
 20
745.178626
 30
0.0
  0
SPLINE
  5
160
100
AcDbEntity
  8
0
 62
7
100
AcDbSpline
 70
8
 71
3
 72
8
 73
4
 74
0
 40
0
 40
0
 40
0
 40
0
 40
1
 40
1
 40
1
 40
1
 10
65.749145
 20
745.178626
 30
0.0
 10
62.240963
 20
743.153176
 30
0.0
 10
57.918704
 20
743.153176
 30
0.0
 10
54.410522
 20
745.178626
 30
0.0
  0
SPLINE
  5
161
100
AcDbEntity
  8
0
 62
7
100
AcDbSpline
 70
8
 71
3
 72
8
 73
4
 74
0
 40
0
 40
0
 40
0
 40
0
 40
1
 40
1
 40
1
 40
1
 10
54.410522
 20
745.178626
 30
0.0
 10
50.902340
 20
747.204076
 30
0.0
 10
48.741211
 20
750.947261
 30
0.0
 10
48.741211
 20
754.998161
 30
0.0
  0
SPLINE
  5
162
100
AcDbEntity
  8
0
 62
7
100
AcDbSpline
 70
8
 71
3
 72
8
 73
4
 74
0
 40
0
 40
0
 40
0
 40
0
 40
1
 40
1
 40
1
 40
1
 10
48.741211
 20
754.998161
 30
0.0
 10
48.741359
 20
761.131566
 30
0.0
 10
53.618710
 20
766.152999
 30
0.0
 10
59.749512
 20
766.331659
 30
0.0
  0
LINE
  5
163
100
AcDbEntity
  8
0
 62
7
100
AcDbLine
 10
59.749512
 20
766.331659
 30
0.0
 11
59.749512
 21
766.331659
 31
0.0
  0
SPLINE
  5
164
100
AcDbEntity
  8
0
 62
7
100
AcDbSpline
 70
8
 71
3
 72
8
 73
4
 74
0
 40
0
 40
0
 40
0
 40
0
 40
1
 40
1
 40
1
 40
1
 10
328.894043
 20
763.501579
 30
0.0
 10
331.191579
 20
763.567955
 30
0.0
 10
333.418140
 20
762.701468
 30
0.0
 10
335.066437
 20
761.099532
 30
0.0
  0
SPLINE
  5
165
100
AcDbEntity
  8
0
 62
7
100
AcDbSpline
 70
8
 71
3
 72
8
 73
4
 74
0
 40
0
 40
0
 40
0
 40
0
 40
1
 40
1
 40
1
 40
1
 10
335.066437
 20
761.099532
 30
0.0
 10
336.714734
 20
759.497597
 30
0.0
 10
337.644376
 20
757.296657
 30
0.0
 10
337.643342
 20
754.998161
 30
0.0
  0
SPLINE
  5
166
100
AcDbEntity
  8
0
 62
7
100
AcDbSpline
 70
8
 71
3
 72
8
 73
4
 74
0
 40
0
 40
0
 40
0
 40
0
 40
1
 40
1
 40
1
 40
1
 10
337.643342
 20
754.998161
 30
0.0
 10
337.643342
 20
751.959997
 30
0.0
 10
336.022501
 20
749.152618
 30
0.0
 10
333.391374
 20
747.633536
 30
0.0
  0
SPLINE
  5
167
100
AcDbEntity
  8
0
 62
7
100
AcDbSpline
 70
8
 71
3
 72
8
 73
4
 74
0
 40
0
 40
0
 40
0
 40
0
 40
1
 40
1
 40
1
 40
1
 10
333.391374
 20
747.633536
 30
0.0
 10
330.760246
 20
746.114454
 30
0.0
 10
327.518564
 20
746.114454
 30
0.0
 10
324.887436
 20
747.633536
 30
0.0
  0
SPLINE
  5
168
100
AcDbEntity
  8
0
 62
7
100
AcDbSpline
 70
8
 71
3
 72
8
 73
4
 74
0
 40
0
 40
0
 40
0
 40
0
 40
1
 40
1
 40
1
 40
1
 10
324.887436
 20
747.633536
 30
0.0
 10
322.256309
 20
749.152618
 30
0.0
 10
320.635468
 20
751.959997
 30
0.0
 10
320.635468
 20
754.998161
 30
0.0
  0
SPLINE
  5
169
100
AcDbEntity
  8
0
 62
7
100
AcDbSpline
 70
8
 71
3
 72
8
 73
4
 74
0
 40
0
 40
0
 40
0
 40
0
 40
1
 40
1
 40
1
 40
1
 10
320.635468
 20
754.998161
 30
0.0
 10
320.633833
 20
759.600379
 30
0.0
 10
324.293740
 20
763.368792
 30
0.0
 10
328.894043
 20
763.501579
 30
0.0
  0
LINE
  5
16a
100
AcDbEntity
  8
0
 62
7
100
AcDbLine
 10
328.894043
 20
763.501579
 30
0.0
 11
328.894043
 21
763.501579
 31
0.0
  0
SPLINE
  5
16b
100
AcDbEntity
  8
0
 62
7
100
AcDbSpline
 70
8
 71
3
 72
8
 73
4
 74
0
 40
0
 40
0
 40
0
 40
0
 40
1
 40
1
 40
1
 40
1
 10
240.944882
 20
131.102363
 30
0.0
 10
240.947030
 20
148.320057
 30
0.0
 10
231.762733
 20
164.230783
 30
0.0
 10
216.852130
 20
172.840250
 30
0.0
  0
SPLINE
  5
16c
100
AcDbEntity
  8
0
 62
7
100
AcDbSpline
 70
8
 71
3
 72
8
 73
4
 74
0
 40
0
 40
0
 40
0
 40
0
 40
1
 40
1
 40
1
 40
1
 10
216.852130
 20
172.840250
 30
0.0
 10
201.941526
 20
181.449718
 30
0.0
 10
183.570285
 20
181.449718
 30
0.0
 10
168.659682
 20
172.840250
 30
0.0
  0
SPLINE
  5
16d
100
AcDbEntity
  8
0
 62
7
100
AcDbSpline
 70
8
 71
3
 72
8
 73
4
 74
0
 40
0
 40
0
 40
0
 40
0
 40
1
 40
1
 40
1
 40
1
 10
168.659682
 20
172.840250
 30
0.0
 10
153.749079
 20
164.230783
 30
0.0
 10
144.564782
 20
148.320057
 30
0.0
 10
144.566930
 20
131.102363
 30
0.0
  0
SPLINE
  5
16e
100
AcDbEntity
  8
0
 62
7
100
AcDbSpline
 70
8
 71
3
 72
8
 73
4
 74
0
 40
0
 40
0
 40
0
 40
0
 40
1
 40
1
 40
1
 40
1
 10
144.566930
 20
131.102363
 30
0.0
 10
144.564782
 20
113.884668
 30
0.0
 10
153.749079
 20
97.973942
 30
0.0
 10
168.659682
 20
89.364475
 30
0.0
  0
SPLINE
  5
16f
100
AcDbEntity
  8
0
 62
7
100
AcDbSpline
 70
8
 71
3
 72
8
 73
4
 74
0
 40
0
 40
0
 40
0
 40
0
 40
1
 40
1
 40
1
 40
1
 10
168.659682
 20
89.364475
 30
0.0
 10
183.570285
 20
80.755007
 30
0.0
 10
201.941526
 20
80.755007
 30
0.0
 10
216.852130
 20
89.364475
 30
0.0
  0
SPLINE
  5
170
100
AcDbEntity
  8
0
 62
7
100
AcDbSpline
 70
8
 71
3
 72
8
 73
4
 74
0
 40
0
 40
0
 40
0
 40
0
 40
1
 40
1
 40
1
 40
1
 10
216.852130
 20
89.364475
 30
0.0
 10
231.762733
 20
97.973942
 30
0.0
 10
240.947030
 20
113.884668
 30
0.0
 10
240.944882
 20
131.102363
 30
0.0
  0
LINE
  5
171
100
AcDbEntity
  8
0
 62
7
100
AcDbLine
 10
240.944882
 20
131.102363
 30
0.0
 11
240.944882
 21
131.102363
 31
0.0
  0
LINE
  5
172
100
AcDbEntity
  8
0
 62
7
100
AcDbLine
 10
385.511811
 20
524.409449
 30
0.0
 11
385.511811
 21
524.409449
 31
0.0
  0
LINE
  5
173
100
AcDbEntity
  8
0
 62
7
100
AcDbLine
 10
385.511811
 20
524.409449
 30
0.0
 11
385.511811
 21
524.409449
 31
0.0
  0
LINE
  5
174
100
AcDbEntity
  8
0
 62
7
100
AcDbLine
 10
140.314960
 20
338.032346
 30
0.0
 11
140.314960
 21
336.614174
 31
0.0
  0
LINE
  5
175
100
AcDbEntity
  8
0
 62
7
100
AcDbLine
 10
245.196850
 20
336.614174
 30
0.0
 11
245.196850
 21
338.032346
 31
0.0
  0
SPLINE
  5
176
100
AcDbEntity
  8
SIZES
 62
2
100
AcDbSpline
 70
8
 71
3
 72
8
 73
4
 74
0
 40
0
 40
0
 40
0
 40
0
 40
1
 40
1
 40
1
 40
1
 10
581.933565
 20
625.123766
 30
0.0
 10
581.933565
 20
633.225537
 30
0.0
 10
577.611322
 20
640.711882
 30
0.0
 10
570.594983
 20
644.762767
 30
0.0
  0
SPLINE
  5
177
100
AcDbEntity
  8
SIZES
 62
2
100
AcDbSpline
 70
8
 71
3
 72
8
 73
4
 74
0
 40
0
 40
0
 40
0
 40
0
 40
1
 40
1
 40
1
 40
1
 10
570.594983
 20
644.762767
 30
0.0
 10
563.578643
 20
648.813653
 30
0.0
 10
554.934157
 20
648.813653
 30
0.0
 10
547.917818
 20
644.762767
 30
0.0
  0
SPLINE
  5
178
100
AcDbEntity
  8
SIZES
 62
2
100
AcDbSpline
 70
8
 71
3
 72
8
 73
4
 74
0
 40
0
 40
0
 40
0
 40
0
 40
1
 40
1
 40
1
 40
1
 10
547.917818
 20
644.762767
 30
0.0
 10
540.901478
 20
640.711882
 30
0.0
 10
536.579235
 20
633.225537
 30
0.0
 10
536.579235
 20
625.123766
 30
0.0
  0
SPLINE
  5
179
100
AcDbEntity
  8
SIZES
 62
2
100
AcDbSpline
 70
8
 71
3
 72
8
 73
4
 74
0
 40
0
 40
0
 40
0
 40
0
 40
1
 40
1
 40
1
 40
1
 10
536.579235
 20
625.123766
 30
0.0
 10
536.577151
 20
617.020606
 30
0.0
 10
540.898938
 20
609.532086
 30
0.0
 10
547.916134
 20
605.479904
 30
0.0
  0
SPLINE
  5
17a
100
AcDbEntity
  8
SIZES
 62
2
100
AcDbSpline
 70
8
 71
3
 72
8
 73
4
 74
0
 40
0
 40
0
 40
0
 40
0
 40
1
 40
1
 40
1
 40
1
 10
547.916134
 20
605.479904
 30
0.0
 10
554.933329
 20
601.427723
 30
0.0
 10
563.579471
 20
601.427723
 30
0.0
 10
570.596666
 20
605.479904
 30
0.0
  0
SPLINE
  5
17b
100
AcDbEntity
  8
SIZES
 62
2
100
AcDbSpline
 70
8
 71
3
 72
8
 73
4
 74
0
 40
0
 40
0
 40
0
 40
0
 40
1
 40
1
 40
1
 40
1
 10
570.596666
 20
605.479904
 30
0.0
 10
577.613862
 20
609.532086
 30
0.0
 10
581.935649
 20
617.020606
 30
0.0
 10
581.933565
 20
625.123766
 30
0.0
  0
LINE
  5
17c
100
AcDbEntity
  8
SIZES
 62
2
100
AcDbLine
 10
581.933565
 20
625.123766
 30
0.0
 11
581.933565
 21
625.123766
 31
0.0
  0
LINE
  5
17d
100
AcDbEntity
  8
SIZES
 62
2
100
AcDbLine
 10
536.579235
 20
576.934789
 30
0.0
 11
581.933565
 21
576.934789
 31
0.0
  0
LINE
  5
17e
100
AcDbEntity
  8
SIZES
 62
2
100
AcDbLine
 10
581.933565
 20
576.934789
 30
0.0
 11
581.933565
 21
602.446601
 31
0.0
  0
LINE
  5
17f
100
AcDbEntity
  8
SIZES
 62
2
100
AcDbLine
 10
581.933565
 20
602.446601
 30
0.0
 11
536.579235
 21
602.446601
 31
0.0
  0
LINE
  5
180
100
AcDbEntity
  8
SIZES
 62
2
100
AcDbLine
 10
536.579235
 20
602.446601
 30
0.0
 11
536.579235
 21
576.934789
 31
0.0
  0
LINE
  5
181
100
AcDbEntity
  8
SIZES
 62
2
100
AcDbLine
 10
536.611215
 20
714.896456
 30
0.0
 11
581.965545
 21
714.896456
 31
0.0
  0
LINE
  5
182
100
AcDbEntity
  8
SIZES
 62
2
100
AcDbLine
 10
581.965545
 20
714.896456
 30
0.0
 11
581.965545
 21
692.219291
 31
0.0
  0
LINE
  5
183
100
AcDbEntity
  8
SIZES
 62
2
100
AcDbLine
 10
581.965545
 20
692.219291
 30
0.0
 11
536.611215
 21
692.219291
 31
0.0
  0
LINE
  5
184
100
AcDbEntity
  8
SIZES
 62
2
100
AcDbLine
 10
536.611215
 20
692.219291
 30
0.0
 11
536.611215
 21
714.896456
 31
0.0
  0
LINE
  5
185
100
AcDbEntity
  8
SIZES
 62
2
100
AcDbLine
 10
613.752652
 20
714.896456
 30
0.0
 11
653.437695
 21
714.896456
 31
0.0
  0
LINE
  5
186
100
AcDbEntity
  8
SIZES
 62
2
100
AcDbLine
 10
653.437695
 20
714.896456
 30
0.0
 11
653.437695
 21
672.376774
 31
0.0
  0
LINE
  5
187
100
AcDbEntity
  8
SIZES
 62
2
100
AcDbLine
 10
653.437695
 20
672.376774
 30
0.0
 11
613.752652
 21
672.376774
 31
0.0
  0
LINE
  5
188
100
AcDbEntity
  8
SIZES
 62
2
100
AcDbLine
 10
613.752652
 20
672.376774
 30
0.0
 11
613.752652
 21
714.896456
 31
0.0
  0
LINE
  5
189
100
AcDbEntity
  8
SIZES
 62
2
100
AcDbLine
 10
671.229630
 20
714.896456
 30
0.0
 11
688.237507
 21
714.896456
 31
0.0
  0
LINE
  5
18a
100
AcDbEntity
  8
SIZES
 62
2
100
AcDbLine
 10
688.237507
 20
714.896456
 30
0.0
 11
688.237507
 21
672.376774
 31
0.0
  0
LINE
  5
18b
100
AcDbEntity
  8
SIZES
 62
2
100
AcDbLine
 10
688.237507
 20
672.376774
 30
0.0
 11
671.229630
 21
672.376774
 31
0.0
  0
LINE
  5
18c
100
AcDbEntity
  8
SIZES
 62
2
100
AcDbLine
 10
671.229630
 20
672.376774
 30
0.0
 11
671.229630
 21
714.896456
 31
0.0
  0
LINE
  5
18d
100
AcDbEntity
  8
SIZES
 62
2
100
AcDbLine
 10
704.035762
 20
714.896456
 30
0.0
 11
723.878280
 21
714.896456
 31
0.0
  0
LINE
  5
18e
100
AcDbEntity
  8
SIZES
 62
2
100
AcDbLine
 10
723.878280
 20
714.896456
 30
0.0
 11
723.878280
 21
663.872839
 31
0.0
  0
LINE
  5
18f
100
AcDbEntity
  8
SIZES
 62
2
100
AcDbLine
 10
723.878280
 20
663.872839
 30
0.0
 11
704.035762
 21
663.872839
 31
0.0
  0
LINE
  5
190
100
AcDbEntity
  8
SIZES
 62
2
100
AcDbLine
 10
704.035762
 20
663.872839
 30
0.0
 11
704.035762
 21
714.896456
 31
0.0
  0
LINE
  5
191
100
AcDbEntity
  8
SIZES
 62
2
100
AcDbLine
 10
750.269550
 20
714.896456
 30
0.0
 11
792.789225
 21
714.896456
 31
0.0
  0
LINE
  5
192
100
AcDbEntity
  8
SIZES
 62
2
100
AcDbLine
 10
792.789225
 20
714.896456
 30
0.0
 11
792.789225
 21
663.872839
 31
0.0
  0
LINE
  5
193
100
AcDbEntity
  8
SIZES
 62
2
100
AcDbLine
 10
792.789225
 20
663.872839
 30
0.0
 11
750.269550
 21
663.872839
 31
0.0
  0
LINE
  5
194
100
AcDbEntity
  8
SIZES
 62
2
100
AcDbLine
 10
750.269550
 20
663.872839
 30
0.0
 11
750.269550
 21
714.896456
 31
0.0
  0
LINE
  5
195
100
AcDbEntity
  8
SIZES
 62
2
100
AcDbLine
 10
818.545050
 20
714.896456
 30
0.0
 11
875.237925
 21
714.896456
 31
0.0
  0
LINE
  5
196
100
AcDbEntity
  8
SIZES
 62
2
100
AcDbLine
 10
875.237925
 20
714.896456
 30
0.0
 11
875.237925
 21
652.534256
 31
0.0
  0
LINE
  5
197
100
AcDbEntity
  8
SIZES
 62
2
100
AcDbLine
 10
875.237925
 20
652.534256
 30
0.0
 11
818.545050
 21
652.534256
 31
0.0
  0
LINE
  5
198
100
AcDbEntity
  8
SIZES
 62
2
100
AcDbLine
 10
818.545050
 20
652.534256
 30
0.0
 11
818.545050
 21
714.896456
 31
0.0
  0
LINE
  5
199
100
AcDbEntity
  8
COTAS
 62
1
100
AcDbLine
 10
277.567778
 20
231.439744
 30
0.0
 11
243.552030
 21
231.439744
 31
0.0
  0
LINE
  5
19a
100
AcDbEntity
  8
COTAS
 62
1
100
AcDbLine
 10
201.259845
 20
289.991719
 30
0.0
 11
184.251967
 21
289.991719
 31
0.0
  0
LINE
  5
19b
100
AcDbEntity
  8
COTAS
 62
1
100
AcDbLine
 10
71.418626
 20
720.426109
 30
0.0
 11
48.741461
 21
720.426109
 31
0.0
  0
LINE
  5
19c
100
AcDbEntity
  8
COTAS
 62
1
100
AcDbLine
 10
166.298100
 20
717.323321
 30
0.0
 11
123.778418
 21
717.323321
 31
0.0
  0
LINE
  5
19d
100
AcDbEntity
  8
COTAS
 62
1
100
AcDbLine
 10
337.643123
 20
720.027776
 30
0.0
 11
320.635245
 21
720.027776
 31
0.0
  0
LINE
  5
19e
100
AcDbEntity
  8
COTAS
 62
1
100
AcDbLine
 10
332.414348
 20
590.314961
 30
0.0
 11
315.406477
 21
590.314961
 31
0.0
  0
LINE
  5
19f
100
AcDbEntity
  8
COTAS
 62
1
100
AcDbLine
 10
53.802007
 20
623.813246
 30
0.0
 11
48.132715
 21
623.813246
 31
0.0
  0
LINE
  5
1a0
100
AcDbEntity
  8
COTAS
 62
1
100
AcDbLine
 10
136.586550
 20
465.444236
 30
0.0
 11
102.570802
 21
465.444236
 31
0.0
  0
LINE
  5
1a1
100
AcDbEntity
  8
COTAS
 62
1
100
AcDbLine
 10
153.559830
 20
579.128516
 30
0.0
 11
130.882665
 21
579.128516
 31
0.0
  0
LINE
  5
1a2
100
AcDbEntity
  8
COTAS
 62
1
100
AcDbLine
 10
248.262615
 20
580.982929
 30
0.0
 11
231.254738
 21
580.982929
 31
0.0
  0
ENDSEC
  0
SECTION
  2
OBJECTS
  0
DICTIONARY
  5
C
330
0
100
AcDbDictionary
  3
ACAD_GROUP
350
D
  3
ACAD_MLINESTYLE
350
17
  0
DICTIONARY
  5
D
330
C
100
AcDbDictionary
  0
DICTIONARY
  5
1A
330
C
100
AcDbDictionary
  0
DICTIONARY
  5
17
330
C
100
AcDbDictionary
  3
STANDARD
350
18
  0
DICTIONARY
  5
19
330
C
100
AcDbDictionary
  0
ENDSEC
  0
EOF
