  0
SECTION
  2
HEADER
  9
$ACADVER
  1
AC1009
  9
$INSUNITS
 70
     1
  0
ENDSEC
  0
SECTION
  2
TABLES
  0
TABLE
  2
LAYER
 70
     8
  0
LAYER
  2
0
 62
     7
 70
0
  6
CONTINUOUS
  0
LAYER
  2
1
 62
     1
 70
0
  6
CONTINUOUS
  0
LAYER
  2
2
 62
     2
 70
0
  6
CONTINUOUS
  0
LAYER
  2
3
 62
     3
 70
0
  6
CONTINUOUS
  0
LAYER
  2
4
 62
     4
 70
0
  6
CONTINUOUS
  0
LAYER
  2
5
 62
     5
 70
0
  6
CONTINUOUS
  0
LAYER
  2
6
 62
     6
 70
0
  6
CONTINUOUS
  0
LAYER
  2
7
 62
     7
 70
0
  6
CONTINUOUS
  0
ENDTAB
  0
TABLE
  2
STYLE
 70
     1
  0
STYLE
 70
     0
  2
STANDARD
  3
TXT
 40
0.00
 41
1.00
 42
1.00
 50
0.00
 71
     0
  0
ENDTAB
  0
ENDSEC
  0
SECTION
  2
BLOCKS
  0
BLOCK
  8
0
  2
EPAD
 70
0
 10
0.0
 20
0.0
  0
POLYLINE
  8
0
 66
1
 70
1
 40
0.5
 41
0.5
  0
VERTEX
  8
0
 10
-0.25
 20
0.0
 42
1.0
  0
VERTEX
  8
0
 10
0.25
 20
0.0
 42
1.0
  0
SEQEND
  8
0
  0
ENDBLK
  8
0
  0
BLOCK
  8
0
  2
RPAD
 70
0
 10
0.0
 20
0.0
  0
TRACE
  8
0
 10
-0.5
 20
-0.5
 11
-0.5
 21
0.5
 12
0.5
 22
-0.5
 13
0.5
 23
0.5
  0
ENDBLK
  8
0
  0
ENDSEC
0
SECTION
2
ENTITIES
0
INSERT
8
0
2
EPAD
10
-0.582677
20
-0.866339
41
0.030000
42
0.030000
0
CIRCLE
8
0
10
-0.582677
20
-0.866339
40
0.010000
0
INSERT
8
0
2
EPAD
10
-0.807677
20
-0.766339
41
0.030000
42
0.030000
0
CIRCLE
8
0
10
-0.807677
20
-0.766339
40
0.010000
0
INSERT
8
0
2
EPAD
10
-0.807677
20
-0.641339
41
0.030000
42
0.030000
0
CIRCLE
8
0
10
-0.807677
20
-0.641339
40
0.010000
0
INSERT
8
0
2
EPAD
10
-0.357677
20
-0.641339
41
0.030000
42
0.030000
0
CIRCLE
8
0
10
-0.357677
20
-0.641339
40
0.010000
0
INSERT
8
0
2
EPAD
10
-0.382677
20
0.033661
41
0.030000
42
0.030000
0
CIRCLE
8
0
10
-0.382677
20
0.033661
40
0.010000
0
INSERT
8
0
2
EPAD
10
0.000000
20
1.108661
41
0.030000
42
0.030000
0
CIRCLE
8
0
10
0.000000
20
1.108661
40
0.010000
0
INSERT
8
0
2
EPAD
10
0.642323
20
0.708661
41
0.030000
42
0.030000
0
CIRCLE
8
0
10
0.642323
20
0.708661
40
0.010000
0
INSERT
8
0
2
EPAD
10
0.467323
20
0.314961
41
0.030000
42
0.030000
0
CIRCLE
8
0
10
0.467323
20
0.314961
40
0.010000
0
INSERT
8
0
2
EPAD
10
-0.232677
20
0.708661
41
0.030000
42
0.030000
0
CIRCLE
8
0
10
-0.232677
20
0.708661
40
0.010000
0
INSERT
8
0
2
EPAD
10
-0.107677
20
-0.791339
41
0.030000
42
0.030000
0
CIRCLE
8
0
10
-0.107677
20
-0.791339
40
0.010000
0
INSERT
8
0
2
EPAD
10
-0.407677
20
-0.866339
41
0.030000
42
0.030000
0
CIRCLE
8
0
10
-0.407677
20
-0.866339
40
0.010000
0
INSERT
8
0
2
EPAD
10
-0.082677
20
1.033661
41
0.030000
42
0.030000
0
CIRCLE
8
0
10
-0.082677
20
1.033661
40
0.010000
0
INSERT
8
0
2
EPAD
10
-0.432677
20
-0.391339
41
0.030000
42
0.030000
0
CIRCLE
8
0
10
-0.432677
20
-0.391339
40
0.010000
0
INSERT
8
0
2
EPAD
10
-0.082677
20
0.583661
41
0.030000
42
0.030000
0
CIRCLE
8
0
10
-0.082677
20
0.583661
40
0.010000
0
INSERT
8
0
2
EPAD
10
0.367323
20
0.059055
41
0.030000
42
0.030000
0
CIRCLE
8
0
10
0.367323
20
0.059055
40
0.010000
0
INSERT
8
0
2
EPAD
10
0.167323
20
-0.041339
41
0.030000
42
0.030000
0
CIRCLE
8
0
10
0.167323
20
-0.041339
40
0.010000
0
INSERT
8
0
2
EPAD
10
0.167323
20
0.258661
41
0.030000
42
0.030000
0
CIRCLE
8
0
10
0.167323
20
0.258661
40
0.010000
0
INSERT
8
0
2
EPAD
10
0.267323
20
0.208661
41
0.030000
42
0.030000
0
CIRCLE
8
0
10
0.267323
20
0.208661
40
0.010000
0
INSERT
8
0
2
EPAD
10
0.417323
20
0.258661
41
0.030000
42
0.030000
0
CIRCLE
8
0
10
0.417323
20
0.258661
40
0.010000
0
INSERT
8
0
2
EPAD
10
0.517323
20
0.258661
41
0.030000
42
0.030000
0
CIRCLE
8
0
10
0.517323
20
0.258661
40
0.010000
0
INSERT
8
0
2
EPAD
10
0.967323
20
0.158661
41
0.030000
42
0.030000
0
CIRCLE
8
0
10
0.967323
20
0.158661
40
0.010000
0
INSERT
8
0
2
EPAD
10
0.267323
20
0.508661
41
0.030000
42
0.030000
0
CIRCLE
8
0
10
0.267323
20
0.508661
40
0.010000
0
INSERT
8
0
2
RPAD
10
0.039370
20
-1.043307
41
0.080000
42
0.080000
50
-180.000000
0
CIRCLE
8
0
10
0.039370
20
-1.043307
40
0.025000
0
INSERT
8
0
2
RPAD
10
-0.060630
20
-1.043307
41
0.080000
42
0.080000
50
-180.000000
0
CIRCLE
8
0
10
-0.060630
20
-1.043307
40
0.025000
0
INSERT
8
0
2
RPAD
10
-0.314961
20
-1.043307
41
0.080000
42
0.080000
50
-180.000000
0
CIRCLE
8
0
10
-0.314961
20
-1.043307
40
0.025000
0
INSERT
8
0
2
RPAD
10
-0.414961
20
-1.043307
41
0.080000
42
0.080000
50
-180.000000
0
CIRCLE
8
0
10
-0.414961
20
-1.043307
40
0.025000
0
INSERT
8
0
2
RPAD
10
-0.514961
20
-1.043307
41
0.080000
42
0.080000
50
-180.000000
0
CIRCLE
8
0
10
-0.514961
20
-1.043307
40
0.025000
0
INSERT
8
0
2
RPAD
10
-0.614961
20
-1.043307
41
0.080000
42
0.080000
50
-180.000000
0
CIRCLE
8
0
10
-0.614961
20
-1.043307
40
0.025000
0
INSERT
8
0
2
RPAD
10
-0.714961
20
-1.043307
41
0.080000
42
0.080000
50
-180.000000
0
CIRCLE
8
0
10
-0.714961
20
-1.043307
40
0.025000
0
INSERT
8
0
2
EPAD
10
0.807087
20
-0.964567
41
0.120000
42
0.120000
0
CIRCLE
8
0
10
0.807087
20
-0.964567
40
0.030000
0
INSERT
8
0
2
EPAD
10
0.610087
20
-0.964567
41
0.120000
42
0.120000
0
CIRCLE
8
0
10
0.610087
20
-0.964567
40
0.030000
0
INSERT
8
0
2
EPAD
10
0.413087
20
-0.964567
41
0.120000
42
0.120000
0
CIRCLE
8
0
10
0.413087
20
-0.964567
40
0.030000
0
INSERT
8
0
2
EPAD
10
1.003937
20
0.885827
41
0.121000
42
0.121000
0
CIRCLE
8
0
10
1.003937
20
0.885827
40
0.118110
0
INSERT
8
0
2
EPAD
10
-1.003937
20
0.885827
41
0.121000
42
0.121000
0
CIRCLE
8
0
10
-1.003937
20
0.885827
40
0.118110
0
INSERT
8
0
2
EPAD
10
-1.003937
20
-1.082677
41
0.121000
42
0.121000
0
CIRCLE
8
0
10
-1.003937
20
-1.082677
40
0.118110
0
INSERT
8
0
2
EPAD
10
1.003937
20
-1.082677
41
0.121000
42
0.121000
0
CIRCLE
8
0
10
1.003937
20
-1.082677
40
0.118110
0
INSERT
8
0
2
EPAD
10
-0.787402
20
0.944882
41
0.120000
42
0.120000
0
CIRCLE
8
0
10
-0.787402
20
0.944882
40
0.030000
0
INSERT
8
0
2
EPAD
10
-0.590402
20
0.944882
41
0.120000
42
0.120000
0
CIRCLE
8
0
10
-0.590402
20
0.944882
40
0.030000
0
INSERT
8
0
2
RPAD
10
0.707087
20
1.043307
41
0.080000
42
0.080000
50
0.000000
0
CIRCLE
8
0
10
0.707087
20
1.043307
40
0.025000
0
INSERT
8
0
2
RPAD
10
0.807087
20
1.043307
41
0.080000
42
0.080000
50
0.000000
0
CIRCLE
8
0
10
0.807087
20
1.043307
40
0.025000
0
INSERT
8
0
2
RPAD
10
0.118110
20
1.043307
41
0.080000
42
0.080000
50
0.000000
0
CIRCLE
8
0
10
0.118110
20
1.043307
40
0.025000
0
INSERT
8
0
2
RPAD
10
0.218110
20
1.043307
41
0.080000
42
0.080000
50
0.000000
0
CIRCLE
8
0
10
0.218110
20
1.043307
40
0.025000
0
INSERT
8
0
2
RPAD
10
0.318110
20
1.043307
41
0.080000
42
0.080000
50
0.000000
0
CIRCLE
8
0
10
0.318110
20
1.043307
40
0.025000
0
INSERT
8
0
2
RPAD
10
-0.944882
20
0.334646
41
0.080000
42
0.080000
50
-270.000000
0
CIRCLE
8
0
10
-0.944882
20
0.334646
40
0.025000
0
INSERT
8
0
2
RPAD
10
-0.944882
20
0.434646
41
0.080000
42
0.080000
50
-270.000000
0
CIRCLE
8
0
10
-0.944882
20
0.434646
40
0.025000
0
INSERT
8
0
2
RPAD
10
-0.944882
20
0.534646
41
0.080000
42
0.080000
50
-270.000000
0
CIRCLE
8
0
10
-0.944882
20
0.534646
40
0.025000
0
INSERT
8
0
2
RPAD
10
-0.944882
20
0.634646
41
0.080000
42
0.080000
50
-270.000000
0
CIRCLE
8
0
10
-0.944882
20
0.634646
40
0.025000
0
INSERT
8
0
2
RPAD
10
0.944882
20
0.063780
41
0.080000
42
0.080000
50
-90.000000
0
CIRCLE
8
0
10
0.944882
20
0.063780
40
0.025000
0
INSERT
8
0
2
RPAD
10
0.944882
20
-0.036220
41
0.080000
42
0.080000
50
-90.000000
0
CIRCLE
8
0
10
0.944882
20
-0.036220
40
0.025000
0
INSERT
8
0
2
RPAD
10
0.944882
20
-0.136220
41
0.080000
42
0.080000
50
-90.000000
0
CIRCLE
8
0
10
0.944882
20
-0.136220
40
0.025000
0
INSERT
8
0
2
RPAD
10
0.944882
20
-0.236220
41
0.080000
42
0.080000
50
-90.000000
0
CIRCLE
8
0
10
0.944882
20
-0.236220
40
0.025000
0
INSERT
8
0
2
RPAD
10
-0.944882
20
0.019685
41
0.080000
42
0.080000
50
-270.000000
0
CIRCLE
8
0
10
-0.944882
20
0.019685
40
0.025000
0
INSERT
8
0
2
RPAD
10
-0.944882
20
0.119685
41
0.080000
42
0.080000
50
-270.000000
0
CIRCLE
8
0
10
-0.944882
20
0.119685
40
0.025000
0
INSERT
8
0
2
RPAD
10
0.925197
20
-0.411811
41
0.080000
42
0.080000
50
-90.000000
0
CIRCLE
8
0
10
0.925197
20
-0.411811
40
0.025000
0
INSERT
8
0
2
RPAD
10
0.925197
20
-0.511811
41
0.080000
42
0.080000
50
-90.000000
0
CIRCLE
8
0
10
0.925197
20
-0.511811
40
0.025000
0
INSERT
8
0
2
RPAD
10
0.925197
20
-0.611811
41
0.080000
42
0.080000
50
-90.000000
0
CIRCLE
8
0
10
0.925197
20
-0.611811
40
0.025000
0
INSERT
8
0
2
RPAD
10
-0.682677
20
0.098661
41
0.050000
42
0.050000
50
90.000000
0
CIRCLE
8
0
10
-0.682677
20
0.098661
40
0.010000
0
INSERT
8
0
2
EPAD
10
-0.582677
20
0.098661
41
0.050000
42
0.050000
0
CIRCLE
8
0
10
-0.582677
20
0.098661
40
0.010000
0
INSERT
8
0
2
EPAD
10
-0.482677
20
0.098661
41
0.050000
42
0.050000
0
CIRCLE
8
0
10
-0.482677
20
0.098661
40
0.010000
0
INSERT
8
0
2
EPAD
10
-0.382677
20
0.098661
41
0.050000
42
0.050000
0
CIRCLE
8
0
10
-0.382677
20
0.098661
40
0.010000
0
INSERT
8
0
2
EPAD
10
-0.282677
20
0.098661
41
0.050000
42
0.050000
0
CIRCLE
8
0
10
-0.282677
20
0.098661
40
0.010000
0
INSERT
8
0
2
EPAD
10
-0.182677
20
0.098661
41
0.050000
42
0.050000
0
CIRCLE
8
0
10
-0.182677
20
0.098661
40
0.010000
0
INSERT
8
0
2
EPAD
10
-0.082677
20
0.098661
41
0.050000
42
0.050000
0
CIRCLE
8
0
10
-0.082677
20
0.098661
40
0.010000
0
INSERT
8
0
2
EPAD
10
0.017323
20
0.098661
41
0.050000
42
0.050000
0
CIRCLE
8
0
10
0.017323
20
0.098661
40
0.010000
0
INSERT
8
0
2
EPAD
10
0.117323
20
0.098661
41
0.050000
42
0.050000
0
CIRCLE
8
0
10
0.117323
20
0.098661
40
0.010000
0
INSERT
8
0
2
EPAD
10
0.217323
20
0.098661
41
0.050000
42
0.050000
0
CIRCLE
8
0
10
0.217323
20
0.098661
40
0.010000
0
INSERT
8
0
2
EPAD
10
0.317323
20
0.098661
41
0.050000
42
0.050000
0
CIRCLE
8
0
10
0.317323
20
0.098661
40
0.010000
0
INSERT
8
0
2
EPAD
10
0.417323
20
0.098661
41
0.050000
42
0.050000
0
CIRCLE
8
0
10
0.417323
20
0.098661
40
0.010000
0
INSERT
8
0
2
EPAD
10
0.517323
20
0.098661
41
0.050000
42
0.050000
0
CIRCLE
8
0
10
0.517323
20
0.098661
40
0.010000
0
INSERT
8
0
2
EPAD
10
0.617323
20
0.098661
41
0.050000
42
0.050000
0
CIRCLE
8
0
10
0.617323
20
0.098661
40
0.010000
0
INSERT
8
0
2
EPAD
10
0.617323
20
0.398661
41
0.050000
42
0.050000
0
CIRCLE
8
0
10
0.617323
20
0.398661
40
0.010000
0
INSERT
8
0
2
EPAD
10
0.517323
20
0.398661
41
0.050000
42
0.050000
0
CIRCLE
8
0
10
0.517323
20
0.398661
40
0.010000
0
INSERT
8
0
2
EPAD
10
0.417323
20
0.398661
41
0.050000
42
0.050000
0
CIRCLE
8
0
10
0.417323
20
0.398661
40
0.010000
0
INSERT
8
0
2
EPAD
10
0.317323
20
0.398661
41
0.050000
42
0.050000
0
CIRCLE
8
0
10
0.317323
20
0.398661
40
0.010000
0
INSERT
8
0
2
EPAD
10
0.217323
20
0.398661
41
0.050000
42
0.050000
0
CIRCLE
8
0
10
0.217323
20
0.398661
40
0.010000
0
INSERT
8
0
2
EPAD
10
0.117323
20
0.398661
41
0.050000
42
0.050000
0
CIRCLE
8
0
10
0.117323
20
0.398661
40
0.010000
0
INSERT
8
0
2
EPAD
10
0.017323
20
0.398661
41
0.050000
42
0.050000
0
CIRCLE
8
0
10
0.017323
20
0.398661
40
0.010000
0
INSERT
8
0
2
EPAD
10
-0.082677
20
0.398661
41
0.050000
42
0.050000
0
CIRCLE
8
0
10
-0.082677
20
0.398661
40
0.010000
0
INSERT
8
0
2
EPAD
10
-0.182677
20
0.398661
41
0.050000
42
0.050000
0
CIRCLE
8
0
10
-0.182677
20
0.398661
40
0.010000
0
INSERT
8
0
2
EPAD
10
-0.282677
20
0.398661
41
0.050000
42
0.050000
0
CIRCLE
8
0
10
-0.282677
20
0.398661
40
0.010000
0
INSERT
8
0
2
EPAD
10
-0.382677
20
0.398661
41
0.050000
42
0.050000
0
CIRCLE
8
0
10
-0.382677
20
0.398661
40
0.010000
0
INSERT
8
0
2
EPAD
10
-0.482677
20
0.398661
41
0.050000
42
0.050000
0
CIRCLE
8
0
10
-0.482677
20
0.398661
40
0.010000
0
INSERT
8
0
2
EPAD
10
-0.582677
20
0.398661
41
0.050000
42
0.050000
0
CIRCLE
8
0
10
-0.582677
20
0.398661
40
0.010000
0
INSERT
8
0
2
EPAD
10
-0.681890
20
0.398661
41
0.050000
42
0.050000
0
CIRCLE
8
0
10
-0.681890
20
0.398661
40
0.010000
0
INSERT
8
0
2
EPAD
10
0.524724
20
0.676063
41
0.080000
42
0.080000
0
CIRCLE
8
0
10
0.524724
20
0.676063
40
0.025000
0
INSERT
8
0
2
EPAD
10
0.406614
20
0.676063
41
0.080000
42
0.080000
0
CIRCLE
8
0
10
0.406614
20
0.676063
40
0.025000
0
INSERT
8
0
2
EPAD
10
-0.000157
20
-0.111339
41
0.080000
42
0.080000
0
CIRCLE
8
0
10
-0.000157
20
-0.111339
40
0.025000
0
INSERT
8
0
2
EPAD
10
0.199843
20
-0.111339
41
0.080000
42
0.080000
0
CIRCLE
8
0
10
0.199843
20
-0.111339
40
0.025000
0
INSERT
8
0
2
RPAD
10
-0.124882
20
0.518661
41
0.050000
42
0.050000
50
0.000000
0
CIRCLE
8
0
10
-0.124882
20
0.518661
40
0.030000
0
INSERT
8
0
2
EPAD
10
-0.024882
20
0.518661
41
0.050000
42
0.050000
0
CIRCLE
8
0
10
-0.024882
20
0.518661
40
0.030000
0
INSERT
8
0
2
EPAD
10
0.075118
20
0.518661
41
0.050000
42
0.050000
0
CIRCLE
8
0
10
0.075118
20
0.518661
40
0.030000
0
INSERT
8
0
2
EPAD
10
0.175118
20
0.518661
41
0.050000
42
0.050000
0
CIRCLE
8
0
10
0.175118
20
0.518661
40
0.030000
0
INSERT
8
0
2
EPAD
10
0.175118
20
0.818661
41
0.050000
42
0.050000
0
CIRCLE
8
0
10
0.175118
20
0.818661
40
0.030000
0
INSERT
8
0
2
EPAD
10
0.075118
20
0.818661
41
0.050000
42
0.050000
0
CIRCLE
8
0
10
0.075118
20
0.818661
40
0.030000
0
INSERT
8
0
2
EPAD
10
-0.024882
20
0.818661
41
0.050000
42
0.050000
0
CIRCLE
8
0
10
-0.024882
20
0.818661
40
0.030000
0
INSERT
8
0
2
EPAD
10
-0.124882
20
0.818661
41
0.050000
42
0.050000
0
CIRCLE
8
0
10
-0.124882
20
0.818661
40
0.030000
0
INSERT
8
0
2
EPAD
10
0.419843
20
-0.111339
41
0.080000
42
0.080000
0
CIRCLE
8
0
10
0.419843
20
-0.111339
40
0.025000
0
INSERT
8
0
2
EPAD
10
0.519843
20
-0.111339
41
0.080000
42
0.080000
0
CIRCLE
8
0
10
0.519843
20
-0.111339
40
0.025000
0
INSERT
8
0
2
EPAD
10
-0.426772
20
-0.721654
41
0.070000
42
0.070000
0
CIRCLE
8
0
10
-0.426772
20
-0.721654
40
0.025000
0
INSERT
8
0
2
EPAD
10
-0.426772
20
-0.321654
41
0.070000
42
0.070000
0
CIRCLE
8
0
10
-0.426772
20
-0.321654
40
0.025000
0
INSERT
8
0
2
EPAD
10
-0.229843
20
-0.721654
41
0.070000
42
0.070000
0
CIRCLE
8
0
10
-0.229843
20
-0.721654
40
0.025000
0
INSERT
8
0
2
EPAD
10
-0.229843
20
-0.321654
41
0.070000
42
0.070000
0
CIRCLE
8
0
10
-0.229843
20
-0.321654
40
0.025000
0
INSERT
8
0
2
EPAD
10
-0.039606
20
-0.721654
41
0.070000
42
0.070000
0
CIRCLE
8
0
10
-0.039606
20
-0.721654
40
0.025000
0
INSERT
8
0
2
EPAD
10
-0.039606
20
-0.321654
41
0.070000
42
0.070000
0
CIRCLE
8
0
10
-0.039606
20
-0.321654
40
0.025000
0
INSERT
8
0
2
EPAD
10
0.715118
20
0.728661
41
0.070000
42
0.070000
0
CIRCLE
8
0
10
0.715118
20
0.728661
40
0.025000
0
INSERT
8
0
2
EPAD
10
0.915118
20
0.728661
41
0.070000
42
0.070000
0
CIRCLE
8
0
10
0.915118
20
0.728661
40
0.025000
0
INSERT
8
0
2
EPAD
10
-0.682677
20
0.728661
41
0.070000
42
0.070000
0
CIRCLE
8
0
10
-0.682677
20
0.728661
40
0.025000
0
INSERT
8
0
2
EPAD
10
-0.682677
20
0.528661
41
0.070000
42
0.070000
0
CIRCLE
8
0
10
-0.682677
20
0.528661
40
0.025000
0
INSERT
8
0
2
EPAD
10
-0.656220
20
-0.669134
41
0.070000
42
0.070000
0
CIRCLE
8
0
10
-0.656220
20
-0.669134
40
0.025000
0
INSERT
8
0
2
EPAD
10
-0.656220
20
-0.369134
41
0.070000
42
0.070000
0
CIRCLE
8
0
10
-0.656220
20
-0.369134
40
0.025000
0
INSERT
8
0
2
EPAD
10
0.721732
20
0.020000
41
0.070000
42
0.070000
0
CIRCLE
8
0
10
0.721732
20
0.020000
40
0.025000
0
INSERT
8
0
2
EPAD
10
0.721732
20
-0.196535
41
0.070000
42
0.070000
0
CIRCLE
8
0
10
0.721732
20
-0.196535
40
0.025000
0
INSERT
8
0
2
EPAD
10
-0.472677
20
0.728661
41
0.070000
42
0.070000
0
CIRCLE
8
0
10
-0.472677
20
0.728661
40
0.025000
0
INSERT
8
0
2
EPAD
10
-0.472677
20
0.512126
41
0.070000
42
0.070000
0
CIRCLE
8
0
10
-0.472677
20
0.512126
40
0.025000
0
INSERT
8
0
2
EPAD
10
-0.518425
20
-0.104724
41
0.050000
42
0.050000
0
CIRCLE
8
0
10
-0.518425
20
-0.104724
40
0.010000
0
INSERT
8
0
2
EPAD
10
-0.597165
20
-0.104724
41
0.050000
42
0.050000
0
CIRCLE
8
0
10
-0.597165
20
-0.104724
40
0.010000
0
INSERT
8
0
2
EPAD
10
-0.242835
20
-0.098189
41
0.050000
42
0.050000
0
CIRCLE
8
0
10
-0.242835
20
-0.098189
40
0.010000
0
INSERT
8
0
2
EPAD
10
-0.321575
20
-0.098189
41
0.050000
42
0.050000
0
CIRCLE
8
0
10
-0.321575
20
-0.098189
40
0.010000
0
INSERT
8
0
2
RPAD
10
-0.944882
20
-0.731496
41
0.080000
42
0.080000
50
90.000000
0
CIRCLE
8
0
10
-0.944882
20
-0.731496
40
0.025000
0
INSERT
8
0
2
RPAD
10
-0.944882
20
-0.631496
41
0.080000
42
0.080000
50
90.000000
0
CIRCLE
8
0
10
-0.944882
20
-0.631496
40
0.025000
0
INSERT
8
0
2
RPAD
10
-0.944882
20
-0.531496
41
0.080000
42
0.080000
50
90.000000
0
CIRCLE
8
0
10
-0.944882
20
-0.531496
40
0.025000
0
INSERT
8
0
2
RPAD
10
-0.944882
20
-0.431496
41
0.080000
42
0.080000
50
90.000000
0
CIRCLE
8
0
10
-0.944882
20
-0.431496
40
0.025000
0
INSERT
8
0
2
RPAD
10
-0.944882
20
-0.331496
41
0.080000
42
0.080000
50
90.000000
0
CIRCLE
8
0
10
-0.944882
20
-0.331496
40
0.025000
0
INSERT
8
0
2
EPAD
10
0.150787
20
-0.721654
41
0.070000
42
0.070000
0
CIRCLE
8
0
10
0.150787
20
-0.721654
40
0.025000
0
INSERT
8
0
2
EPAD
10
0.150787
20
-0.321654
41
0.070000
42
0.070000
0
CIRCLE
8
0
10
0.150787
20
-0.321654
40
0.025000
0
INSERT
8
0
2
EPAD
10
0.341102
20
-0.721654
41
0.070000
42
0.070000
0
CIRCLE
8
0
10
0.341102
20
-0.721654
40
0.025000
0
INSERT
8
0
2
EPAD
10
0.341102
20
-0.321654
41
0.070000
42
0.070000
0
CIRCLE
8
0
10
0.341102
20
-0.321654
40
0.025000
0
INSERT
8
0
2
EPAD
10
0.531417
20
-0.721654
41
0.070000
42
0.070000
0
CIRCLE
8
0
10
0.531417
20
-0.721654
40
0.025000
0
INSERT
8
0
2
EPAD
10
0.531417
20
-0.321654
41
0.070000
42
0.070000
0
CIRCLE
8
0
10
0.531417
20
-0.321654
40
0.025000
0
INSERT
8
0
2
EPAD
10
0.715118
20
0.518661
41
0.070000
42
0.070000
0
CIRCLE
8
0
10
0.715118
20
0.518661
40
0.025000
0
INSERT
8
0
2
EPAD
10
0.915118
20
0.518661
41
0.070000
42
0.070000
0
CIRCLE
8
0
10
0.915118
20
0.518661
40
0.025000
0
INSERT
8
0
2
EPAD
10
0.728346
20
-0.721654
41
0.070000
42
0.070000
0
CIRCLE
8
0
10
0.728346
20
-0.721654
40
0.025000
0
INSERT
8
0
2
EPAD
10
0.728346
20
-0.321654
41
0.070000
42
0.070000
0
CIRCLE
8
0
10
0.728346
20
-0.321654
40
0.025000
0
INSERT
8
0
2
EPAD
10
-0.413386
20
1.023622
41
0.070000
42
0.070000
0
CIRCLE
8
0
10
-0.413386
20
1.023622
40
0.025000
0
INSERT
8
0
2
EPAD
10
-0.013386
20
1.023622
41
0.070000
42
0.070000
0
CIRCLE
8
0
10
-0.013386
20
1.023622
40
0.025000
0
POLYLINE
8
0
66
1
40
0.008000
41
0.008000
0
VERTEX
8
0
10
-0.110630
20
-1.093307
0
VERTEX
8
0
10
0.089370
20
-1.093307
0
VERTEX
8
0
10
0.089370
20
-0.993307
0
VERTEX
8
0
10
-0.110630
20
-0.993307
0
VERTEX
8
0
10
-0.110630
20
-1.093307
0
SEQEND
8
0
0
TEXT
8
0
10
-0.171260
20
-1.163512
40
0.048000
41
1.041667
1
PHONES
0
POLYLINE
8
0
66
1
40
0.008000
41
0.008000
0
VERTEX
8
0
10
-0.764961
20
-1.093307
0
VERTEX
8
0
10
-0.264961
20
-1.093307
0
VERTEX
8
0
10
-0.264961
20
-0.993307
0
VERTEX
8
0
10
-0.764961
20
-0.993307
0
VERTEX
8
0
10
-0.764961
20
-1.093307
0
SEQEND
8
0
0
TEXT
8
0
10
-0.614961
20
-1.165677
40
0.048000
41
1.041667
1
PROG
0
POLYLINE
8
0
66
1
40
0.008000
41
0.008000
0
VERTEX
8
0
10
0.907087
20
-0.814567
0
VERTEX
8
0
10
0.907087
20
-1.114567
0
SEQEND
8
0
0
POLYLINE
8
0
66
1
40
0.008000
41
0.008000
0
VERTEX
8
0
10
0.307087
20
-1.114567
0
VERTEX
8
0
10
0.307087
20
-0.814567
0
SEQEND
8
0
0
POLYLINE
8
0
66
1
40
0.008000
41
0.008000
0
VERTEX
8
0
10
0.907087
20
-1.114567
0
VERTEX
8
0
10
0.307087
20
-1.114567
0
SEQEND
8
0
0
POLYLINE
8
0
66
1
40
0.008000
41
0.008000
0
VERTEX
8
0
10
0.907087
20
-0.814567
0
VERTEX
8
0
10
0.307087
20
-0.814567
0
SEQEND
8
0
0
TEXT
8
0
10
0.551772
20
-1.172173
40
0.048000
41
1.041667
1
VOL
0
POLYLINE
8
0
66
1
40
0.008000
41
0.008000
0
VERTEX
8
0
10
-1.102362
20
-1.181102
0
VERTEX
8
0
10
1.102362
20
-1.181102
0
VERTEX
8
0
10
1.102362
20
1.181102
0
VERTEX
8
0
10
-1.102362
20
1.181102
0
VERTEX
8
0
10
-1.102362
20
-1.181102
0
SEQEND
8
0
0
TEXT
8
0
10
-0.992126
20
-0.897087
40
0.080000
41
0.750000
1
BeatDuino 1.0
0
POLYLINE
8
0
66
1
40
0.008000
41
0.008000
0
VERTEX
8
0
10
-0.887402
20
0.794882
0
VERTEX
8
0
10
-0.887402
20
1.094882
0
SEQEND
8
0
0
POLYLINE
8
0
66
1
40
0.008000
41
0.008000
0
VERTEX
8
0
10
-0.487402
20
1.094882
0
VERTEX
8
0
10
-0.487402
20
0.794882
0
SEQEND
8
0
0
POLYLINE
8
0
66
1
40
0.008000
41
0.008000
0
VERTEX
8
0
10
-0.887402
20
0.794882
0
VERTEX
8
0
10
-0.487402
20
0.794882
0
SEQEND
8
0
0
POLYLINE
8
0
66
1
40
0.008000
41
0.008000
0
VERTEX
8
0
10
-0.887402
20
1.094882
0
VERTEX
8
0
10
-0.487402
20
1.094882
0
SEQEND
8
0
0
TEXT
8
0
10
-0.812402
20
1.104882
40
0.048000
41
1.041667
1
POWER
0
POLYLINE
8
0
66
1
40
0.008000
41
0.008000
0
VERTEX
8
0
10
0.657087
20
0.993307
0
VERTEX
8
0
10
0.857087
20
0.993307
0
VERTEX
8
0
10
0.857087
20
1.093307
0
VERTEX
8
0
10
0.657087
20
1.093307
0
VERTEX
8
0
10
0.657087
20
0.993307
0
SEQEND
8
0
0
TEXT
8
0
10
0.657087
20
1.103307
40
0.048000
41
1.041667
1
LINE
0
POLYLINE
8
0
66
1
40
0.008000
41
0.008000
0
VERTEX
8
0
10
0.068110
20
0.993307
0
VERTEX
8
0
10
0.368110
20
0.993307
0
VERTEX
8
0
10
0.368110
20
1.093307
0
VERTEX
8
0
10
0.068110
20
1.093307
0
VERTEX
8
0
10
0.068110
20
0.993307
0
SEQEND
8
0
0
TEXT
8
0
10
0.118110
20
1.103307
40
0.048000
41
1.041667
1
MIDI
0
POLYLINE
8
0
66
1
40
0.008000
41
0.008000
0
VERTEX
8
0
10
-0.994882
20
0.284646
0
VERTEX
8
0
10
-0.894882
20
0.284646
0
VERTEX
8
0
10
-0.894882
20
0.684646
0
VERTEX
8
0
10
-0.994882
20
0.684646
0
VERTEX
8
0
10
-0.994882
20
0.284646
0
SEQEND
8
0
0
TEXT
8
0
10
-1.004882
20
0.384646
40
0.048000
41
1.041667
50
90.000000
1
OLED
0
POLYLINE
8
0
66
1
40
0.008000
41
0.008000
0
VERTEX
8
0
10
0.894882
20
-0.286220
0
VERTEX
8
0
10
0.994882
20
-0.286220
0
VERTEX
8
0
10
0.994882
20
0.113780
0
VERTEX
8
0
10
0.894882
20
0.113780
0
VERTEX
8
0
10
0.894882
20
-0.286220
0
SEQEND
8
0
0
TEXT
8
0
10
1.052882
20
-0.261220
40
0.048000
41
1.041667
50
90.000000
1
BUTTONS
0
POLYLINE
8
0
66
1
40
0.008000
41
0.008000
0
VERTEX
8
0
10
-0.994882
20
-0.030315
0
VERTEX
8
0
10
-0.894882
20
-0.030315
0
VERTEX
8
0
10
-0.894882
20
0.169685
0
VERTEX
8
0
10
-0.994882
20
0.169685
0
VERTEX
8
0
10
-0.994882
20
-0.030315
0
SEQEND
8
0
0
TEXT
8
0
10
-1.004882
20
-0.005315
40
0.048000
41
1.041667
50
90.000000
1
LED
0
POLYLINE
8
0
66
1
40
0.008000
41
0.008000
0
VERTEX
8
0
10
0.875197
20
-0.661811
0
VERTEX
8
0
10
0.975197
20
-0.661811
0
VERTEX
8
0
10
0.975197
20
-0.361811
0
VERTEX
8
0
10
0.875197
20
-0.361811
0
VERTEX
8
0
10
0.875197
20
-0.661811
0
SEQEND
8
0
0
POLYLINE
8
0
66
1
40
0.008000
41
0.008000
0
VERTEX
8
0
10
0.975197
20
-0.361811
0
VERTEX
8
0
10
1.025197
20
-0.361811
0
VERTEX
8
0
10
1.025197
20
-0.661811
0
VERTEX
8
0
10
0.975197
20
-0.661811
0
SEQEND
8
0
0
POLYLINE
8
0
66
1
40
0.008000
41
0.008000
0
VERTEX
8
0
10
0.975197
20
-0.361811
0
VERTEX
8
0
10
1.025197
20
-0.411811
0
SEQEND
8
0
0
POLYLINE
8
0
66
1
40
0.008000
41
0.008000
0
VERTEX
8
0
10
0.975197
20
-0.411811
0
VERTEX
8
0
10
1.025197
20
-0.461811
0
SEQEND
8
0
0
POLYLINE
8
0
66
1
40
0.008000
41
0.008000
0
VERTEX
8
0
10
0.975197
20
-0.461811
0
VERTEX
8
0
10
1.025197
20
-0.511811
0
SEQEND
8
0
0
POLYLINE
8
0
66
1
40
0.008000
41
0.008000
0
VERTEX
8
0
10
0.975197
20
-0.511811
0
VERTEX
8
0
10
1.025197
20
-0.561811
0
SEQEND
8
0
0
POLYLINE
8
0
66
1
40
0.008000
41
0.008000
0
VERTEX
8
0
10
0.975197
20
-0.561811
0
VERTEX
8
0
10
1.025197
20
-0.611811
0
SEQEND
8
0
0
POLYLINE
8
0
66
1
40
0.008000
41
0.008000
0
VERTEX
8
0
10
0.975197
20
-0.611811
0
VERTEX
8
0
10
1.025197
20
-0.661811
0
SEQEND
8
0
0
TEXT
8
0
10
1.083197
20
-0.561811
40
0.048000
41
1.041667
50
90.000000
1
U1
0
POLYLINE
8
0
66
1
40
0.008000
41
0.008000
0
VERTEX
8
0
10
-0.706890
20
0.148661
0
VERTEX
8
0
10
0.643110
20
0.148661
0
VERTEX
8
0
10
0.643110
20
0.348661
0
VERTEX
8
0
10
-0.706890
20
0.348661
0
SEQEND
8
0
0
POLYLINE
8
0
66
1
40
0.008000
41
0.008000
0
VERTEX
8
0
10
-0.706890
20
0.148661
0
VERTEX
8
0
10
-0.706890
20
0.198661
0
SEQEND
8
0
0
POLYLINE
8
0
66
1
40
0.008000
41
0.008000
0
VERTEX
8
0
10
-0.706890
20
0.348661
0
VERTEX
8
0
10
-0.706890
20
0.298661
0
SEQEND
8
0
0
POLYLINE
8
0
66
1
40
0.008000
41
0.008000
0
VERTEX
8
0
10
-0.706890
20
0.198661
0
VERTEX
8
0
10
-0.696666
20
0.199656
0
VERTEX
8
0
10
-0.687212
20
0.202519
0
VERTEX
8
0
10
-0.678710
20
0.207066
0
VERTEX
8
0
10
-0.671343
20
0.213115
0
VERTEX
8
0
10
-0.665294
20
0.220481
0
VERTEX
8
0
10
-0.660747
20
0.228984
0
VERTEX
8
0
10
-0.657885
20
0.238438
0
VERTEX
8
0
10
-0.656890
20
0.248661
0
SEQEND
8
0
0
POLYLINE
8
0
66
1
40
0.008000
41
0.008000
0
VERTEX
8
0
10
-0.706890
20
0.298661
0
VERTEX
8
0
10
-0.696666
20
0.297667
0
VERTEX
8
0
10
-0.687212
20
0.294804
0
VERTEX
8
0
10
-0.678710
20
0.290257
0
VERTEX
8
0
10
-0.671343
20
0.284208
0
VERTEX
8
0
10
-0.665294
20
0.276841
0
VERTEX
8
0
10
-0.660747
20
0.268339
0
VERTEX
8
0
10
-0.657885
20
0.258885
0
VERTEX
8
0
10
-0.656890
20
0.248661
0
SEQEND
8
0
0
CIRCLE
8
0
10
-0.686890
20
0.164661
40
0.002828
0
TEXT
8
0
10
-0.716890
20
0.198661
40
0.048000
41
1.041667
50
90.000000
1
U2
0
CIRCLE
8
0
10
0.465669
20
0.680000
40
0.157424
0
POLYLINE
8
0
66
1
40
0.008000
41
0.008000
0
VERTEX
8
0
10
0.505039
20
0.617008
0
VERTEX
8
0
10
0.505039
20
0.577638
0
SEQEND
8
0
0
POLYLINE
8
0
66
1
40
0.008000
41
0.008000
0
VERTEX
8
0
10
0.524724
20
0.597323
0
VERTEX
8
0
10
0.485354
20
0.597323
0
SEQEND
8
0
0
TEXT
8
0
10
0.415669
20
0.858276
40
0.048000
41
1.041667
1
C9
0
POLYLINE
8
0
66
1
40
0.008000
41
0.008000
0
VERTEX
8
0
10
-0.050157
20
-0.011339
0
VERTEX
8
0
10
0.249843
20
-0.011339
0
VERTEX
8
0
10
0.299843
20
-0.061339
0
VERTEX
8
0
10
0.299843
20
-0.161339
0
VERTEX
8
0
10
0.249843
20
-0.211339
0
VERTEX
8
0
10
-0.050157
20
-0.211339
0
VERTEX
8
0
10
-0.100157
20
-0.161339
0
VERTEX
8
0
10
-0.100157
20
-0.061339
0
VERTEX
8
0
10
-0.050157
20
-0.011339
0
SEQEND
8
0
0
TEXT
8
0
10
0.049843
20
-0.001339
40
0.048000
41
1.041667
1
X1
0
POLYLINE
8
0
66
1
40
0.008000
41
0.008000
0
VERTEX
8
0
10
-0.174882
20
0.718661
0
VERTEX
8
0
10
-0.174882
20
0.768661
0
VERTEX
8
0
10
0.225118
20
0.768661
0
VERTEX
8
0
10
0.225118
20
0.568661
0
VERTEX
8
0
10
-0.174882
20
0.568661
0
VERTEX
8
0
10
-0.174882
20
0.618661
0
SEQEND
8
0
0
POLYLINE
8
0
66
1
40
0.008000
41
0.008000
0
VERTEX
8
0
10
-0.124882
20
0.668661
0
VERTEX
8
0
10
-0.125841
20
0.678849
0
VERTEX
8
0
10
-0.128616
20
0.688287
0
VERTEX
8
0
10
-0.133056
20
0.696787
0
VERTEX
8
0
10
-0.139007
20
0.704161
0
VERTEX
8
0
10
-0.146317
20
0.710224
0
VERTEX
8
0
10
-0.154835
20
0.714787
0
VERTEX
8
0
10
-0.164407
20
0.717661
0
VERTEX
8
0
10
-0.174882
20
0.718661
0
SEQEND
8
0
0
POLYLINE
8
0
66
1
40
0.008000
41
0.008000
0
VERTEX
8
0
10
-0.124882
20
0.668661
0
VERTEX
8
0
10
-0.125841
20
0.658187
0
VERTEX
8
0
10
-0.128616
20
0.648615
0
VERTEX
8
0
10
-0.133056
20
0.640097
0
VERTEX
8
0
10
-0.139007
20
0.632787
0
VERTEX
8
0
10
-0.146317
20
0.626835
0
VERTEX
8
0
10
-0.154835
20
0.622396
0
VERTEX
8
0
10
-0.164407
20
0.619620
0
VERTEX
8
0
10
-0.174882
20
0.618661
0
SEQEND
8
0
0
TEXT
8
0
10
-0.184882
20
0.618661
40
0.048000
41
1.041667
50
90.000000
1
U3
0
CIRCLE
8
0
10
0.469843
20
-0.111339
40
0.100000
0
POLYLINE
8
0
66
1
40
0.008000
41
0.008000
0
VERTEX
8
0
10
0.394843
20
-0.061339
0
VERTEX
8
0
10
0.444843
20
-0.061339
0
SEQEND
8
0
0
POLYLINE
8
0
66
1
40
0.008000
41
0.008000
0
VERTEX
8
0
10
0.419843
20
-0.036339
0
VERTEX
8
0
10
0.419843
20
-0.086339
0
SEQEND
8
0
0
TEXT
8
0
10
0.419843
20
-0.001339
40
0.048000
41
1.041667
1
C8
0
POLYLINE
8
0
66
1
40
0.008000
41
0.008000
0
VERTEX
8
0
10
-0.426772
20
-0.671654
0
VERTEX
8
0
10
-0.426772
20
-0.621654
0
SEQEND
8
0
0
POLYLINE
8
0
66
1
40
0.008000
41
0.008000
0
VERTEX
8
0
10
-0.451772
20
-0.621654
0
VERTEX
8
0
10
-0.401772
20
-0.621654
0
VERTEX
8
0
10
-0.401772
20
-0.421654
0
VERTEX
8
0
10
-0.451772
20
-0.421654
0
VERTEX
8
0
10
-0.451772
20
-0.621654
0
SEQEND
8
0
0
POLYLINE
8
0
66
1
40
0.008000
41
0.008000
0
VERTEX
8
0
10
-0.426772
20
-0.421654
0
VERTEX
8
0
10
-0.426772
20
-0.371654
0
SEQEND
8
0
0
TEXT
8
0
10
-0.461772
20
-0.571654
40
0.048000
41
1.041667
50
90.000000
1
R1
0
POLYLINE
8
0
66
1
40
0.008000
41
0.008000
0
VERTEX
8
0
10
-0.229843
20
-0.671654
0
VERTEX
8
0
10
-0.229843
20
-0.621654
0
SEQEND
8
0
0
POLYLINE
8
0
66
1
40
0.008000
41
0.008000
0
VERTEX
8
0
10
-0.254843
20
-0.621654
0
VERTEX
8
0
10
-0.204843
20
-0.621654
0
VERTEX
8
0
10
-0.204843
20
-0.421654
0
VERTEX
8
0
10
-0.254843
20
-0.421654
0
VERTEX
8
0
10
-0.254843
20
-0.621654
0
SEQEND
8
0
0
POLYLINE
8
0
66
1
40
0.008000
41
0.008000
0
VERTEX
8
0
10
-0.229843
20
-0.421654
0
VERTEX
8
0
10
-0.229843
20
-0.371654
0
SEQEND
8
0
0
TEXT
8
0
10
-0.264843
20
-0.571654
40
0.048000
41
1.041667
50
90.000000
1
R2
0
POLYLINE
8
0
66
1
40
0.008000
41
0.008000
0
VERTEX
8
0
10
-0.039606
20
-0.671654
0
VERTEX
8
0
10
-0.039606
20
-0.621654
0
SEQEND
8
0
0
POLYLINE
8
0
66
1
40
0.008000
41
0.008000
0
VERTEX
8
0
10
-0.064606
20
-0.621654
0
VERTEX
8
0
10
-0.014606
20
-0.621654
0
VERTEX
8
0
10
-0.014606
20
-0.421654
0
VERTEX
8
0
10
-0.064606
20
-0.421654
0
VERTEX
8
0
10
-0.064606
20
-0.621654
0
SEQEND
8
0
0
POLYLINE
8
0
66
1
40
0.008000
41
0.008000
0
VERTEX
8
0
10
-0.039606
20
-0.421654
0
VERTEX
8
0
10
-0.039606
20
-0.371654
0
SEQEND
8
0
0
TEXT
8
0
10
-0.074606
20
-0.571654
40
0.048000
41
1.041667
50
90.000000
1
R3
0
POLYLINE
8
0
66
1
40
0.008000
41
0.008000
0
VERTEX
8
0
10
0.665118
20
0.728661
0
VERTEX
8
0
10
0.668077
20
0.738849
0
VERTEX
8
0
10
0.676602
20
0.748287
0
VERTEX
8
0
10
0.690167
20
0.756787
0
VERTEX
8
0
10
0.708243
20
0.764161
0
VERTEX
8
0
10
0.730304
20
0.770224
0
VERTEX
8
0
10
0.755821
20
0.774787
0
VERTEX
8
0
10
0.784269
20
0.777661
0
VERTEX
8
0
10
0.815118
20
0.778661
0
SEQEND
8
0
0
POLYLINE
8
0
66
1
40
0.008000
41
0.008000
0
VERTEX
8
0
10
0.965118
20
0.728661
0
VERTEX
8
0
10
0.962118
20
0.738849
0
VERTEX
8
0
10
0.953493
20
0.748287
0
VERTEX
8
0
10
0.939806
20
0.756787
0
VERTEX
8
0
10
0.921618
20
0.764161
0
VERTEX
8
0
10
0.899493
20
0.770224
0
VERTEX
8
0
10
0.873993
20
0.774787
0
VERTEX
8
0
10
0.845681
20
0.777661
0
VERTEX
8
0
10
0.815118
20
0.778661
0
SEQEND
8
0
0
POLYLINE
8
0
66
1
40
0.008000
41
0.008000
0
VERTEX
8
0
10
0.965118
20
0.728661
0
VERTEX
8
0
10
0.962118
20
0.718474
0
VERTEX
8
0
10
0.953493
20
0.709036
0
VERTEX
8
0
10
0.939806
20
0.700536
0
VERTEX
8
0
10
0.921618
20
0.693161
0
VERTEX
8
0
10
0.899493
20
0.687099
0
VERTEX
8
0
10
0.873993
20
0.682536
0
VERTEX
8
0
10
0.845681
20
0.679661
0
VERTEX
8
0
10
0.815118
20
0.678661
0
SEQEND
8
0
0
POLYLINE
8
0
66
1
40
0.008000
41
0.008000
0
VERTEX
8
0
10
0.665118
20
0.728661
0
VERTEX
8
0
10
0.668077
20
0.718474
0
VERTEX
8
0
10
0.676602
20
0.709036
0
VERTEX
8
0
10
0.690167
20
0.700536
0
VERTEX
8
0
10
0.708243
20
0.693161
0
VERTEX
8
0
10
0.730304
20
0.687099
0
VERTEX
8
0
10
0.755821
20
0.682536
0
VERTEX
8
0
10
0.784269
20
0.679661
0
VERTEX
8
0
10
0.815118
20
0.678661
0
SEQEND
8
0
0
TEXT
8
0
10
0.765118
20
0.788661
40
0.048000
41
1.041667
1
C5
0
POLYLINE
8
0
66
1
40
0.008000
41
0.008000
0
VERTEX
8
0
10
-0.682677
20
0.778661
0
VERTEX
8
0
10
-0.672490
20
0.775702
0
VERTEX
8
0
10
-0.663052
20
0.767177
0
VERTEX
8
0
10
-0.654552
20
0.753613
0
VERTEX
8
0
10
-0.647177
20
0.735536
0
VERTEX
8
0
10
-0.641115
20
0.713476
0
VERTEX
8
0
10
-0.636552
20
0.687958
0
VERTEX
8
0
10
-0.633677
20
0.659511
0
VERTEX
8
0
10
-0.632677
20
0.628661
0
SEQEND
8
0
0
POLYLINE
8
0
66
1
40
0.008000
41
0.008000
0
VERTEX
8
0
10
-0.682677
20
0.478661
0
VERTEX
8
0
10
-0.672490
20
0.481661
0
VERTEX
8
0
10
-0.663052
20
0.490287
0
VERTEX
8
0
10
-0.654552
20
0.503974
0
VERTEX
8
0
10
-0.647177
20
0.522161
0
VERTEX
8
0
10
-0.641115
20
0.544287
0
VERTEX
8
0
10
-0.636552
20
0.569787
0
VERTEX
8
0
10
-0.633677
20
0.598099
0
VERTEX
8
0
10
-0.632677
20
0.628661
0
SEQEND
8
0
0
POLYLINE
8
0
66
1
40
0.008000
41
0.008000
0
VERTEX
8
0
10
-0.682677
20
0.478661
0
VERTEX
8
0
10
-0.692865
20
0.481661
0
VERTEX
8
0
10
-0.702302
20
0.490287
0
VERTEX
8
0
10
-0.710802
20
0.503974
0
VERTEX
8
0
10
-0.718177
20
0.522161
0
VERTEX
8
0
10
-0.724240
20
0.544287
0
VERTEX
8
0
10
-0.728802
20
0.569787
0
VERTEX
8
0
10
-0.731677
20
0.598099
0
VERTEX
8
0
10
-0.732677
20
0.628661
0
SEQEND
8
0
0
POLYLINE
8
0
66
1
40
0.008000
41
0.008000
0
VERTEX
8
0
10
-0.682677
20
0.778661
0
VERTEX
8
0
10
-0.692865
20
0.775702
0
VERTEX
8
0
10
-0.702302
20
0.767177
0
VERTEX
8
0
10
-0.710802
20
0.753613
0
VERTEX
8
0
10
-0.718177
20
0.735536
0
VERTEX
8
0
10
-0.724240
20
0.713476
0
VERTEX
8
0
10
-0.728802
20
0.687958
0
VERTEX
8
0
10
-0.731677
20
0.659511
0
VERTEX
8
0
10
-0.732677
20
0.628661
0
SEQEND
8
0
0
TEXT
8
0
10
-0.574677
20
0.578661
40
0.048000
41
1.041667
50
90.000000
1
C6
0
POLYLINE
8
0
66
1
40
0.008000
41
0.008000
0
VERTEX
8
0
10
-0.681220
20
-0.539134
0
VERTEX
8
0
10
-0.631220
20
-0.539134
0
SEQEND
8
0
0
POLYLINE
8
0
66
1
40
0.008000
41
0.008000
0
VERTEX
8
0
10
-0.681220
20
-0.539134
0
VERTEX
8
0
10
-0.656220
20
-0.489134
0
SEQEND
8
0
0
POLYLINE
8
0
66
1
40
0.008000
41
0.008000
0
VERTEX
8
0
10
-0.631220
20
-0.539134
0
VERTEX
8
0
10
-0.656220
20
-0.489134
0
SEQEND
8
0
0
POLYLINE
8
0
66
1
40
0.008000
41
0.008000
0
VERTEX
8
0
10
-0.681220
20
-0.489134
0
VERTEX
8
0
10
-0.631220
20
-0.489134
0
SEQEND
8
0
0
POLYLINE
8
0
66
1
40
0.008000
41
0.008000
0
VERTEX
8
0
10
-0.656220
20
-0.619134
0
VERTEX
8
0
10
-0.656220
20
-0.539134
0
SEQEND
8
0
0
POLYLINE
8
0
66
1
40
0.008000
41
0.008000
0
VERTEX
8
0
10
-0.656220
20
-0.489134
0
VERTEX
8
0
10
-0.656220
20
-0.419134
0
SEQEND
8
0
0
TEXT
8
0
10
-0.691220
20
-0.569134
40
0.048000
41
1.041667
50
90.000000
1
D1
0
POLYLINE
8
0
66
1
40
0.008000
41
0.008000
0
VERTEX
8
0
10
0.721732
20
0.059370
0
VERTEX
8
0
10
0.729782
20
0.057650
0
VERTEX
8
0
10
0.737227
20
0.052065
0
VERTEX
8
0
10
0.743921
20
0.041982
0
VERTEX
8
0
10
0.749722
20
0.026767
0
VERTEX
8
0
10
0.754485
20
0.005784
0
VERTEX
8
0
10
0.758065
20
-0.021600
0
VERTEX
8
0
10
0.760319
20
-0.056020
0
VERTEX
8
0
10
0.761102
20
-0.098110
0
SEQEND
8
0
0
POLYLINE
8
0
66
1
40
0.008000
41
0.008000
0
VERTEX
8
0
10
0.721732
20
0.059370
0
VERTEX
8
0
10
0.713682
20
0.057650
0
VERTEX
8
0
10
0.706238
20
0.052065
0
VERTEX
8
0
10
0.699543
20
0.041982
0
VERTEX
8
0
10
0.693743
20
0.026767
0
VERTEX
8
0
10
0.688980
20
0.005784
0
VERTEX
8
0
10
0.685400
20
-0.021600
0
VERTEX
8
0
10
0.683146
20
-0.056020
0
VERTEX
8
0
10
0.682362
20
-0.098110
0
SEQEND
8
0
0
POLYLINE
8
0
66
1
40
0.008000
41
0.008000
0
VERTEX
8
0
10
0.721732
20
-0.235906
0
VERTEX
8
0
10
0.729782
20
-0.234224
0
VERTEX
8
0
10
0.737227
20
-0.228908
0
VERTEX
8
0
10
0.743921
20
-0.219556
0
VERTEX
8
0
10
0.749722
20
-0.205763
0
VERTEX
8
0
10
0.754485
20
-0.187126
0
VERTEX
8
0
10
0.758065
20
-0.163240
0
VERTEX
8
0
10
0.760319
20
-0.133703
0
VERTEX
8
0
10
0.761102
20
-0.098110
0
SEQEND
8
0
0
POLYLINE
8
0
66
1
40
0.008000
41
0.008000
0
VERTEX
8
0
10
0.721732
20
-0.235906
0
VERTEX
8
0
10
0.713682
20
-0.234224
0
VERTEX
8
0
10
0.706238
20
-0.228908
0
VERTEX
8
0
10
0.699543
20
-0.219556
0
VERTEX
8
0
10
0.693743
20
-0.205763
0
VERTEX
8
0
10
0.688980
20
-0.187126
0
VERTEX
8
0
10
0.685400
20
-0.163240
0
VERTEX
8
0
10
0.683146
20
-0.133703
0
VERTEX
8
0
10
0.682362
20
-0.098110
0
SEQEND
8
0
0
TEXT
8
0
10
0.819102
20
-0.138268
40
0.048000
41
1.041667
50
90.000000
1
C1
0
POLYLINE
8
0
66
1
40
0.008000
41
0.008000
0
VERTEX
8
0
10
-0.472677
20
0.768031
0
VERTEX
8
0
10
-0.464627
20
0.766311
0
VERTEX
8
0
10
-0.457183
20
0.760726
0
VERTEX
8
0
10
-0.450488
20
0.750644
0
VERTEX
8
0
10
-0.444687
20
0.735428
0
VERTEX
8
0
10
-0.439925
20
0.714446
0
VERTEX
8
0
10
-0.436344
20
0.687061
0
VERTEX
8
0
10
-0.434091
20
0.652641
0
VERTEX
8
0
10
-0.433307
20
0.610551
0
SEQEND
8
0
0
POLYLINE
8
0
66
1
40
0.008000
41
0.008000
0
VERTEX
8
0
10
-0.472677
20
0.768031
0
VERTEX
8
0
10
-0.480727
20
0.766311
0
VERTEX
8
0
10
-0.488172
20
0.760726
0
VERTEX
8
0
10
-0.494866
20
0.750644
0
VERTEX
8
0
10
-0.500667
20
0.735428
0
VERTEX
8
0
10
-0.505430
20
0.714446
0
VERTEX
8
0
10
-0.509010
20
0.687061
0
VERTEX
8
0
10
-0.511264
20
0.652641
0
VERTEX
8
0
10
-0.512047
20
0.610551
0
SEQEND
8
0
0
POLYLINE
8
0
66
1
40
0.008000
41
0.008000
0
VERTEX
8
0
10
-0.472677
20
0.472756
0
VERTEX
8
0
10
-0.464627
20
0.474438
0
VERTEX
8
0
10
-0.457183
20
0.479753
0
VERTEX
8
0
10
-0.450488
20
0.489106
0
VERTEX
8
0
10
-0.444687
20
0.502898
0
VERTEX
8
0
10
-0.439925
20
0.521536
0
VERTEX
8
0
10
-0.436344
20
0.545421
0
VERTEX
8
0
10
-0.434091
20
0.574959
0
VERTEX
8
0
10
-0.433307
20
0.610551
0
SEQEND
8
0
0
POLYLINE
8
0
66
1
40
0.008000
41
0.008000
0
VERTEX
8
0
10
-0.472677
20
0.472756
0
VERTEX
8
0
10
-0.480727
20
0.474438
0
VERTEX
8
0
10
-0.488172
20
0.479753
0
VERTEX
8
0
10
-0.494866
20
0.489106
0
VERTEX
8
0
10
-0.500667
20
0.502898
0
VERTEX
8
0
10
-0.505430
20
0.521536
0
VERTEX
8
0
10
-0.509010
20
0.545421
0
VERTEX
8
0
10
-0.511264
20
0.574959
0
VERTEX
8
0
10
-0.512047
20
0.610551
0
SEQEND
8
0
0
TEXT
8
0
10
-0.375307
20
0.570394
40
0.048000
41
1.041667
50
90.000000
1
C2
0
POLYLINE
8
0
66
1
40
0.008000
41
0.008000
0
VERTEX
8
0
10
-0.479055
20
-0.104724
0
VERTEX
8
0
10
-0.480622
20
-0.112774
0
VERTEX
8
0
10
-0.485130
20
-0.120219
0
VERTEX
8
0
10
-0.492291
20
-0.126913
0
VERTEX
8
0
10
-0.501816
20
-0.132714
0
VERTEX
8
0
10
-0.513417
20
-0.137477
0
VERTEX
8
0
10
-0.526807
20
-0.141057
0
VERTEX
8
0
10
-0.541695
20
-0.143311
0
VERTEX
8
0
10
-0.557795
20
-0.144094
0
SEQEND
8
0
0
POLYLINE
8
0
66
1
40
0.008000
41
0.008000
0
VERTEX
8
0
10
-0.636535
20
-0.104724
0
VERTEX
8
0
10
-0.634969
20
-0.096674
0
VERTEX
8
0
10
-0.630461
20
-0.089230
0
VERTEX
8
0
10
-0.623300
20
-0.082535
0
VERTEX
8
0
10
-0.613775
20
-0.076735
0
VERTEX
8
0
10
-0.602173
20
-0.071972
0
VERTEX
8
0
10
-0.588784
20
-0.068392
0
VERTEX
8
0
10
-0.573895
20
-0.066138
0
VERTEX
8
0
10
-0.557795
20
-0.065354
0
SEQEND
8
0
0
POLYLINE
8
0
66
1
40
0.008000
41
0.008000
0
VERTEX
8
0
10
-0.479055
20
-0.104724
0
VERTEX
8
0
10
-0.480622
20
-0.096674
0
VERTEX
8
0
10
-0.485130
20
-0.089230
0
VERTEX
8
0
10
-0.492291
20
-0.082535
0
VERTEX
8
0
10
-0.501816
20
-0.076735
0
VERTEX
8
0
10
-0.513417
20
-0.071972
0
VERTEX
8
0
10
-0.526807
20
-0.068392
0
VERTEX
8
0
10
-0.541695
20
-0.066138
0
VERTEX
8
0
10
-0.557795
20
-0.065354
0
SEQEND
8
0
0
POLYLINE
8
0
66
1
40
0.008000
41
0.008000
0
VERTEX
8
0
10
-0.636535
20
-0.104724
0
VERTEX
8
0
10
-0.634969
20
-0.112774
0
VERTEX
8
0
10
-0.630461
20
-0.120219
0
VERTEX
8
0
10
-0.623300
20
-0.126913
0
VERTEX
8
0
10
-0.613775
20
-0.132714
0
VERTEX
8
0
10
-0.602173
20
-0.137477
0
VERTEX
8
0
10
-0.588784
20
-0.141057
0
VERTEX
8
0
10
-0.573895
20
-0.143311
0
VERTEX
8
0
10
-0.557795
20
-0.144094
0
SEQEND
8
0
0
TEXT
8
0
10
-0.607795
20
-0.202094
40
0.048000
41
1.041667
1
C3
0
POLYLINE
8
0
66
1
40
0.008000
41
0.008000
0
VERTEX
8
0
10
-0.203465
20
-0.098189
0
VERTEX
8
0
10
-0.205031
20
-0.106239
0
VERTEX
8
0
10
-0.209539
20
-0.113683
0
VERTEX
8
0
10
-0.216700
20
-0.120378
0
VERTEX
8
0
10
-0.226225
20
-0.126179
0
VERTEX
8
0
10
-0.237827
20
-0.130941
0
VERTEX
8
0
10
-0.251216
20
-0.134522
0
VERTEX
8
0
10
-0.266105
20
-0.136776
0
VERTEX
8
0
10
-0.282205
20
-0.137559
0
SEQEND
8
0
0
POLYLINE
8
0
66
1
40
0.008000
41
0.008000
0
VERTEX
8
0
10
-0.360945
20
-0.098189
0
VERTEX
8
0
10
-0.359378
20
-0.090139
0
VERTEX
8
0
10
-0.354870
20
-0.082695
0
VERTEX
8
0
10
-0.347709
20
-0.076000
0
VERTEX
8
0
10
-0.338184
20
-0.070199
0
VERTEX
8
0
10
-0.326583
20
-0.065437
0
VERTEX
8
0
10
-0.313193
20
-0.061856
0
VERTEX
8
0
10
-0.298305
20
-0.059602
0
VERTEX
8
0
10
-0.282205
20
-0.058819
0
SEQEND
8
0
0
POLYLINE
8
0
66
1
40
0.008000
41
0.008000
0
VERTEX
8
0
10
-0.203465
20
-0.098189
0
VERTEX
8
0
10
-0.205031
20
-0.090139
0
VERTEX
8
0
10
-0.209539
20
-0.082695
0
VERTEX
8
0
10
-0.216700
20
-0.076000
0
VERTEX
8
0
10
-0.226225
20
-0.070199
0
VERTEX
8
0
10
-0.237827
20
-0.065437
0
VERTEX
8
0
10
-0.251216
20
-0.061856
0
VERTEX
8
0
10
-0.266105
20
-0.059602
0
VERTEX
8
0
10
-0.282205
20
-0.058819
0
SEQEND
8
0
0
POLYLINE
8
0
66
1
40
0.008000
41
0.008000
0
VERTEX
8
0
10
-0.360945
20
-0.098189
0
VERTEX
8
0
10
-0.359378
20
-0.106239
0
VERTEX
8
0
10
-0.354870
20
-0.113683
0
VERTEX
8
0
10
-0.347709
20
-0.120378
0
VERTEX
8
0
10
-0.338184
20
-0.126179
0
VERTEX
8
0
10
-0.326583
20
-0.130941
0
VERTEX
8
0
10
-0.313193
20
-0.134522
0
VERTEX
8
0
10
-0.298305
20
-0.136776
0
VERTEX
8
0
10
-0.282205
20
-0.137559
0
SEQEND
8
0
0
TEXT
8
0
10
-0.332205
20
-0.195559
40
0.048000
41
1.041667
1
C4
0
POLYLINE
8
0
66
1
40
0.008000
41
0.008000
0
VERTEX
8
0
10
-0.994882
20
-0.781496
0
VERTEX
8
0
10
-0.894882
20
-0.781496
0
VERTEX
8
0
10
-0.894882
20
-0.281496
0
VERTEX
8
0
10
-0.994882
20
-0.281496
0
VERTEX
8
0
10
-0.994882
20
-0.781496
0
SEQEND
8
0
0
TEXT
8
0
10
-1.004882
20
-0.706496
40
0.048000
41
1.041667
50
90.000000
1
ENCODER
0
POLYLINE
8
0
66
1
40
0.008000
41
0.008000
0
VERTEX
8
0
10
0.150787
20
-0.671654
0
VERTEX
8
0
10
0.150787
20
-0.621654
0
SEQEND
8
0
0
POLYLINE
8
0
66
1
40
0.008000
41
0.008000
0
VERTEX
8
0
10
0.125787
20
-0.621654
0
VERTEX
8
0
10
0.175787
20
-0.621654
0
VERTEX
8
0
10
0.175787
20
-0.421654
0
VERTEX
8
0
10
0.125787
20
-0.421654
0
VERTEX
8
0
10
0.125787
20
-0.621654
0
SEQEND
8
0
0
POLYLINE
8
0
66
1
40
0.008000
41
0.008000
0
VERTEX
8
0
10
0.150787
20
-0.421654
0
VERTEX
8
0
10
0.150787
20
-0.371654
0
SEQEND
8
0
0
TEXT
8
0
10
0.115787
20
-0.571654
40
0.048000
41
1.041667
50
90.000000
1
R4
0
POLYLINE
8
0
66
1
40
0.008000
41
0.008000
0
VERTEX
8
0
10
0.341102
20
-0.671654
0
VERTEX
8
0
10
0.341102
20
-0.621654
0
SEQEND
8
0
0
POLYLINE
8
0
66
1
40
0.008000
41
0.008000
0
VERTEX
8
0
10
0.316102
20
-0.621654
0
VERTEX
8
0
10
0.366102
20
-0.621654
0
VERTEX
8
0
10
0.366102
20
-0.421654
0
VERTEX
8
0
10
0.316102
20
-0.421654
0
VERTEX
8
0
10
0.316102
20
-0.621654
0
SEQEND
8
0
0
POLYLINE
8
0
66
1
40
0.008000
41
0.008000
0
VERTEX
8
0
10
0.341102
20
-0.421654
0
VERTEX
8
0
10
0.341102
20
-0.371654
0
SEQEND
8
0
0
TEXT
8
0
10
0.306102
20
-0.571654
40
0.048000
41
1.041667
50
90.000000
1
R5
0
POLYLINE
8
0
66
1
40
0.008000
41
0.008000
0
VERTEX
8
0
10
0.531417
20
-0.671654
0
VERTEX
8
0
10
0.531417
20
-0.621654
0
SEQEND
8
0
0
POLYLINE
8
0
66
1
40
0.008000
41
0.008000
0
VERTEX
8
0
10
0.506417
20
-0.621654
0
VERTEX
8
0
10
0.556417
20
-0.621654
0
VERTEX
8
0
10
0.556417
20
-0.421654
0
VERTEX
8
0
10
0.506417
20
-0.421654
0
VERTEX
8
0
10
0.506417
20
-0.621654
0
SEQEND
8
0
0
POLYLINE
8
0
66
1
40
0.008000
41
0.008000
0
VERTEX
8
0
10
0.531417
20
-0.421654
0
VERTEX
8
0
10
0.531417
20
-0.371654
0
SEQEND
8
0
0
TEXT
8
0
10
0.496417
20
-0.571654
40
0.048000
41
1.041667
50
90.000000
1
R6
0
POLYLINE
8
0
66
1
40
0.008000
41
0.008000
0
VERTEX
8
0
10
0.665118
20
0.518661
0
VERTEX
8
0
10
0.668077
20
0.528849
0
VERTEX
8
0
10
0.676602
20
0.538287
0
VERTEX
8
0
10
0.690167
20
0.546787
0
VERTEX
8
0
10
0.708243
20
0.554161
0
VERTEX
8
0
10
0.730304
20
0.560224
0
VERTEX
8
0
10
0.755821
20
0.564787
0
VERTEX
8
0
10
0.784269
20
0.567661
0
VERTEX
8
0
10
0.815118
20
0.568661
0
SEQEND
8
0
0
POLYLINE
8
0
66
1
40
0.008000
41
0.008000
0
VERTEX
8
0
10
0.965118
20
0.518661
0
VERTEX
8
0
10
0.962118
20
0.528849
0
VERTEX
8
0
10
0.953493
20
0.538287
0
VERTEX
8
0
10
0.939806
20
0.546787
0
VERTEX
8
0
10
0.921618
20
0.554161
0
VERTEX
8
0
10
0.899493
20
0.560224
0
VERTEX
8
0
10
0.873993
20
0.564787
0
VERTEX
8
0
10
0.845681
20
0.567661
0
VERTEX
8
0
10
0.815118
20
0.568661
0
SEQEND
8
0
0
POLYLINE
8
0
66
1
40
0.008000
41
0.008000
0
VERTEX
8
0
10
0.965118
20
0.518661
0
VERTEX
8
0
10
0.962118
20
0.508474
0
VERTEX
8
0
10
0.953493
20
0.499036
0
VERTEX
8
0
10
0.939806
20
0.490536
0
VERTEX
8
0
10
0.921618
20
0.483161
0
VERTEX
8
0
10
0.899493
20
0.477099
0
VERTEX
8
0
10
0.873993
20
0.472536
0
VERTEX
8
0
10
0.845681
20
0.469661
0
VERTEX
8
0
10
0.815118
20
0.468661
0
SEQEND
8
0
0
POLYLINE
8
0
66
1
40
0.008000
41
0.008000
0
VERTEX
8
0
10
0.665118
20
0.518661
0
VERTEX
8
0
10
0.668077
20
0.508474
0
VERTEX
8
0
10
0.676602
20
0.499036
0
VERTEX
8
0
10
0.690167
20
0.490536
0
VERTEX
8
0
10
0.708243
20
0.483161
0
VERTEX
8
0
10
0.730304
20
0.477099
0
VERTEX
8
0
10
0.755821
20
0.472536
0
VERTEX
8
0
10
0.784269
20
0.469661
0
VERTEX
8
0
10
0.815118
20
0.468661
0
SEQEND
8
0
0
TEXT
8
0
10
0.765118
20
0.578661
40
0.048000
41
1.041667
1
C7
0
POLYLINE
8
0
66
1
40
0.008000
41
0.008000
0
VERTEX
8
0
10
0.728346
20
-0.671654
0
VERTEX
8
0
10
0.728346
20
-0.621654
0
SEQEND
8
0
0
POLYLINE
8
0
66
1
40
0.008000
41
0.008000
0
VERTEX
8
0
10
0.703346
20
-0.621654
0
VERTEX
8
0
10
0.753346
20
-0.621654
0
VERTEX
8
0
10
0.753346
20
-0.421654
0
VERTEX
8
0
10
0.703346
20
-0.421654
0
VERTEX
8
0
10
0.703346
20
-0.621654
0
SEQEND
8
0
0
POLYLINE
8
0
66
1
40
0.008000
41
0.008000
0
VERTEX
8
0
10
0.728346
20
-0.421654
0
VERTEX
8
0
10
0.728346
20
-0.371654
0
SEQEND
8
0
0
TEXT
8
0
10
0.693346
20
-0.571654
40
0.048000
41
1.041667
50
90.000000
1
R7
0
POLYLINE
8
0
66
1
40
0.008000
41
0.008000
0
VERTEX
8
0
10
-0.363386
20
1.023622
0
VERTEX
8
0
10
-0.313386
20
1.023622
0
SEQEND
8
0
0
POLYLINE
8
0
66
1
40
0.008000
41
0.008000
0
VERTEX
8
0
10
-0.313386
20
0.998622
0
VERTEX
8
0
10
-0.113386
20
0.998622
0
VERTEX
8
0
10
-0.113386
20
1.048622
0
VERTEX
8
0
10
-0.313386
20
1.048622
0
VERTEX
8
0
10
-0.313386
20
0.998622
0
SEQEND
8
0
0
POLYLINE
8
0
66
1
40
0.008000
41
0.008000
0
VERTEX
8
0
10
-0.113386
20
1.023622
0
VERTEX
8
0
10
-0.063386
20
1.023622
0
SEQEND
8
0
0
TEXT
8
0
10
-0.263386
20
1.058622
40
0.048000
41
1.041667
1
R8
0
TEXT
8
0
10
-0.739311
20
-0.988567
40
0.048000
41
0.729167
1
T  S  R  +  -
0
TEXT
8
0
10
-0.070000
20
-0.988567
40
0.048000
41
0.729167
1
-  +
0
TEXT
8
0
10
0.890142
20
-0.234055
40
0.048000
41
0.729167
50
90.000000
1
1  2  3  -
0
TEXT
8
0
10
-0.842142
20
-0.758996
40
0.048000
41
0.729167
50
90.000000
1
A  B  S  +  -
0
TEXT
8
0
10
-0.842142
20
0.317126
40
0.048000
41
0.729167
50
90.000000
1
D  C  +  -
0
TEXT
8
0
10
-0.842142
20
0.008740
40
0.048000
41
0.729167
50
90.000000
1
-  +
0
TEXT
8
0
10
0.361299
20
-0.815339
40
0.048000
41
0.729167
1
-     POT    +
0
TEXT
8
0
10
-0.815413
20
0.798835
40
0.048000
41
0.729167
1
-     +
0
TEXT
8
0
10
0.113720
20
0.940567
40
0.048000
41
0.729167
1
T  +  -
0
TEXT
8
0
10
0.697717
20
0.940567
40
0.048000
41
0.729167
1
+  -
0
ENDSEC
0
EOF

