  0
SECTION
  2
HEADER
  9
$ACADVER
  1
AC1009
  9
$INSUNITS
 70
     1
  0
ENDSEC
  0
SECTION
  2
TABLES
  0
TABLE
  2
LAYER
 70
     8
  0
LAYER
  2
0
 62
     7
 70
0
  6
CONTINUOUS
  0
LAYER
  2
1
 62
     1
 70
0
  6
CONTINUOUS
  0
LAYER
  2
2
 62
     2
 70
0
  6
CONTINUOUS
  0
LAYER
  2
3
 62
     3
 70
0
  6
CONTINUOUS
  0
LAYER
  2
4
 62
     4
 70
0
  6
CONTINUOUS
  0
LAYER
  2
5
 62
     5
 70
0
  6
CONTINUOUS
  0
LAYER
  2
6
 62
     6
 70
0
  6
CONTINUOUS
  0
LAYER
  2
7
 62
     7
 70
0
  6
CONTINUOUS
  0
ENDTAB
  0
TABLE
  2
STYLE
 70
     1
  0
STYLE
 70
     0
  2
STANDARD
  3
TXT
 40
0.00
 41
1.00
 42
1.00
 50
0.00
 71
     0
  0
ENDTAB
  0
ENDSEC
  0
SECTION
  2
BLOCKS
  0
BLOCK
  8
0
  2
EPAD
 70
0
 10
0.0
 20
0.0
  0
POLYLINE
  8
0
 66
1
 70
1
 40
0.5
 41
0.5
  0
VERTEX
  8
0
 10
-0.25
 20
0.0
 42
1.0
  0
VERTEX
  8
0
 10
0.25
 20
0.0
 42
1.0
  0
SEQEND
  8
0
  0
ENDBLK
  8
0
  0
BLOCK
  8
0
  2
RPAD
 70
0
 10
0.0
 20
0.0
  0
TRACE
  8
0
 10
-0.5
 20
-0.5
 11
-0.5
 21
0.5
 12
0.5
 22
-0.5
 13
0.5
 23
0.5
  0
ENDBLK
  8
0
  0
ENDSEC
0
SECTION
2
ENTITIES
0
POLYLINE
8
0
66
1
40
0.008000
41
0.008000
0
VERTEX
8
0
10
-0.600355
20
-0.823661
0
VERTEX
8
0
10
-0.565000
20
-0.859016
0
SEQEND
8
0
0
POLYLINE
8
0
66
1
40
0.008000
41
0.008000
0
VERTEX
8
0
10
-0.600355
20
-0.859016
0
VERTEX
8
0
10
-0.565000
20
-0.823661
0
SEQEND
8
0
0
POLYLINE
8
0
66
1
40
0.008000
41
0.008000
0
VERTEX
8
0
10
-0.825355
20
-0.723661
0
VERTEX
8
0
10
-0.790000
20
-0.759016
0
SEQEND
8
0
0
POLYLINE
8
0
66
1
40
0.008000
41
0.008000
0
VERTEX
8
0
10
-0.825355
20
-0.759016
0
VERTEX
8
0
10
-0.790000
20
-0.723661
0
SEQEND
8
0
0
POLYLINE
8
0
66
1
40
0.008000
41
0.008000
0
VERTEX
8
0
10
-0.825355
20
-0.598661
0
VERTEX
8
0
10
-0.790000
20
-0.634016
0
SEQEND
8
0
0
POLYLINE
8
0
66
1
40
0.008000
41
0.008000
0
VERTEX
8
0
10
-0.825355
20
-0.634016
0
VERTEX
8
0
10
-0.790000
20
-0.598661
0
SEQEND
8
0
0
POLYLINE
8
0
66
1
40
0.008000
41
0.008000
0
VERTEX
8
0
10
-0.375355
20
-0.598661
0
VERTEX
8
0
10
-0.340000
20
-0.634016
0
SEQEND
8
0
0
POLYLINE
8
0
66
1
40
0.008000
41
0.008000
0
VERTEX
8
0
10
-0.375355
20
-0.634016
0
VERTEX
8
0
10
-0.340000
20
-0.598661
0
SEQEND
8
0
0
POLYLINE
8
0
66
1
40
0.008000
41
0.008000
0
VERTEX
8
0
10
-0.400355
20
0.076339
0
VERTEX
8
0
10
-0.365000
20
0.040984
0
SEQEND
8
0
0
POLYLINE
8
0
66
1
40
0.008000
41
0.008000
0
VERTEX
8
0
10
-0.400355
20
0.040984
0
VERTEX
8
0
10
-0.365000
20
0.076339
0
SEQEND
8
0
0
POLYLINE
8
0
66
1
40
0.008000
41
0.008000
0
VERTEX
8
0
10
-0.017678
20
1.151339
0
VERTEX
8
0
10
0.017678
20
1.115984
0
SEQEND
8
0
0
POLYLINE
8
0
66
1
40
0.008000
41
0.008000
0
VERTEX
8
0
10
-0.017678
20
1.115984
0
VERTEX
8
0
10
0.017678
20
1.151339
0
SEQEND
8
0
0
POLYLINE
8
0
66
1
40
0.008000
41
0.008000
0
VERTEX
8
0
10
0.624645
20
0.751339
0
VERTEX
8
0
10
0.660000
20
0.715984
0
SEQEND
8
0
0
POLYLINE
8
0
66
1
40
0.008000
41
0.008000
0
VERTEX
8
0
10
0.624645
20
0.715984
0
VERTEX
8
0
10
0.660000
20
0.751339
0
SEQEND
8
0
0
POLYLINE
8
0
66
1
40
0.008000
41
0.008000
0
VERTEX
8
0
10
0.449645
20
0.357638
0
VERTEX
8
0
10
0.485000
20
0.322283
0
SEQEND
8
0
0
POLYLINE
8
0
66
1
40
0.008000
41
0.008000
0
VERTEX
8
0
10
0.449645
20
0.322283
0
VERTEX
8
0
10
0.485000
20
0.357638
0
SEQEND
8
0
0
POLYLINE
8
0
66
1
40
0.008000
41
0.008000
0
VERTEX
8
0
10
-0.250355
20
0.751339
0
VERTEX
8
0
10
-0.215000
20
0.715984
0
SEQEND
8
0
0
POLYLINE
8
0
66
1
40
0.008000
41
0.008000
0
VERTEX
8
0
10
-0.250355
20
0.715984
0
VERTEX
8
0
10
-0.215000
20
0.751339
0
SEQEND
8
0
0
POLYLINE
8
0
66
1
40
0.008000
41
0.008000
0
VERTEX
8
0
10
-0.125355
20
-0.748661
0
VERTEX
8
0
10
-0.090000
20
-0.784016
0
SEQEND
8
0
0
POLYLINE
8
0
66
1
40
0.008000
41
0.008000
0
VERTEX
8
0
10
-0.125355
20
-0.784016
0
VERTEX
8
0
10
-0.090000
20
-0.748661
0
SEQEND
8
0
0
POLYLINE
8
0
66
1
40
0.008000
41
0.008000
0
VERTEX
8
0
10
-0.425355
20
-0.823661
0
VERTEX
8
0
10
-0.390000
20
-0.859016
0
SEQEND
8
0
0
POLYLINE
8
0
66
1
40
0.008000
41
0.008000
0
VERTEX
8
0
10
-0.425355
20
-0.859016
0
VERTEX
8
0
10
-0.390000
20
-0.823661
0
SEQEND
8
0
0
POLYLINE
8
0
66
1
40
0.008000
41
0.008000
0
VERTEX
8
0
10
-0.100355
20
1.076339
0
VERTEX
8
0
10
-0.065000
20
1.040984
0
SEQEND
8
0
0
POLYLINE
8
0
66
1
40
0.008000
41
0.008000
0
VERTEX
8
0
10
-0.100355
20
1.040984
0
VERTEX
8
0
10
-0.065000
20
1.076339
0
SEQEND
8
0
0
POLYLINE
8
0
66
1
40
0.008000
41
0.008000
0
VERTEX
8
0
10
-0.450355
20
-0.348661
0
VERTEX
8
0
10
-0.415000
20
-0.384016
0
SEQEND
8
0
0
POLYLINE
8
0
66
1
40
0.008000
41
0.008000
0
VERTEX
8
0
10
-0.450355
20
-0.384016
0
VERTEX
8
0
10
-0.415000
20
-0.348661
0
SEQEND
8
0
0
POLYLINE
8
0
66
1
40
0.008000
41
0.008000
0
VERTEX
8
0
10
-0.100355
20
0.626339
0
VERTEX
8
0
10
-0.065000
20
0.590984
0
SEQEND
8
0
0
POLYLINE
8
0
66
1
40
0.008000
41
0.008000
0
VERTEX
8
0
10
-0.100355
20
0.590984
0
VERTEX
8
0
10
-0.065000
20
0.626339
0
SEQEND
8
0
0
POLYLINE
8
0
66
1
40
0.008000
41
0.008000
0
VERTEX
8
0
10
0.349645
20
0.101733
0
VERTEX
8
0
10
0.385000
20
0.066378
0
SEQEND
8
0
0
POLYLINE
8
0
66
1
40
0.008000
41
0.008000
0
VERTEX
8
0
10
0.349645
20
0.066378
0
VERTEX
8
0
10
0.385000
20
0.101733
0
SEQEND
8
0
0
POLYLINE
8
0
66
1
40
0.008000
41
0.008000
0
VERTEX
8
0
10
0.149645
20
0.001339
0
VERTEX
8
0
10
0.185000
20
-0.034016
0
SEQEND
8
0
0
POLYLINE
8
0
66
1
40
0.008000
41
0.008000
0
VERTEX
8
0
10
0.149645
20
-0.034016
0
VERTEX
8
0
10
0.185000
20
0.001339
0
SEQEND
8
0
0
POLYLINE
8
0
66
1
40
0.008000
41
0.008000
0
VERTEX
8
0
10
0.149645
20
0.301339
0
VERTEX
8
0
10
0.185000
20
0.265984
0
SEQEND
8
0
0
POLYLINE
8
0
66
1
40
0.008000
41
0.008000
0
VERTEX
8
0
10
0.149645
20
0.265984
0
VERTEX
8
0
10
0.185000
20
0.301339
0
SEQEND
8
0
0
POLYLINE
8
0
66
1
40
0.008000
41
0.008000
0
VERTEX
8
0
10
0.249645
20
0.251339
0
VERTEX
8
0
10
0.285000
20
0.215984
0
SEQEND
8
0
0
POLYLINE
8
0
66
1
40
0.008000
41
0.008000
0
VERTEX
8
0
10
0.249645
20
0.215984
0
VERTEX
8
0
10
0.285000
20
0.251339
0
SEQEND
8
0
0
POLYLINE
8
0
66
1
40
0.008000
41
0.008000
0
VERTEX
8
0
10
0.399645
20
0.301339
0
VERTEX
8
0
10
0.435000
20
0.265984
0
SEQEND
8
0
0
POLYLINE
8
0
66
1
40
0.008000
41
0.008000
0
VERTEX
8
0
10
0.399645
20
0.265984
0
VERTEX
8
0
10
0.435000
20
0.301339
0
SEQEND
8
0
0
POLYLINE
8
0
66
1
40
0.008000
41
0.008000
0
VERTEX
8
0
10
0.499645
20
0.301339
0
VERTEX
8
0
10
0.535000
20
0.265984
0
SEQEND
8
0
0
POLYLINE
8
0
66
1
40
0.008000
41
0.008000
0
VERTEX
8
0
10
0.499645
20
0.265984
0
VERTEX
8
0
10
0.535000
20
0.301339
0
SEQEND
8
0
0
POLYLINE
8
0
66
1
40
0.008000
41
0.008000
0
VERTEX
8
0
10
0.949645
20
0.201339
0
VERTEX
8
0
10
0.985000
20
0.165984
0
SEQEND
8
0
0
POLYLINE
8
0
66
1
40
0.008000
41
0.008000
0
VERTEX
8
0
10
0.949645
20
0.165984
0
VERTEX
8
0
10
0.985000
20
0.201339
0
SEQEND
8
0
0
POLYLINE
8
0
66
1
40
0.008000
41
0.008000
0
VERTEX
8
0
10
0.249645
20
0.551339
0
VERTEX
8
0
10
0.285000
20
0.515984
0
SEQEND
8
0
0
POLYLINE
8
0
66
1
40
0.008000
41
0.008000
0
VERTEX
8
0
10
0.249645
20
0.515984
0
VERTEX
8
0
10
0.285000
20
0.551339
0
SEQEND
8
0
0
CIRCLE
8
0
10
0.039370
20
-1.018307
40
0.025000
0
POLYLINE
8
0
66
1
40
0.008000
41
0.008000
0
VERTEX
8
0
10
0.039370
20
-0.993307
0
VERTEX
8
0
10
0.039370
20
-1.043307
0
SEQEND
8
0
0
POLYLINE
8
0
66
1
40
0.008000
41
0.008000
0
VERTEX
8
0
10
0.014370
20
-1.018307
0
VERTEX
8
0
10
0.064370
20
-1.018307
0
SEQEND
8
0
0
CIRCLE
8
0
10
-0.060630
20
-1.018307
40
0.025000
0
POLYLINE
8
0
66
1
40
0.008000
41
0.008000
0
VERTEX
8
0
10
-0.060630
20
-0.993307
0
VERTEX
8
0
10
-0.060630
20
-1.043307
0
SEQEND
8
0
0
POLYLINE
8
0
66
1
40
0.008000
41
0.008000
0
VERTEX
8
0
10
-0.085630
20
-1.018307
0
VERTEX
8
0
10
-0.035630
20
-1.018307
0
SEQEND
8
0
0
CIRCLE
8
0
10
-0.314961
20
-1.018307
40
0.025000
0
POLYLINE
8
0
66
1
40
0.008000
41
0.008000
0
VERTEX
8
0
10
-0.314961
20
-0.993307
0
VERTEX
8
0
10
-0.314961
20
-1.043307
0
SEQEND
8
0
0
POLYLINE
8
0
66
1
40
0.008000
41
0.008000
0
VERTEX
8
0
10
-0.339961
20
-1.018307
0
VERTEX
8
0
10
-0.289961
20
-1.018307
0
SEQEND
8
0
0
CIRCLE
8
0
10
-0.414961
20
-1.018307
40
0.025000
0
POLYLINE
8
0
66
1
40
0.008000
41
0.008000
0
VERTEX
8
0
10
-0.414961
20
-0.993307
0
VERTEX
8
0
10
-0.414961
20
-1.043307
0
SEQEND
8
0
0
POLYLINE
8
0
66
1
40
0.008000
41
0.008000
0
VERTEX
8
0
10
-0.439961
20
-1.018307
0
VERTEX
8
0
10
-0.389961
20
-1.018307
0
SEQEND
8
0
0
CIRCLE
8
0
10
-0.514961
20
-1.018307
40
0.025000
0
POLYLINE
8
0
66
1
40
0.008000
41
0.008000
0
VERTEX
8
0
10
-0.514961
20
-0.993307
0
VERTEX
8
0
10
-0.514961
20
-1.043307
0
SEQEND
8
0
0
POLYLINE
8
0
66
1
40
0.008000
41
0.008000
0
VERTEX
8
0
10
-0.539961
20
-1.018307
0
VERTEX
8
0
10
-0.489961
20
-1.018307
0
SEQEND
8
0
0
CIRCLE
8
0
10
-0.614961
20
-1.018307
40
0.025000
0
POLYLINE
8
0
66
1
40
0.008000
41
0.008000
0
VERTEX
8
0
10
-0.614961
20
-0.993307
0
VERTEX
8
0
10
-0.614961
20
-1.043307
0
SEQEND
8
0
0
POLYLINE
8
0
66
1
40
0.008000
41
0.008000
0
VERTEX
8
0
10
-0.639961
20
-1.018307
0
VERTEX
8
0
10
-0.589961
20
-1.018307
0
SEQEND
8
0
0
CIRCLE
8
0
10
-0.714961
20
-1.018307
40
0.025000
0
POLYLINE
8
0
66
1
40
0.008000
41
0.008000
0
VERTEX
8
0
10
-0.714961
20
-0.993307
0
VERTEX
8
0
10
-0.714961
20
-1.043307
0
SEQEND
8
0
0
POLYLINE
8
0
66
1
40
0.008000
41
0.008000
0
VERTEX
8
0
10
-0.739961
20
-1.018307
0
VERTEX
8
0
10
-0.689961
20
-1.018307
0
SEQEND
8
0
0
CIRCLE
8
0
10
0.807087
20
-0.939567
40
0.025000
0
POLYLINE
8
0
66
1
40
0.008000
41
0.008000
0
VERTEX
8
0
10
0.789409
20
-0.921889
0
VERTEX
8
0
10
0.824764
20
-0.957244
0
SEQEND
8
0
0
POLYLINE
8
0
66
1
40
0.008000
41
0.008000
0
VERTEX
8
0
10
0.789409
20
-0.957244
0
VERTEX
8
0
10
0.824764
20
-0.921889
0
SEQEND
8
0
0
CIRCLE
8
0
10
0.610087
20
-0.939567
40
0.025000
0
POLYLINE
8
0
66
1
40
0.008000
41
0.008000
0
VERTEX
8
0
10
0.592409
20
-0.921889
0
VERTEX
8
0
10
0.627764
20
-0.957244
0
SEQEND
8
0
0
POLYLINE
8
0
66
1
40
0.008000
41
0.008000
0
VERTEX
8
0
10
0.592409
20
-0.957244
0
VERTEX
8
0
10
0.627764
20
-0.921889
0
SEQEND
8
0
0
CIRCLE
8
0
10
0.413087
20
-0.939567
40
0.025000
0
POLYLINE
8
0
66
1
40
0.008000
41
0.008000
0
VERTEX
8
0
10
0.395409
20
-0.921889
0
VERTEX
8
0
10
0.430764
20
-0.957244
0
SEQEND
8
0
0
POLYLINE
8
0
66
1
40
0.008000
41
0.008000
0
VERTEX
8
0
10
0.395409
20
-0.957244
0
VERTEX
8
0
10
0.430764
20
-0.921889
0
SEQEND
8
0
0
POLYLINE
8
0
66
1
40
0.008000
41
0.008000
0
VERTEX
8
0
10
1.003937
20
0.935827
0
VERTEX
8
0
10
1.003937
20
0.885827
0
SEQEND
8
0
0
POLYLINE
8
0
66
1
40
0.008000
41
0.008000
0
VERTEX
8
0
10
0.978937
20
0.910827
0
VERTEX
8
0
10
1.028937
20
0.910827
0
SEQEND
8
0
0
POLYLINE
8
0
66
1
40
0.008000
41
0.008000
0
VERTEX
8
0
10
-1.003937
20
0.935827
0
VERTEX
8
0
10
-1.003937
20
0.885827
0
SEQEND
8
0
0
POLYLINE
8
0
66
1
40
0.008000
41
0.008000
0
VERTEX
8
0
10
-1.028937
20
0.910827
0
VERTEX
8
0
10
-0.978937
20
0.910827
0
SEQEND
8
0
0
POLYLINE
8
0
66
1
40
0.008000
41
0.008000
0
VERTEX
8
0
10
-1.003937
20
-1.032677
0
VERTEX
8
0
10
-1.003937
20
-1.082677
0
SEQEND
8
0
0
POLYLINE
8
0
66
1
40
0.008000
41
0.008000
0
VERTEX
8
0
10
-1.028937
20
-1.057677
0
VERTEX
8
0
10
-0.978937
20
-1.057677
0
SEQEND
8
0
0
POLYLINE
8
0
66
1
40
0.008000
41
0.008000
0
VERTEX
8
0
10
1.003937
20
-1.032677
0
VERTEX
8
0
10
1.003937
20
-1.082677
0
SEQEND
8
0
0
POLYLINE
8
0
66
1
40
0.008000
41
0.008000
0
VERTEX
8
0
10
0.978937
20
-1.057677
0
VERTEX
8
0
10
1.028937
20
-1.057677
0
SEQEND
8
0
0
CIRCLE
8
0
10
-0.787402
20
0.969882
40
0.025000
0
POLYLINE
8
0
66
1
40
0.008000
41
0.008000
0
VERTEX
8
0
10
-0.805079
20
0.987559
0
VERTEX
8
0
10
-0.769724
20
0.952204
0
SEQEND
8
0
0
POLYLINE
8
0
66
1
40
0.008000
41
0.008000
0
VERTEX
8
0
10
-0.805079
20
0.952204
0
VERTEX
8
0
10
-0.769724
20
0.987559
0
SEQEND
8
0
0
CIRCLE
8
0
10
-0.590402
20
0.969882
40
0.025000
0
POLYLINE
8
0
66
1
40
0.008000
41
0.008000
0
VERTEX
8
0
10
-0.608079
20
0.987559
0
VERTEX
8
0
10
-0.572724
20
0.952204
0
SEQEND
8
0
0
POLYLINE
8
0
66
1
40
0.008000
41
0.008000
0
VERTEX
8
0
10
-0.608079
20
0.952204
0
VERTEX
8
0
10
-0.572724
20
0.987559
0
SEQEND
8
0
0
CIRCLE
8
0
10
0.707087
20
1.068307
40
0.025000
0
POLYLINE
8
0
66
1
40
0.008000
41
0.008000
0
VERTEX
8
0
10
0.707087
20
1.093307
0
VERTEX
8
0
10
0.707087
20
1.043307
0
SEQEND
8
0
0
POLYLINE
8
0
66
1
40
0.008000
41
0.008000
0
VERTEX
8
0
10
0.682087
20
1.068307
0
VERTEX
8
0
10
0.732087
20
1.068307
0
SEQEND
8
0
0
CIRCLE
8
0
10
0.807087
20
1.068307
40
0.025000
0
POLYLINE
8
0
66
1
40
0.008000
41
0.008000
0
VERTEX
8
0
10
0.807087
20
1.093307
0
VERTEX
8
0
10
0.807087
20
1.043307
0
SEQEND
8
0
0
POLYLINE
8
0
66
1
40
0.008000
41
0.008000
0
VERTEX
8
0
10
0.782087
20
1.068307
0
VERTEX
8
0
10
0.832087
20
1.068307
0
SEQEND
8
0
0
CIRCLE
8
0
10
0.118110
20
1.068307
40
0.025000
0
POLYLINE
8
0
66
1
40
0.008000
41
0.008000
0
VERTEX
8
0
10
0.118110
20
1.093307
0
VERTEX
8
0
10
0.118110
20
1.043307
0
SEQEND
8
0
0
POLYLINE
8
0
66
1
40
0.008000
41
0.008000
0
VERTEX
8
0
10
0.093110
20
1.068307
0
VERTEX
8
0
10
0.143110
20
1.068307
0
SEQEND
8
0
0
CIRCLE
8
0
10
0.218110
20
1.068307
40
0.025000
0
POLYLINE
8
0
66
1
40
0.008000
41
0.008000
0
VERTEX
8
0
10
0.218110
20
1.093307
0
VERTEX
8
0
10
0.218110
20
1.043307
0
SEQEND
8
0
0
POLYLINE
8
0
66
1
40
0.008000
41
0.008000
0
VERTEX
8
0
10
0.193110
20
1.068307
0
VERTEX
8
0
10
0.243110
20
1.068307
0
SEQEND
8
0
0
CIRCLE
8
0
10
0.318110
20
1.068307
40
0.025000
0
POLYLINE
8
0
66
1
40
0.008000
41
0.008000
0
VERTEX
8
0
10
0.318110
20
1.093307
0
VERTEX
8
0
10
0.318110
20
1.043307
0
SEQEND
8
0
0
POLYLINE
8
0
66
1
40
0.008000
41
0.008000
0
VERTEX
8
0
10
0.293110
20
1.068307
0
VERTEX
8
0
10
0.343110
20
1.068307
0
SEQEND
8
0
0
CIRCLE
8
0
10
-0.944882
20
0.359646
40
0.025000
0
POLYLINE
8
0
66
1
40
0.008000
41
0.008000
0
VERTEX
8
0
10
-0.944882
20
0.384646
0
VERTEX
8
0
10
-0.944882
20
0.334646
0
SEQEND
8
0
0
POLYLINE
8
0
66
1
40
0.008000
41
0.008000
0
VERTEX
8
0
10
-0.969882
20
0.359646
0
VERTEX
8
0
10
-0.919882
20
0.359646
0
SEQEND
8
0
0
CIRCLE
8
0
10
-0.944882
20
0.459646
40
0.025000
0
POLYLINE
8
0
66
1
40
0.008000
41
0.008000
0
VERTEX
8
0
10
-0.944882
20
0.484646
0
VERTEX
8
0
10
-0.944882
20
0.434646
0
SEQEND
8
0
0
POLYLINE
8
0
66
1
40
0.008000
41
0.008000
0
VERTEX
8
0
10
-0.969882
20
0.459646
0
VERTEX
8
0
10
-0.919882
20
0.459646
0
SEQEND
8
0
0
CIRCLE
8
0
10
-0.944882
20
0.559646
40
0.025000
0
POLYLINE
8
0
66
1
40
0.008000
41
0.008000
0
VERTEX
8
0
10
-0.944882
20
0.584646
0
VERTEX
8
0
10
-0.944882
20
0.534646
0
SEQEND
8
0
0
POLYLINE
8
0
66
1
40
0.008000
41
0.008000
0
VERTEX
8
0
10
-0.969882
20
0.559646
0
VERTEX
8
0
10
-0.919882
20
0.559646
0
SEQEND
8
0
0
CIRCLE
8
0
10
-0.944882
20
0.659646
40
0.025000
0
POLYLINE
8
0
66
1
40
0.008000
41
0.008000
0
VERTEX
8
0
10
-0.944882
20
0.684646
0
VERTEX
8
0
10
-0.944882
20
0.634646
0
SEQEND
8
0
0
POLYLINE
8
0
66
1
40
0.008000
41
0.008000
0
VERTEX
8
0
10
-0.969882
20
0.659646
0
VERTEX
8
0
10
-0.919882
20
0.659646
0
SEQEND
8
0
0
CIRCLE
8
0
10
0.944882
20
0.088780
40
0.025000
0
POLYLINE
8
0
66
1
40
0.008000
41
0.008000
0
VERTEX
8
0
10
0.944882
20
0.113780
0
VERTEX
8
0
10
0.944882
20
0.063780
0
SEQEND
8
0
0
POLYLINE
8
0
66
1
40
0.008000
41
0.008000
0
VERTEX
8
0
10
0.919882
20
0.088780
0
VERTEX
8
0
10
0.969882
20
0.088780
0
SEQEND
8
0
0
CIRCLE
8
0
10
0.944882
20
-0.011220
40
0.025000
0
POLYLINE
8
0
66
1
40
0.008000
41
0.008000
0
VERTEX
8
0
10
0.944882
20
0.013780
0
VERTEX
8
0
10
0.944882
20
-0.036220
0
SEQEND
8
0
0
POLYLINE
8
0
66
1
40
0.008000
41
0.008000
0
VERTEX
8
0
10
0.919882
20
-0.011220
0
VERTEX
8
0
10
0.969882
20
-0.011220
0
SEQEND
8
0
0
CIRCLE
8
0
10
0.944882
20
-0.111220
40
0.025000
0
POLYLINE
8
0
66
1
40
0.008000
41
0.008000
0
VERTEX
8
0
10
0.944882
20
-0.086220
0
VERTEX
8
0
10
0.944882
20
-0.136220
0
SEQEND
8
0
0
POLYLINE
8
0
66
1
40
0.008000
41
0.008000
0
VERTEX
8
0
10
0.919882
20
-0.111220
0
VERTEX
8
0
10
0.969882
20
-0.111220
0
SEQEND
8
0
0
CIRCLE
8
0
10
0.944882
20
-0.211220
40
0.025000
0
POLYLINE
8
0
66
1
40
0.008000
41
0.008000
0
VERTEX
8
0
10
0.944882
20
-0.186220
0
VERTEX
8
0
10
0.944882
20
-0.236220
0
SEQEND
8
0
0
POLYLINE
8
0
66
1
40
0.008000
41
0.008000
0
VERTEX
8
0
10
0.919882
20
-0.211220
0
VERTEX
8
0
10
0.969882
20
-0.211220
0
SEQEND
8
0
0
CIRCLE
8
0
10
-0.944882
20
0.044685
40
0.025000
0
POLYLINE
8
0
66
1
40
0.008000
41
0.008000
0
VERTEX
8
0
10
-0.944882
20
0.069685
0
VERTEX
8
0
10
-0.944882
20
0.019685
0
SEQEND
8
0
0
POLYLINE
8
0
66
1
40
0.008000
41
0.008000
0
VERTEX
8
0
10
-0.969882
20
0.044685
0
VERTEX
8
0
10
-0.919882
20
0.044685
0
SEQEND
8
0
0
CIRCLE
8
0
10
-0.944882
20
0.144685
40
0.025000
0
POLYLINE
8
0
66
1
40
0.008000
41
0.008000
0
VERTEX
8
0
10
-0.944882
20
0.169685
0
VERTEX
8
0
10
-0.944882
20
0.119685
0
SEQEND
8
0
0
POLYLINE
8
0
66
1
40
0.008000
41
0.008000
0
VERTEX
8
0
10
-0.969882
20
0.144685
0
VERTEX
8
0
10
-0.919882
20
0.144685
0
SEQEND
8
0
0
CIRCLE
8
0
10
0.925197
20
-0.386811
40
0.025000
0
POLYLINE
8
0
66
1
40
0.008000
41
0.008000
0
VERTEX
8
0
10
0.925197
20
-0.361811
0
VERTEX
8
0
10
0.925197
20
-0.411811
0
SEQEND
8
0
0
POLYLINE
8
0
66
1
40
0.008000
41
0.008000
0
VERTEX
8
0
10
0.900197
20
-0.386811
0
VERTEX
8
0
10
0.950197
20
-0.386811
0
SEQEND
8
0
0
CIRCLE
8
0
10
0.925197
20
-0.486811
40
0.025000
0
POLYLINE
8
0
66
1
40
0.008000
41
0.008000
0
VERTEX
8
0
10
0.925197
20
-0.461811
0
VERTEX
8
0
10
0.925197
20
-0.511811
0
SEQEND
8
0
0
POLYLINE
8
0
66
1
40
0.008000
41
0.008000
0
VERTEX
8
0
10
0.900197
20
-0.486811
0
VERTEX
8
0
10
0.950197
20
-0.486811
0
SEQEND
8
0
0
CIRCLE
8
0
10
0.925197
20
-0.586811
40
0.025000
0
POLYLINE
8
0
66
1
40
0.008000
41
0.008000
0
VERTEX
8
0
10
0.925197
20
-0.561811
0
VERTEX
8
0
10
0.925197
20
-0.611811
0
SEQEND
8
0
0
POLYLINE
8
0
66
1
40
0.008000
41
0.008000
0
VERTEX
8
0
10
0.900197
20
-0.586811
0
VERTEX
8
0
10
0.950197
20
-0.586811
0
SEQEND
8
0
0
POLYLINE
8
0
66
1
40
0.008000
41
0.008000
0
VERTEX
8
0
10
-0.682677
20
0.148661
0
VERTEX
8
0
10
-0.682677
20
0.098661
0
SEQEND
8
0
0
POLYLINE
8
0
66
1
40
0.008000
41
0.008000
0
VERTEX
8
0
10
-0.707677
20
0.123661
0
VERTEX
8
0
10
-0.657677
20
0.123661
0
SEQEND
8
0
0
POLYLINE
8
0
66
1
40
0.008000
41
0.008000
0
VERTEX
8
0
10
-0.700355
20
0.141339
0
VERTEX
8
0
10
-0.665000
20
0.105984
0
SEQEND
8
0
0
POLYLINE
8
0
66
1
40
0.008000
41
0.008000
0
VERTEX
8
0
10
-0.700355
20
0.105984
0
VERTEX
8
0
10
-0.665000
20
0.141339
0
SEQEND
8
0
0
POLYLINE
8
0
66
1
40
0.008000
41
0.008000
0
VERTEX
8
0
10
-0.582677
20
0.148661
0
VERTEX
8
0
10
-0.582677
20
0.098661
0
SEQEND
8
0
0
POLYLINE
8
0
66
1
40
0.008000
41
0.008000
0
VERTEX
8
0
10
-0.607677
20
0.123661
0
VERTEX
8
0
10
-0.557677
20
0.123661
0
SEQEND
8
0
0
POLYLINE
8
0
66
1
40
0.008000
41
0.008000
0
VERTEX
8
0
10
-0.600355
20
0.141339
0
VERTEX
8
0
10
-0.565000
20
0.105984
0
SEQEND
8
0
0
POLYLINE
8
0
66
1
40
0.008000
41
0.008000
0
VERTEX
8
0
10
-0.600355
20
0.105984
0
VERTEX
8
0
10
-0.565000
20
0.141339
0
SEQEND
8
0
0
POLYLINE
8
0
66
1
40
0.008000
41
0.008000
0
VERTEX
8
0
10
-0.482677
20
0.148661
0
VERTEX
8
0
10
-0.482677
20
0.098661
0
SEQEND
8
0
0
POLYLINE
8
0
66
1
40
0.008000
41
0.008000
0
VERTEX
8
0
10
-0.507677
20
0.123661
0
VERTEX
8
0
10
-0.457677
20
0.123661
0
SEQEND
8
0
0
POLYLINE
8
0
66
1
40
0.008000
41
0.008000
0
VERTEX
8
0
10
-0.500355
20
0.141339
0
VERTEX
8
0
10
-0.465000
20
0.105984
0
SEQEND
8
0
0
POLYLINE
8
0
66
1
40
0.008000
41
0.008000
0
VERTEX
8
0
10
-0.500355
20
0.105984
0
VERTEX
8
0
10
-0.465000
20
0.141339
0
SEQEND
8
0
0
POLYLINE
8
0
66
1
40
0.008000
41
0.008000
0
VERTEX
8
0
10
-0.382677
20
0.148661
0
VERTEX
8
0
10
-0.382677
20
0.098661
0
SEQEND
8
0
0
POLYLINE
8
0
66
1
40
0.008000
41
0.008000
0
VERTEX
8
0
10
-0.407677
20
0.123661
0
VERTEX
8
0
10
-0.357677
20
0.123661
0
SEQEND
8
0
0
POLYLINE
8
0
66
1
40
0.008000
41
0.008000
0
VERTEX
8
0
10
-0.400355
20
0.141339
0
VERTEX
8
0
10
-0.365000
20
0.105984
0
SEQEND
8
0
0
POLYLINE
8
0
66
1
40
0.008000
41
0.008000
0
VERTEX
8
0
10
-0.400355
20
0.105984
0
VERTEX
8
0
10
-0.365000
20
0.141339
0
SEQEND
8
0
0
POLYLINE
8
0
66
1
40
0.008000
41
0.008000
0
VERTEX
8
0
10
-0.282677
20
0.148661
0
VERTEX
8
0
10
-0.282677
20
0.098661
0
SEQEND
8
0
0
POLYLINE
8
0
66
1
40
0.008000
41
0.008000
0
VERTEX
8
0
10
-0.307677
20
0.123661
0
VERTEX
8
0
10
-0.257677
20
0.123661
0
SEQEND
8
0
0
POLYLINE
8
0
66
1
40
0.008000
41
0.008000
0
VERTEX
8
0
10
-0.300355
20
0.141339
0
VERTEX
8
0
10
-0.265000
20
0.105984
0
SEQEND
8
0
0
POLYLINE
8
0
66
1
40
0.008000
41
0.008000
0
VERTEX
8
0
10
-0.300355
20
0.105984
0
VERTEX
8
0
10
-0.265000
20
0.141339
0
SEQEND
8
0
0
POLYLINE
8
0
66
1
40
0.008000
41
0.008000
0
VERTEX
8
0
10
-0.182677
20
0.148661
0
VERTEX
8
0
10
-0.182677
20
0.098661
0
SEQEND
8
0
0
POLYLINE
8
0
66
1
40
0.008000
41
0.008000
0
VERTEX
8
0
10
-0.207677
20
0.123661
0
VERTEX
8
0
10
-0.157677
20
0.123661
0
SEQEND
8
0
0
POLYLINE
8
0
66
1
40
0.008000
41
0.008000
0
VERTEX
8
0
10
-0.200355
20
0.141339
0
VERTEX
8
0
10
-0.165000
20
0.105984
0
SEQEND
8
0
0
POLYLINE
8
0
66
1
40
0.008000
41
0.008000
0
VERTEX
8
0
10
-0.200355
20
0.105984
0
VERTEX
8
0
10
-0.165000
20
0.141339
0
SEQEND
8
0
0
POLYLINE
8
0
66
1
40
0.008000
41
0.008000
0
VERTEX
8
0
10
-0.082677
20
0.148661
0
VERTEX
8
0
10
-0.082677
20
0.098661
0
SEQEND
8
0
0
POLYLINE
8
0
66
1
40
0.008000
41
0.008000
0
VERTEX
8
0
10
-0.107677
20
0.123661
0
VERTEX
8
0
10
-0.057677
20
0.123661
0
SEQEND
8
0
0
POLYLINE
8
0
66
1
40
0.008000
41
0.008000
0
VERTEX
8
0
10
-0.100355
20
0.141339
0
VERTEX
8
0
10
-0.065000
20
0.105984
0
SEQEND
8
0
0
POLYLINE
8
0
66
1
40
0.008000
41
0.008000
0
VERTEX
8
0
10
-0.100355
20
0.105984
0
VERTEX
8
0
10
-0.065000
20
0.141339
0
SEQEND
8
0
0
POLYLINE
8
0
66
1
40
0.008000
41
0.008000
0
VERTEX
8
0
10
0.017323
20
0.148661
0
VERTEX
8
0
10
0.017323
20
0.098661
0
SEQEND
8
0
0
POLYLINE
8
0
66
1
40
0.008000
41
0.008000
0
VERTEX
8
0
10
-0.007677
20
0.123661
0
VERTEX
8
0
10
0.042323
20
0.123661
0
SEQEND
8
0
0
POLYLINE
8
0
66
1
40
0.008000
41
0.008000
0
VERTEX
8
0
10
-0.000355
20
0.141339
0
VERTEX
8
0
10
0.035000
20
0.105984
0
SEQEND
8
0
0
POLYLINE
8
0
66
1
40
0.008000
41
0.008000
0
VERTEX
8
0
10
-0.000355
20
0.105984
0
VERTEX
8
0
10
0.035000
20
0.141339
0
SEQEND
8
0
0
POLYLINE
8
0
66
1
40
0.008000
41
0.008000
0
VERTEX
8
0
10
0.117323
20
0.148661
0
VERTEX
8
0
10
0.117323
20
0.098661
0
SEQEND
8
0
0
POLYLINE
8
0
66
1
40
0.008000
41
0.008000
0
VERTEX
8
0
10
0.092323
20
0.123661
0
VERTEX
8
0
10
0.142323
20
0.123661
0
SEQEND
8
0
0
POLYLINE
8
0
66
1
40
0.008000
41
0.008000
0
VERTEX
8
0
10
0.099645
20
0.141339
0
VERTEX
8
0
10
0.135000
20
0.105984
0
SEQEND
8
0
0
POLYLINE
8
0
66
1
40
0.008000
41
0.008000
0
VERTEX
8
0
10
0.099645
20
0.105984
0
VERTEX
8
0
10
0.135000
20
0.141339
0
SEQEND
8
0
0
POLYLINE
8
0
66
1
40
0.008000
41
0.008000
0
VERTEX
8
0
10
0.217323
20
0.148661
0
VERTEX
8
0
10
0.217323
20
0.098661
0
SEQEND
8
0
0
POLYLINE
8
0
66
1
40
0.008000
41
0.008000
0
VERTEX
8
0
10
0.192323
20
0.123661
0
VERTEX
8
0
10
0.242323
20
0.123661
0
SEQEND
8
0
0
POLYLINE
8
0
66
1
40
0.008000
41
0.008000
0
VERTEX
8
0
10
0.199645
20
0.141339
0
VERTEX
8
0
10
0.235000
20
0.105984
0
SEQEND
8
0
0
POLYLINE
8
0
66
1
40
0.008000
41
0.008000
0
VERTEX
8
0
10
0.199645
20
0.105984
0
VERTEX
8
0
10
0.235000
20
0.141339
0
SEQEND
8
0
0
POLYLINE
8
0
66
1
40
0.008000
41
0.008000
0
VERTEX
8
0
10
0.317323
20
0.148661
0
VERTEX
8
0
10
0.317323
20
0.098661
0
SEQEND
8
0
0
POLYLINE
8
0
66
1
40
0.008000
41
0.008000
0
VERTEX
8
0
10
0.292323
20
0.123661
0
VERTEX
8
0
10
0.342323
20
0.123661
0
SEQEND
8
0
0
POLYLINE
8
0
66
1
40
0.008000
41
0.008000
0
VERTEX
8
0
10
0.299645
20
0.141339
0
VERTEX
8
0
10
0.335000
20
0.105984
0
SEQEND
8
0
0
POLYLINE
8
0
66
1
40
0.008000
41
0.008000
0
VERTEX
8
0
10
0.299645
20
0.105984
0
VERTEX
8
0
10
0.335000
20
0.141339
0
SEQEND
8
0
0
POLYLINE
8
0
66
1
40
0.008000
41
0.008000
0
VERTEX
8
0
10
0.417323
20
0.148661
0
VERTEX
8
0
10
0.417323
20
0.098661
0
SEQEND
8
0
0
POLYLINE
8
0
66
1
40
0.008000
41
0.008000
0
VERTEX
8
0
10
0.392323
20
0.123661
0
VERTEX
8
0
10
0.442323
20
0.123661
0
SEQEND
8
0
0
POLYLINE
8
0
66
1
40
0.008000
41
0.008000
0
VERTEX
8
0
10
0.399645
20
0.141339
0
VERTEX
8
0
10
0.435000
20
0.105984
0
SEQEND
8
0
0
POLYLINE
8
0
66
1
40
0.008000
41
0.008000
0
VERTEX
8
0
10
0.399645
20
0.105984
0
VERTEX
8
0
10
0.435000
20
0.141339
0
SEQEND
8
0
0
POLYLINE
8
0
66
1
40
0.008000
41
0.008000
0
VERTEX
8
0
10
0.517323
20
0.148661
0
VERTEX
8
0
10
0.517323
20
0.098661
0
SEQEND
8
0
0
POLYLINE
8
0
66
1
40
0.008000
41
0.008000
0
VERTEX
8
0
10
0.492323
20
0.123661
0
VERTEX
8
0
10
0.542323
20
0.123661
0
SEQEND
8
0
0
POLYLINE
8
0
66
1
40
0.008000
41
0.008000
0
VERTEX
8
0
10
0.499645
20
0.141339
0
VERTEX
8
0
10
0.535000
20
0.105984
0
SEQEND
8
0
0
POLYLINE
8
0
66
1
40
0.008000
41
0.008000
0
VERTEX
8
0
10
0.499645
20
0.105984
0
VERTEX
8
0
10
0.535000
20
0.141339
0
SEQEND
8
0
0
POLYLINE
8
0
66
1
40
0.008000
41
0.008000
0
VERTEX
8
0
10
0.617323
20
0.148661
0
VERTEX
8
0
10
0.617323
20
0.098661
0
SEQEND
8
0
0
POLYLINE
8
0
66
1
40
0.008000
41
0.008000
0
VERTEX
8
0
10
0.592323
20
0.123661
0
VERTEX
8
0
10
0.642323
20
0.123661
0
SEQEND
8
0
0
POLYLINE
8
0
66
1
40
0.008000
41
0.008000
0
VERTEX
8
0
10
0.599645
20
0.141339
0
VERTEX
8
0
10
0.635000
20
0.105984
0
SEQEND
8
0
0
POLYLINE
8
0
66
1
40
0.008000
41
0.008000
0
VERTEX
8
0
10
0.599645
20
0.105984
0
VERTEX
8
0
10
0.635000
20
0.141339
0
SEQEND
8
0
0
POLYLINE
8
0
66
1
40
0.008000
41
0.008000
0
VERTEX
8
0
10
0.617323
20
0.448661
0
VERTEX
8
0
10
0.617323
20
0.398661
0
SEQEND
8
0
0
POLYLINE
8
0
66
1
40
0.008000
41
0.008000
0
VERTEX
8
0
10
0.592323
20
0.423661
0
VERTEX
8
0
10
0.642323
20
0.423661
0
SEQEND
8
0
0
POLYLINE
8
0
66
1
40
0.008000
41
0.008000
0
VERTEX
8
0
10
0.599645
20
0.441339
0
VERTEX
8
0
10
0.635000
20
0.405984
0
SEQEND
8
0
0
POLYLINE
8
0
66
1
40
0.008000
41
0.008000
0
VERTEX
8
0
10
0.599645
20
0.405984
0
VERTEX
8
0
10
0.635000
20
0.441339
0
SEQEND
8
0
0
POLYLINE
8
0
66
1
40
0.008000
41
0.008000
0
VERTEX
8
0
10
0.517323
20
0.448661
0
VERTEX
8
0
10
0.517323
20
0.398661
0
SEQEND
8
0
0
POLYLINE
8
0
66
1
40
0.008000
41
0.008000
0
VERTEX
8
0
10
0.492323
20
0.423661
0
VERTEX
8
0
10
0.542323
20
0.423661
0
SEQEND
8
0
0
POLYLINE
8
0
66
1
40
0.008000
41
0.008000
0
VERTEX
8
0
10
0.499645
20
0.441339
0
VERTEX
8
0
10
0.535000
20
0.405984
0
SEQEND
8
0
0
POLYLINE
8
0
66
1
40
0.008000
41
0.008000
0
VERTEX
8
0
10
0.499645
20
0.405984
0
VERTEX
8
0
10
0.535000
20
0.441339
0
SEQEND
8
0
0
POLYLINE
8
0
66
1
40
0.008000
41
0.008000
0
VERTEX
8
0
10
0.417323
20
0.448661
0
VERTEX
8
0
10
0.417323
20
0.398661
0
SEQEND
8
0
0
POLYLINE
8
0
66
1
40
0.008000
41
0.008000
0
VERTEX
8
0
10
0.392323
20
0.423661
0
VERTEX
8
0
10
0.442323
20
0.423661
0
SEQEND
8
0
0
POLYLINE
8
0
66
1
40
0.008000
41
0.008000
0
VERTEX
8
0
10
0.399645
20
0.441339
0
VERTEX
8
0
10
0.435000
20
0.405984
0
SEQEND
8
0
0
POLYLINE
8
0
66
1
40
0.008000
41
0.008000
0
VERTEX
8
0
10
0.399645
20
0.405984
0
VERTEX
8
0
10
0.435000
20
0.441339
0
SEQEND
8
0
0
POLYLINE
8
0
66
1
40
0.008000
41
0.008000
0
VERTEX
8
0
10
0.317323
20
0.448661
0
VERTEX
8
0
10
0.317323
20
0.398661
0
SEQEND
8
0
0
POLYLINE
8
0
66
1
40
0.008000
41
0.008000
0
VERTEX
8
0
10
0.292323
20
0.423661
0
VERTEX
8
0
10
0.342323
20
0.423661
0
SEQEND
8
0
0
POLYLINE
8
0
66
1
40
0.008000
41
0.008000
0
VERTEX
8
0
10
0.299645
20
0.441339
0
VERTEX
8
0
10
0.335000
20
0.405984
0
SEQEND
8
0
0
POLYLINE
8
0
66
1
40
0.008000
41
0.008000
0
VERTEX
8
0
10
0.299645
20
0.405984
0
VERTEX
8
0
10
0.335000
20
0.441339
0
SEQEND
8
0
0
POLYLINE
8
0
66
1
40
0.008000
41
0.008000
0
VERTEX
8
0
10
0.217323
20
0.448661
0
VERTEX
8
0
10
0.217323
20
0.398661
0
SEQEND
8
0
0
POLYLINE
8
0
66
1
40
0.008000
41
0.008000
0
VERTEX
8
0
10
0.192323
20
0.423661
0
VERTEX
8
0
10
0.242323
20
0.423661
0
SEQEND
8
0
0
POLYLINE
8
0
66
1
40
0.008000
41
0.008000
0
VERTEX
8
0
10
0.199645
20
0.441339
0
VERTEX
8
0
10
0.235000
20
0.405984
0
SEQEND
8
0
0
POLYLINE
8
0
66
1
40
0.008000
41
0.008000
0
VERTEX
8
0
10
0.199645
20
0.405984
0
VERTEX
8
0
10
0.235000
20
0.441339
0
SEQEND
8
0
0
POLYLINE
8
0
66
1
40
0.008000
41
0.008000
0
VERTEX
8
0
10
0.117323
20
0.448661
0
VERTEX
8
0
10
0.117323
20
0.398661
0
SEQEND
8
0
0
POLYLINE
8
0
66
1
40
0.008000
41
0.008000
0
VERTEX
8
0
10
0.092323
20
0.423661
0
VERTEX
8
0
10
0.142323
20
0.423661
0
SEQEND
8
0
0
POLYLINE
8
0
66
1
40
0.008000
41
0.008000
0
VERTEX
8
0
10
0.099645
20
0.441339
0
VERTEX
8
0
10
0.135000
20
0.405984
0
SEQEND
8
0
0
POLYLINE
8
0
66
1
40
0.008000
41
0.008000
0
VERTEX
8
0
10
0.099645
20
0.405984
0
VERTEX
8
0
10
0.135000
20
0.441339
0
SEQEND
8
0
0
POLYLINE
8
0
66
1
40
0.008000
41
0.008000
0
VERTEX
8
0
10
0.017323
20
0.448661
0
VERTEX
8
0
10
0.017323
20
0.398661
0
SEQEND
8
0
0
POLYLINE
8
0
66
1
40
0.008000
41
0.008000
0
VERTEX
8
0
10
-0.007677
20
0.423661
0
VERTEX
8
0
10
0.042323
20
0.423661
0
SEQEND
8
0
0
POLYLINE
8
0
66
1
40
0.008000
41
0.008000
0
VERTEX
8
0
10
-0.000355
20
0.441339
0
VERTEX
8
0
10
0.035000
20
0.405984
0
SEQEND
8
0
0
POLYLINE
8
0
66
1
40
0.008000
41
0.008000
0
VERTEX
8
0
10
-0.000355
20
0.405984
0
VERTEX
8
0
10
0.035000
20
0.441339
0
SEQEND
8
0
0
POLYLINE
8
0
66
1
40
0.008000
41
0.008000
0
VERTEX
8
0
10
-0.082677
20
0.448661
0
VERTEX
8
0
10
-0.082677
20
0.398661
0
SEQEND
8
0
0
POLYLINE
8
0
66
1
40
0.008000
41
0.008000
0
VERTEX
8
0
10
-0.107677
20
0.423661
0
VERTEX
8
0
10
-0.057677
20
0.423661
0
SEQEND
8
0
0
POLYLINE
8
0
66
1
40
0.008000
41
0.008000
0
VERTEX
8
0
10
-0.100355
20
0.441339
0
VERTEX
8
0
10
-0.065000
20
0.405984
0
SEQEND
8
0
0
POLYLINE
8
0
66
1
40
0.008000
41
0.008000
0
VERTEX
8
0
10
-0.100355
20
0.405984
0
VERTEX
8
0
10
-0.065000
20
0.441339
0
SEQEND
8
0
0
POLYLINE
8
0
66
1
40
0.008000
41
0.008000
0
VERTEX
8
0
10
-0.182677
20
0.448661
0
VERTEX
8
0
10
-0.182677
20
0.398661
0
SEQEND
8
0
0
POLYLINE
8
0
66
1
40
0.008000
41
0.008000
0
VERTEX
8
0
10
-0.207677
20
0.423661
0
VERTEX
8
0
10
-0.157677
20
0.423661
0
SEQEND
8
0
0
POLYLINE
8
0
66
1
40
0.008000
41
0.008000
0
VERTEX
8
0
10
-0.200355
20
0.441339
0
VERTEX
8
0
10
-0.165000
20
0.405984
0
SEQEND
8
0
0
POLYLINE
8
0
66
1
40
0.008000
41
0.008000
0
VERTEX
8
0
10
-0.200355
20
0.405984
0
VERTEX
8
0
10
-0.165000
20
0.441339
0
SEQEND
8
0
0
POLYLINE
8
0
66
1
40
0.008000
41
0.008000
0
VERTEX
8
0
10
-0.282677
20
0.448661
0
VERTEX
8
0
10
-0.282677
20
0.398661
0
SEQEND
8
0
0
POLYLINE
8
0
66
1
40
0.008000
41
0.008000
0
VERTEX
8
0
10
-0.307677
20
0.423661
0
VERTEX
8
0
10
-0.257677
20
0.423661
0
SEQEND
8
0
0
POLYLINE
8
0
66
1
40
0.008000
41
0.008000
0
VERTEX
8
0
10
-0.300355
20
0.441339
0
VERTEX
8
0
10
-0.265000
20
0.405984
0
SEQEND
8
0
0
POLYLINE
8
0
66
1
40
0.008000
41
0.008000
0
VERTEX
8
0
10
-0.300355
20
0.405984
0
VERTEX
8
0
10
-0.265000
20
0.441339
0
SEQEND
8
0
0
POLYLINE
8
0
66
1
40
0.008000
41
0.008000
0
VERTEX
8
0
10
-0.382677
20
0.448661
0
VERTEX
8
0
10
-0.382677
20
0.398661
0
SEQEND
8
0
0
POLYLINE
8
0
66
1
40
0.008000
41
0.008000
0
VERTEX
8
0
10
-0.407677
20
0.423661
0
VERTEX
8
0
10
-0.357677
20
0.423661
0
SEQEND
8
0
0
POLYLINE
8
0
66
1
40
0.008000
41
0.008000
0
VERTEX
8
0
10
-0.400355
20
0.441339
0
VERTEX
8
0
10
-0.365000
20
0.405984
0
SEQEND
8
0
0
POLYLINE
8
0
66
1
40
0.008000
41
0.008000
0
VERTEX
8
0
10
-0.400355
20
0.405984
0
VERTEX
8
0
10
-0.365000
20
0.441339
0
SEQEND
8
0
0
POLYLINE
8
0
66
1
40
0.008000
41
0.008000
0
VERTEX
8
0
10
-0.482677
20
0.448661
0
VERTEX
8
0
10
-0.482677
20
0.398661
0
SEQEND
8
0
0
POLYLINE
8
0
66
1
40
0.008000
41
0.008000
0
VERTEX
8
0
10
-0.507677
20
0.423661
0
VERTEX
8
0
10
-0.457677
20
0.423661
0
SEQEND
8
0
0
POLYLINE
8
0
66
1
40
0.008000
41
0.008000
0
VERTEX
8
0
10
-0.500355
20
0.441339
0
VERTEX
8
0
10
-0.465000
20
0.405984
0
SEQEND
8
0
0
POLYLINE
8
0
66
1
40
0.008000
41
0.008000
0
VERTEX
8
0
10
-0.500355
20
0.405984
0
VERTEX
8
0
10
-0.465000
20
0.441339
0
SEQEND
8
0
0
POLYLINE
8
0
66
1
40
0.008000
41
0.008000
0
VERTEX
8
0
10
-0.582677
20
0.448661
0
VERTEX
8
0
10
-0.582677
20
0.398661
0
SEQEND
8
0
0
POLYLINE
8
0
66
1
40
0.008000
41
0.008000
0
VERTEX
8
0
10
-0.607677
20
0.423661
0
VERTEX
8
0
10
-0.557677
20
0.423661
0
SEQEND
8
0
0
POLYLINE
8
0
66
1
40
0.008000
41
0.008000
0
VERTEX
8
0
10
-0.600355
20
0.441339
0
VERTEX
8
0
10
-0.565000
20
0.405984
0
SEQEND
8
0
0
POLYLINE
8
0
66
1
40
0.008000
41
0.008000
0
VERTEX
8
0
10
-0.600355
20
0.405984
0
VERTEX
8
0
10
-0.565000
20
0.441339
0
SEQEND
8
0
0
POLYLINE
8
0
66
1
40
0.008000
41
0.008000
0
VERTEX
8
0
10
-0.681890
20
0.448661
0
VERTEX
8
0
10
-0.681890
20
0.398661
0
SEQEND
8
0
0
POLYLINE
8
0
66
1
40
0.008000
41
0.008000
0
VERTEX
8
0
10
-0.706890
20
0.423661
0
VERTEX
8
0
10
-0.656890
20
0.423661
0
SEQEND
8
0
0
POLYLINE
8
0
66
1
40
0.008000
41
0.008000
0
VERTEX
8
0
10
-0.699567
20
0.441339
0
VERTEX
8
0
10
-0.664212
20
0.405984
0
SEQEND
8
0
0
POLYLINE
8
0
66
1
40
0.008000
41
0.008000
0
VERTEX
8
0
10
-0.699567
20
0.405984
0
VERTEX
8
0
10
-0.664212
20
0.441339
0
SEQEND
8
0
0
POLYLINE
8
0
66
1
40
0.008000
41
0.008000
0
VERTEX
8
0
10
0.524724
20
0.726063
0
VERTEX
8
0
10
0.524724
20
0.676063
0
SEQEND
8
0
0
POLYLINE
8
0
66
1
40
0.008000
41
0.008000
0
VERTEX
8
0
10
0.499724
20
0.701063
0
VERTEX
8
0
10
0.549724
20
0.701063
0
SEQEND
8
0
0
POLYLINE
8
0
66
1
40
0.008000
41
0.008000
0
VERTEX
8
0
10
0.507047
20
0.718741
0
VERTEX
8
0
10
0.542402
20
0.683385
0
SEQEND
8
0
0
POLYLINE
8
0
66
1
40
0.008000
41
0.008000
0
VERTEX
8
0
10
0.507047
20
0.683385
0
VERTEX
8
0
10
0.542402
20
0.718741
0
SEQEND
8
0
0
POLYLINE
8
0
66
1
40
0.008000
41
0.008000
0
VERTEX
8
0
10
0.406614
20
0.726063
0
VERTEX
8
0
10
0.406614
20
0.676063
0
SEQEND
8
0
0
POLYLINE
8
0
66
1
40
0.008000
41
0.008000
0
VERTEX
8
0
10
0.381614
20
0.701063
0
VERTEX
8
0
10
0.431614
20
0.701063
0
SEQEND
8
0
0
POLYLINE
8
0
66
1
40
0.008000
41
0.008000
0
VERTEX
8
0
10
0.388937
20
0.718741
0
VERTEX
8
0
10
0.424292
20
0.683385
0
SEQEND
8
0
0
POLYLINE
8
0
66
1
40
0.008000
41
0.008000
0
VERTEX
8
0
10
0.388937
20
0.683385
0
VERTEX
8
0
10
0.424292
20
0.718741
0
SEQEND
8
0
0
POLYLINE
8
0
66
1
40
0.008000
41
0.008000
0
VERTEX
8
0
10
-0.000157
20
-0.061339
0
VERTEX
8
0
10
-0.000157
20
-0.111339
0
SEQEND
8
0
0
POLYLINE
8
0
66
1
40
0.008000
41
0.008000
0
VERTEX
8
0
10
-0.025157
20
-0.086339
0
VERTEX
8
0
10
0.024843
20
-0.086339
0
SEQEND
8
0
0
POLYLINE
8
0
66
1
40
0.008000
41
0.008000
0
VERTEX
8
0
10
-0.017835
20
-0.068661
0
VERTEX
8
0
10
0.017520
20
-0.104016
0
SEQEND
8
0
0
POLYLINE
8
0
66
1
40
0.008000
41
0.008000
0
VERTEX
8
0
10
-0.017835
20
-0.104016
0
VERTEX
8
0
10
0.017520
20
-0.068661
0
SEQEND
8
0
0
POLYLINE
8
0
66
1
40
0.008000
41
0.008000
0
VERTEX
8
0
10
0.199843
20
-0.061339
0
VERTEX
8
0
10
0.199843
20
-0.111339
0
SEQEND
8
0
0
POLYLINE
8
0
66
1
40
0.008000
41
0.008000
0
VERTEX
8
0
10
0.174843
20
-0.086339
0
VERTEX
8
0
10
0.224843
20
-0.086339
0
SEQEND
8
0
0
POLYLINE
8
0
66
1
40
0.008000
41
0.008000
0
VERTEX
8
0
10
0.182165
20
-0.068661
0
VERTEX
8
0
10
0.217520
20
-0.104016
0
SEQEND
8
0
0
POLYLINE
8
0
66
1
40
0.008000
41
0.008000
0
VERTEX
8
0
10
0.182165
20
-0.104016
0
VERTEX
8
0
10
0.217520
20
-0.068661
0
SEQEND
8
0
0
POLYLINE
8
0
66
1
40
0.008000
41
0.008000
0
VERTEX
8
0
10
-0.124882
20
0.568661
0
VERTEX
8
0
10
-0.124882
20
0.518661
0
SEQEND
8
0
0
POLYLINE
8
0
66
1
40
0.008000
41
0.008000
0
VERTEX
8
0
10
-0.149882
20
0.543661
0
VERTEX
8
0
10
-0.099882
20
0.543661
0
SEQEND
8
0
0
POLYLINE
8
0
66
1
40
0.008000
41
0.008000
0
VERTEX
8
0
10
-0.142559
20
0.561339
0
VERTEX
8
0
10
-0.107204
20
0.525984
0
SEQEND
8
0
0
POLYLINE
8
0
66
1
40
0.008000
41
0.008000
0
VERTEX
8
0
10
-0.142559
20
0.525984
0
VERTEX
8
0
10
-0.107204
20
0.561339
0
SEQEND
8
0
0
POLYLINE
8
0
66
1
40
0.008000
41
0.008000
0
VERTEX
8
0
10
-0.024882
20
0.568661
0
VERTEX
8
0
10
-0.024882
20
0.518661
0
SEQEND
8
0
0
POLYLINE
8
0
66
1
40
0.008000
41
0.008000
0
VERTEX
8
0
10
-0.049882
20
0.543661
0
VERTEX
8
0
10
0.000118
20
0.543661
0
SEQEND
8
0
0
POLYLINE
8
0
66
1
40
0.008000
41
0.008000
0
VERTEX
8
0
10
-0.042559
20
0.561339
0
VERTEX
8
0
10
-0.007204
20
0.525984
0
SEQEND
8
0
0
POLYLINE
8
0
66
1
40
0.008000
41
0.008000
0
VERTEX
8
0
10
-0.042559
20
0.525984
0
VERTEX
8
0
10
-0.007204
20
0.561339
0
SEQEND
8
0
0
POLYLINE
8
0
66
1
40
0.008000
41
0.008000
0
VERTEX
8
0
10
0.075118
20
0.568661
0
VERTEX
8
0
10
0.075118
20
0.518661
0
SEQEND
8
0
0
POLYLINE
8
0
66
1
40
0.008000
41
0.008000
0
VERTEX
8
0
10
0.050118
20
0.543661
0
VERTEX
8
0
10
0.100118
20
0.543661
0
SEQEND
8
0
0
POLYLINE
8
0
66
1
40
0.008000
41
0.008000
0
VERTEX
8
0
10
0.057441
20
0.561339
0
VERTEX
8
0
10
0.092796
20
0.525984
0
SEQEND
8
0
0
POLYLINE
8
0
66
1
40
0.008000
41
0.008000
0
VERTEX
8
0
10
0.057441
20
0.525984
0
VERTEX
8
0
10
0.092796
20
0.561339
0
SEQEND
8
0
0
POLYLINE
8
0
66
1
40
0.008000
41
0.008000
0
VERTEX
8
0
10
0.175118
20
0.568661
0
VERTEX
8
0
10
0.175118
20
0.518661
0
SEQEND
8
0
0
POLYLINE
8
0
66
1
40
0.008000
41
0.008000
0
VERTEX
8
0
10
0.150118
20
0.543661
0
VERTEX
8
0
10
0.200118
20
0.543661
0
SEQEND
8
0
0
POLYLINE
8
0
66
1
40
0.008000
41
0.008000
0
VERTEX
8
0
10
0.157441
20
0.561339
0
VERTEX
8
0
10
0.192796
20
0.525984
0
SEQEND
8
0
0
POLYLINE
8
0
66
1
40
0.008000
41
0.008000
0
VERTEX
8
0
10
0.157441
20
0.525984
0
VERTEX
8
0
10
0.192796
20
0.561339
0
SEQEND
8
0
0
POLYLINE
8
0
66
1
40
0.008000
41
0.008000
0
VERTEX
8
0
10
0.175118
20
0.868661
0
VERTEX
8
0
10
0.175118
20
0.818661
0
SEQEND
8
0
0
POLYLINE
8
0
66
1
40
0.008000
41
0.008000
0
VERTEX
8
0
10
0.150118
20
0.843661
0
VERTEX
8
0
10
0.200118
20
0.843661
0
SEQEND
8
0
0
POLYLINE
8
0
66
1
40
0.008000
41
0.008000
0
VERTEX
8
0
10
0.157441
20
0.861339
0
VERTEX
8
0
10
0.192796
20
0.825984
0
SEQEND
8
0
0
POLYLINE
8
0
66
1
40
0.008000
41
0.008000
0
VERTEX
8
0
10
0.157441
20
0.825984
0
VERTEX
8
0
10
0.192796
20
0.861339
0
SEQEND
8
0
0
POLYLINE
8
0
66
1
40
0.008000
41
0.008000
0
VERTEX
8
0
10
0.075118
20
0.868661
0
VERTEX
8
0
10
0.075118
20
0.818661
0
SEQEND
8
0
0
POLYLINE
8
0
66
1
40
0.008000
41
0.008000
0
VERTEX
8
0
10
0.050118
20
0.843661
0
VERTEX
8
0
10
0.100118
20
0.843661
0
SEQEND
8
0
0
POLYLINE
8
0
66
1
40
0.008000
41
0.008000
0
VERTEX
8
0
10
0.057441
20
0.861339
0
VERTEX
8
0
10
0.092796
20
0.825984
0
SEQEND
8
0
0
POLYLINE
8
0
66
1
40
0.008000
41
0.008000
0
VERTEX
8
0
10
0.057441
20
0.825984
0
VERTEX
8
0
10
0.092796
20
0.861339
0
SEQEND
8
0
0
POLYLINE
8
0
66
1
40
0.008000
41
0.008000
0
VERTEX
8
0
10
-0.024882
20
0.868661
0
VERTEX
8
0
10
-0.024882
20
0.818661
0
SEQEND
8
0
0
POLYLINE
8
0
66
1
40
0.008000
41
0.008000
0
VERTEX
8
0
10
-0.049882
20
0.843661
0
VERTEX
8
0
10
0.000118
20
0.843661
0
SEQEND
8
0
0
POLYLINE
8
0
66
1
40
0.008000
41
0.008000
0
VERTEX
8
0
10
-0.042559
20
0.861339
0
VERTEX
8
0
10
-0.007204
20
0.825984
0
SEQEND
8
0
0
POLYLINE
8
0
66
1
40
0.008000
41
0.008000
0
VERTEX
8
0
10
-0.042559
20
0.825984
0
VERTEX
8
0
10
-0.007204
20
0.861339
0
SEQEND
8
0
0
POLYLINE
8
0
66
1
40
0.008000
41
0.008000
0
VERTEX
8
0
10
-0.124882
20
0.868661
0
VERTEX
8
0
10
-0.124882
20
0.818661
0
SEQEND
8
0
0
POLYLINE
8
0
66
1
40
0.008000
41
0.008000
0
VERTEX
8
0
10
-0.149882
20
0.843661
0
VERTEX
8
0
10
-0.099882
20
0.843661
0
SEQEND
8
0
0
POLYLINE
8
0
66
1
40
0.008000
41
0.008000
0
VERTEX
8
0
10
-0.142559
20
0.861339
0
VERTEX
8
0
10
-0.107204
20
0.825984
0
SEQEND
8
0
0
POLYLINE
8
0
66
1
40
0.008000
41
0.008000
0
VERTEX
8
0
10
-0.142559
20
0.825984
0
VERTEX
8
0
10
-0.107204
20
0.861339
0
SEQEND
8
0
0
POLYLINE
8
0
66
1
40
0.008000
41
0.008000
0
VERTEX
8
0
10
0.419843
20
-0.061339
0
VERTEX
8
0
10
0.419843
20
-0.111339
0
SEQEND
8
0
0
POLYLINE
8
0
66
1
40
0.008000
41
0.008000
0
VERTEX
8
0
10
0.394843
20
-0.086339
0
VERTEX
8
0
10
0.444843
20
-0.086339
0
SEQEND
8
0
0
POLYLINE
8
0
66
1
40
0.008000
41
0.008000
0
VERTEX
8
0
10
0.402165
20
-0.068661
0
VERTEX
8
0
10
0.437520
20
-0.104016
0
SEQEND
8
0
0
POLYLINE
8
0
66
1
40
0.008000
41
0.008000
0
VERTEX
8
0
10
0.402165
20
-0.104016
0
VERTEX
8
0
10
0.437520
20
-0.068661
0
SEQEND
8
0
0
POLYLINE
8
0
66
1
40
0.008000
41
0.008000
0
VERTEX
8
0
10
0.519843
20
-0.061339
0
VERTEX
8
0
10
0.519843
20
-0.111339
0
SEQEND
8
0
0
POLYLINE
8
0
66
1
40
0.008000
41
0.008000
0
VERTEX
8
0
10
0.494843
20
-0.086339
0
VERTEX
8
0
10
0.544843
20
-0.086339
0
SEQEND
8
0
0
POLYLINE
8
0
66
1
40
0.008000
41
0.008000
0
VERTEX
8
0
10
0.502165
20
-0.068661
0
VERTEX
8
0
10
0.537520
20
-0.104016
0
SEQEND
8
0
0
POLYLINE
8
0
66
1
40
0.008000
41
0.008000
0
VERTEX
8
0
10
0.502165
20
-0.104016
0
VERTEX
8
0
10
0.537520
20
-0.068661
0
SEQEND
8
0
0
POLYLINE
8
0
66
1
40
0.008000
41
0.008000
0
VERTEX
8
0
10
-0.426772
20
-0.671654
0
VERTEX
8
0
10
-0.426772
20
-0.721654
0
SEQEND
8
0
0
POLYLINE
8
0
66
1
40
0.008000
41
0.008000
0
VERTEX
8
0
10
-0.451772
20
-0.696654
0
VERTEX
8
0
10
-0.401772
20
-0.696654
0
SEQEND
8
0
0
POLYLINE
8
0
66
1
40
0.008000
41
0.008000
0
VERTEX
8
0
10
-0.444449
20
-0.678976
0
VERTEX
8
0
10
-0.409094
20
-0.714331
0
SEQEND
8
0
0
POLYLINE
8
0
66
1
40
0.008000
41
0.008000
0
VERTEX
8
0
10
-0.444449
20
-0.714331
0
VERTEX
8
0
10
-0.409094
20
-0.678976
0
SEQEND
8
0
0
POLYLINE
8
0
66
1
40
0.008000
41
0.008000
0
VERTEX
8
0
10
-0.426772
20
-0.271654
0
VERTEX
8
0
10
-0.426772
20
-0.321654
0
SEQEND
8
0
0
POLYLINE
8
0
66
1
40
0.008000
41
0.008000
0
VERTEX
8
0
10
-0.451772
20
-0.296654
0
VERTEX
8
0
10
-0.401772
20
-0.296654
0
SEQEND
8
0
0
POLYLINE
8
0
66
1
40
0.008000
41
0.008000
0
VERTEX
8
0
10
-0.444449
20
-0.278976
0
VERTEX
8
0
10
-0.409094
20
-0.314331
0
SEQEND
8
0
0
POLYLINE
8
0
66
1
40
0.008000
41
0.008000
0
VERTEX
8
0
10
-0.444449
20
-0.314331
0
VERTEX
8
0
10
-0.409094
20
-0.278976
0
SEQEND
8
0
0
POLYLINE
8
0
66
1
40
0.008000
41
0.008000
0
VERTEX
8
0
10
-0.229843
20
-0.671654
0
VERTEX
8
0
10
-0.229843
20
-0.721654
0
SEQEND
8
0
0
POLYLINE
8
0
66
1
40
0.008000
41
0.008000
0
VERTEX
8
0
10
-0.254843
20
-0.696654
0
VERTEX
8
0
10
-0.204843
20
-0.696654
0
SEQEND
8
0
0
POLYLINE
8
0
66
1
40
0.008000
41
0.008000
0
VERTEX
8
0
10
-0.247520
20
-0.678976
0
VERTEX
8
0
10
-0.212165
20
-0.714331
0
SEQEND
8
0
0
POLYLINE
8
0
66
1
40
0.008000
41
0.008000
0
VERTEX
8
0
10
-0.247520
20
-0.714331
0
VERTEX
8
0
10
-0.212165
20
-0.678976
0
SEQEND
8
0
0
POLYLINE
8
0
66
1
40
0.008000
41
0.008000
0
VERTEX
8
0
10
-0.229843
20
-0.271654
0
VERTEX
8
0
10
-0.229843
20
-0.321654
0
SEQEND
8
0
0
POLYLINE
8
0
66
1
40
0.008000
41
0.008000
0
VERTEX
8
0
10
-0.254843
20
-0.296654
0
VERTEX
8
0
10
-0.204843
20
-0.296654
0
SEQEND
8
0
0
POLYLINE
8
0
66
1
40
0.008000
41
0.008000
0
VERTEX
8
0
10
-0.247520
20
-0.278976
0
VERTEX
8
0
10
-0.212165
20
-0.314331
0
SEQEND
8
0
0
POLYLINE
8
0
66
1
40
0.008000
41
0.008000
0
VERTEX
8
0
10
-0.247520
20
-0.314331
0
VERTEX
8
0
10
-0.212165
20
-0.278976
0
SEQEND
8
0
0
POLYLINE
8
0
66
1
40
0.008000
41
0.008000
0
VERTEX
8
0
10
-0.039606
20
-0.671654
0
VERTEX
8
0
10
-0.039606
20
-0.721654
0
SEQEND
8
0
0
POLYLINE
8
0
66
1
40
0.008000
41
0.008000
0
VERTEX
8
0
10
-0.064606
20
-0.696654
0
VERTEX
8
0
10
-0.014606
20
-0.696654
0
SEQEND
8
0
0
POLYLINE
8
0
66
1
40
0.008000
41
0.008000
0
VERTEX
8
0
10
-0.057284
20
-0.678976
0
VERTEX
8
0
10
-0.021929
20
-0.714331
0
SEQEND
8
0
0
POLYLINE
8
0
66
1
40
0.008000
41
0.008000
0
VERTEX
8
0
10
-0.057284
20
-0.714331
0
VERTEX
8
0
10
-0.021929
20
-0.678976
0
SEQEND
8
0
0
POLYLINE
8
0
66
1
40
0.008000
41
0.008000
0
VERTEX
8
0
10
-0.039606
20
-0.271654
0
VERTEX
8
0
10
-0.039606
20
-0.321654
0
SEQEND
8
0
0
POLYLINE
8
0
66
1
40
0.008000
41
0.008000
0
VERTEX
8
0
10
-0.064606
20
-0.296654
0
VERTEX
8
0
10
-0.014606
20
-0.296654
0
SEQEND
8
0
0
POLYLINE
8
0
66
1
40
0.008000
41
0.008000
0
VERTEX
8
0
10
-0.057284
20
-0.278976
0
VERTEX
8
0
10
-0.021929
20
-0.314331
0
SEQEND
8
0
0
POLYLINE
8
0
66
1
40
0.008000
41
0.008000
0
VERTEX
8
0
10
-0.057284
20
-0.314331
0
VERTEX
8
0
10
-0.021929
20
-0.278976
0
SEQEND
8
0
0
POLYLINE
8
0
66
1
40
0.008000
41
0.008000
0
VERTEX
8
0
10
0.715118
20
0.778661
0
VERTEX
8
0
10
0.715118
20
0.728661
0
SEQEND
8
0
0
POLYLINE
8
0
66
1
40
0.008000
41
0.008000
0
VERTEX
8
0
10
0.690118
20
0.753661
0
VERTEX
8
0
10
0.740118
20
0.753661
0
SEQEND
8
0
0
POLYLINE
8
0
66
1
40
0.008000
41
0.008000
0
VERTEX
8
0
10
0.697441
20
0.771339
0
VERTEX
8
0
10
0.732796
20
0.735984
0
SEQEND
8
0
0
POLYLINE
8
0
66
1
40
0.008000
41
0.008000
0
VERTEX
8
0
10
0.697441
20
0.735984
0
VERTEX
8
0
10
0.732796
20
0.771339
0
SEQEND
8
0
0
POLYLINE
8
0
66
1
40
0.008000
41
0.008000
0
VERTEX
8
0
10
0.915118
20
0.778661
0
VERTEX
8
0
10
0.915118
20
0.728661
0
SEQEND
8
0
0
POLYLINE
8
0
66
1
40
0.008000
41
0.008000
0
VERTEX
8
0
10
0.890118
20
0.753661
0
VERTEX
8
0
10
0.940118
20
0.753661
0
SEQEND
8
0
0
POLYLINE
8
0
66
1
40
0.008000
41
0.008000
0
VERTEX
8
0
10
0.897441
20
0.771339
0
VERTEX
8
0
10
0.932796
20
0.735984
0
SEQEND
8
0
0
POLYLINE
8
0
66
1
40
0.008000
41
0.008000
0
VERTEX
8
0
10
0.897441
20
0.735984
0
VERTEX
8
0
10
0.932796
20
0.771339
0
SEQEND
8
0
0
POLYLINE
8
0
66
1
40
0.008000
41
0.008000
0
VERTEX
8
0
10
-0.682677
20
0.778661
0
VERTEX
8
0
10
-0.682677
20
0.728661
0
SEQEND
8
0
0
POLYLINE
8
0
66
1
40
0.008000
41
0.008000
0
VERTEX
8
0
10
-0.707677
20
0.753661
0
VERTEX
8
0
10
-0.657677
20
0.753661
0
SEQEND
8
0
0
POLYLINE
8
0
66
1
40
0.008000
41
0.008000
0
VERTEX
8
0
10
-0.700355
20
0.771339
0
VERTEX
8
0
10
-0.665000
20
0.735984
0
SEQEND
8
0
0
POLYLINE
8
0
66
1
40
0.008000
41
0.008000
0
VERTEX
8
0
10
-0.700355
20
0.735984
0
VERTEX
8
0
10
-0.665000
20
0.771339
0
SEQEND
8
0
0
POLYLINE
8
0
66
1
40
0.008000
41
0.008000
0
VERTEX
8
0
10
-0.682677
20
0.578661
0
VERTEX
8
0
10
-0.682677
20
0.528661
0
SEQEND
8
0
0
POLYLINE
8
0
66
1
40
0.008000
41
0.008000
0
VERTEX
8
0
10
-0.707677
20
0.553661
0
VERTEX
8
0
10
-0.657677
20
0.553661
0
SEQEND
8
0
0
POLYLINE
8
0
66
1
40
0.008000
41
0.008000
0
VERTEX
8
0
10
-0.700355
20
0.571339
0
VERTEX
8
0
10
-0.665000
20
0.535984
0
SEQEND
8
0
0
POLYLINE
8
0
66
1
40
0.008000
41
0.008000
0
VERTEX
8
0
10
-0.700355
20
0.535984
0
VERTEX
8
0
10
-0.665000
20
0.571339
0
SEQEND
8
0
0
POLYLINE
8
0
66
1
40
0.008000
41
0.008000
0
VERTEX
8
0
10
-0.656220
20
-0.619134
0
VERTEX
8
0
10
-0.656220
20
-0.669134
0
SEQEND
8
0
0
POLYLINE
8
0
66
1
40
0.008000
41
0.008000
0
VERTEX
8
0
10
-0.681220
20
-0.644134
0
VERTEX
8
0
10
-0.631220
20
-0.644134
0
SEQEND
8
0
0
POLYLINE
8
0
66
1
40
0.008000
41
0.008000
0
VERTEX
8
0
10
-0.673898
20
-0.626456
0
VERTEX
8
0
10
-0.638543
20
-0.661811
0
SEQEND
8
0
0
POLYLINE
8
0
66
1
40
0.008000
41
0.008000
0
VERTEX
8
0
10
-0.673898
20
-0.661811
0
VERTEX
8
0
10
-0.638543
20
-0.626456
0
SEQEND
8
0
0
POLYLINE
8
0
66
1
40
0.008000
41
0.008000
0
VERTEX
8
0
10
-0.656220
20
-0.319134
0
VERTEX
8
0
10
-0.656220
20
-0.369134
0
SEQEND
8
0
0
POLYLINE
8
0
66
1
40
0.008000
41
0.008000
0
VERTEX
8
0
10
-0.681220
20
-0.344134
0
VERTEX
8
0
10
-0.631220
20
-0.344134
0
SEQEND
8
0
0
POLYLINE
8
0
66
1
40
0.008000
41
0.008000
0
VERTEX
8
0
10
-0.673898
20
-0.326456
0
VERTEX
8
0
10
-0.638543
20
-0.361811
0
SEQEND
8
0
0
POLYLINE
8
0
66
1
40
0.008000
41
0.008000
0
VERTEX
8
0
10
-0.673898
20
-0.361811
0
VERTEX
8
0
10
-0.638543
20
-0.326456
0
SEQEND
8
0
0
POLYLINE
8
0
66
1
40
0.008000
41
0.008000
0
VERTEX
8
0
10
0.721732
20
0.070000
0
VERTEX
8
0
10
0.721732
20
0.020000
0
SEQEND
8
0
0
POLYLINE
8
0
66
1
40
0.008000
41
0.008000
0
VERTEX
8
0
10
0.696732
20
0.045000
0
VERTEX
8
0
10
0.746732
20
0.045000
0
SEQEND
8
0
0
POLYLINE
8
0
66
1
40
0.008000
41
0.008000
0
VERTEX
8
0
10
0.704055
20
0.062678
0
VERTEX
8
0
10
0.739410
20
0.027322
0
SEQEND
8
0
0
POLYLINE
8
0
66
1
40
0.008000
41
0.008000
0
VERTEX
8
0
10
0.704055
20
0.027322
0
VERTEX
8
0
10
0.739410
20
0.062678
0
SEQEND
8
0
0
POLYLINE
8
0
66
1
40
0.008000
41
0.008000
0
VERTEX
8
0
10
0.721732
20
-0.146535
0
VERTEX
8
0
10
0.721732
20
-0.196535
0
SEQEND
8
0
0
POLYLINE
8
0
66
1
40
0.008000
41
0.008000
0
VERTEX
8
0
10
0.696732
20
-0.171535
0
VERTEX
8
0
10
0.746732
20
-0.171535
0
SEQEND
8
0
0
POLYLINE
8
0
66
1
40
0.008000
41
0.008000
0
VERTEX
8
0
10
0.704055
20
-0.153858
0
VERTEX
8
0
10
0.739410
20
-0.189213
0
SEQEND
8
0
0
POLYLINE
8
0
66
1
40
0.008000
41
0.008000
0
VERTEX
8
0
10
0.704055
20
-0.189213
0
VERTEX
8
0
10
0.739410
20
-0.153858
0
SEQEND
8
0
0
POLYLINE
8
0
66
1
40
0.008000
41
0.008000
0
VERTEX
8
0
10
-0.472677
20
0.778661
0
VERTEX
8
0
10
-0.472677
20
0.728661
0
SEQEND
8
0
0
POLYLINE
8
0
66
1
40
0.008000
41
0.008000
0
VERTEX
8
0
10
-0.497677
20
0.753661
0
VERTEX
8
0
10
-0.447677
20
0.753661
0
SEQEND
8
0
0
POLYLINE
8
0
66
1
40
0.008000
41
0.008000
0
VERTEX
8
0
10
-0.490355
20
0.771339
0
VERTEX
8
0
10
-0.455000
20
0.735984
0
SEQEND
8
0
0
POLYLINE
8
0
66
1
40
0.008000
41
0.008000
0
VERTEX
8
0
10
-0.490355
20
0.735984
0
VERTEX
8
0
10
-0.455000
20
0.771339
0
SEQEND
8
0
0
POLYLINE
8
0
66
1
40
0.008000
41
0.008000
0
VERTEX
8
0
10
-0.472677
20
0.562126
0
VERTEX
8
0
10
-0.472677
20
0.512126
0
SEQEND
8
0
0
POLYLINE
8
0
66
1
40
0.008000
41
0.008000
0
VERTEX
8
0
10
-0.497677
20
0.537126
0
VERTEX
8
0
10
-0.447677
20
0.537126
0
SEQEND
8
0
0
POLYLINE
8
0
66
1
40
0.008000
41
0.008000
0
VERTEX
8
0
10
-0.490355
20
0.554804
0
VERTEX
8
0
10
-0.455000
20
0.519448
0
SEQEND
8
0
0
POLYLINE
8
0
66
1
40
0.008000
41
0.008000
0
VERTEX
8
0
10
-0.490355
20
0.519448
0
VERTEX
8
0
10
-0.455000
20
0.554804
0
SEQEND
8
0
0
POLYLINE
8
0
66
1
40
0.008000
41
0.008000
0
VERTEX
8
0
10
-0.518425
20
-0.054724
0
VERTEX
8
0
10
-0.518425
20
-0.104724
0
SEQEND
8
0
0
POLYLINE
8
0
66
1
40
0.008000
41
0.008000
0
VERTEX
8
0
10
-0.543425
20
-0.079724
0
VERTEX
8
0
10
-0.493425
20
-0.079724
0
SEQEND
8
0
0
POLYLINE
8
0
66
1
40
0.008000
41
0.008000
0
VERTEX
8
0
10
-0.536103
20
-0.062047
0
VERTEX
8
0
10
-0.500748
20
-0.097402
0
SEQEND
8
0
0
POLYLINE
8
0
66
1
40
0.008000
41
0.008000
0
VERTEX
8
0
10
-0.536103
20
-0.097402
0
VERTEX
8
0
10
-0.500748
20
-0.062047
0
SEQEND
8
0
0
POLYLINE
8
0
66
1
40
0.008000
41
0.008000
0
VERTEX
8
0
10
-0.597165
20
-0.054724
0
VERTEX
8
0
10
-0.597165
20
-0.104724
0
SEQEND
8
0
0
POLYLINE
8
0
66
1
40
0.008000
41
0.008000
0
VERTEX
8
0
10
-0.622165
20
-0.079724
0
VERTEX
8
0
10
-0.572165
20
-0.079724
0
SEQEND
8
0
0
POLYLINE
8
0
66
1
40
0.008000
41
0.008000
0
VERTEX
8
0
10
-0.614843
20
-0.062047
0
VERTEX
8
0
10
-0.579488
20
-0.097402
0
SEQEND
8
0
0
POLYLINE
8
0
66
1
40
0.008000
41
0.008000
0
VERTEX
8
0
10
-0.614843
20
-0.097402
0
VERTEX
8
0
10
-0.579488
20
-0.062047
0
SEQEND
8
0
0
POLYLINE
8
0
66
1
40
0.008000
41
0.008000
0
VERTEX
8
0
10
-0.242835
20
-0.048189
0
VERTEX
8
0
10
-0.242835
20
-0.098189
0
SEQEND
8
0
0
POLYLINE
8
0
66
1
40
0.008000
41
0.008000
0
VERTEX
8
0
10
-0.267835
20
-0.073189
0
VERTEX
8
0
10
-0.217835
20
-0.073189
0
SEQEND
8
0
0
POLYLINE
8
0
66
1
40
0.008000
41
0.008000
0
VERTEX
8
0
10
-0.260512
20
-0.055511
0
VERTEX
8
0
10
-0.225157
20
-0.090867
0
SEQEND
8
0
0
POLYLINE
8
0
66
1
40
0.008000
41
0.008000
0
VERTEX
8
0
10
-0.260512
20
-0.090867
0
VERTEX
8
0
10
-0.225157
20
-0.055511
0
SEQEND
8
0
0
POLYLINE
8
0
66
1
40
0.008000
41
0.008000
0
VERTEX
8
0
10
-0.321575
20
-0.048189
0
VERTEX
8
0
10
-0.321575
20
-0.098189
0
SEQEND
8
0
0
POLYLINE
8
0
66
1
40
0.008000
41
0.008000
0
VERTEX
8
0
10
-0.346575
20
-0.073189
0
VERTEX
8
0
10
-0.296575
20
-0.073189
0
SEQEND
8
0
0
POLYLINE
8
0
66
1
40
0.008000
41
0.008000
0
VERTEX
8
0
10
-0.339252
20
-0.055511
0
VERTEX
8
0
10
-0.303897
20
-0.090867
0
SEQEND
8
0
0
POLYLINE
8
0
66
1
40
0.008000
41
0.008000
0
VERTEX
8
0
10
-0.339252
20
-0.090867
0
VERTEX
8
0
10
-0.303897
20
-0.055511
0
SEQEND
8
0
0
CIRCLE
8
0
10
-0.944882
20
-0.706496
40
0.025000
0
POLYLINE
8
0
66
1
40
0.008000
41
0.008000
0
VERTEX
8
0
10
-0.944882
20
-0.681496
0
VERTEX
8
0
10
-0.944882
20
-0.731496
0
SEQEND
8
0
0
POLYLINE
8
0
66
1
40
0.008000
41
0.008000
0
VERTEX
8
0
10
-0.969882
20
-0.706496
0
VERTEX
8
0
10
-0.919882
20
-0.706496
0
SEQEND
8
0
0
CIRCLE
8
0
10
-0.944882
20
-0.606496
40
0.025000
0
POLYLINE
8
0
66
1
40
0.008000
41
0.008000
0
VERTEX
8
0
10
-0.944882
20
-0.581496
0
VERTEX
8
0
10
-0.944882
20
-0.631496
0
SEQEND
8
0
0
POLYLINE
8
0
66
1
40
0.008000
41
0.008000
0
VERTEX
8
0
10
-0.969882
20
-0.606496
0
VERTEX
8
0
10
-0.919882
20
-0.606496
0
SEQEND
8
0
0
CIRCLE
8
0
10
-0.944882
20
-0.506496
40
0.025000
0
POLYLINE
8
0
66
1
40
0.008000
41
0.008000
0
VERTEX
8
0
10
-0.944882
20
-0.481496
0
VERTEX
8
0
10
-0.944882
20
-0.531496
0
SEQEND
8
0
0
POLYLINE
8
0
66
1
40
0.008000
41
0.008000
0
VERTEX
8
0
10
-0.969882
20
-0.506496
0
VERTEX
8
0
10
-0.919882
20
-0.506496
0
SEQEND
8
0
0
CIRCLE
8
0
10
-0.944882
20
-0.406496
40
0.025000
0
POLYLINE
8
0
66
1
40
0.008000
41
0.008000
0
VERTEX
8
0
10
-0.944882
20
-0.381496
0
VERTEX
8
0
10
-0.944882
20
-0.431496
0
SEQEND
8
0
0
POLYLINE
8
0
66
1
40
0.008000
41
0.008000
0
VERTEX
8
0
10
-0.969882
20
-0.406496
0
VERTEX
8
0
10
-0.919882
20
-0.406496
0
SEQEND
8
0
0
CIRCLE
8
0
10
-0.944882
20
-0.306496
40
0.025000
0
POLYLINE
8
0
66
1
40
0.008000
41
0.008000
0
VERTEX
8
0
10
-0.944882
20
-0.281496
0
VERTEX
8
0
10
-0.944882
20
-0.331496
0
SEQEND
8
0
0
POLYLINE
8
0
66
1
40
0.008000
41
0.008000
0
VERTEX
8
0
10
-0.969882
20
-0.306496
0
VERTEX
8
0
10
-0.919882
20
-0.306496
0
SEQEND
8
0
0
POLYLINE
8
0
66
1
40
0.008000
41
0.008000
0
VERTEX
8
0
10
0.150787
20
-0.671654
0
VERTEX
8
0
10
0.150787
20
-0.721654
0
SEQEND
8
0
0
POLYLINE
8
0
66
1
40
0.008000
41
0.008000
0
VERTEX
8
0
10
0.125787
20
-0.696654
0
VERTEX
8
0
10
0.175787
20
-0.696654
0
SEQEND
8
0
0
POLYLINE
8
0
66
1
40
0.008000
41
0.008000
0
VERTEX
8
0
10
0.133110
20
-0.678976
0
VERTEX
8
0
10
0.168465
20
-0.714331
0
SEQEND
8
0
0
POLYLINE
8
0
66
1
40
0.008000
41
0.008000
0
VERTEX
8
0
10
0.133110
20
-0.714331
0
VERTEX
8
0
10
0.168465
20
-0.678976
0
SEQEND
8
0
0
POLYLINE
8
0
66
1
40
0.008000
41
0.008000
0
VERTEX
8
0
10
0.150787
20
-0.271654
0
VERTEX
8
0
10
0.150787
20
-0.321654
0
SEQEND
8
0
0
POLYLINE
8
0
66
1
40
0.008000
41
0.008000
0
VERTEX
8
0
10
0.125787
20
-0.296654
0
VERTEX
8
0
10
0.175787
20
-0.296654
0
SEQEND
8
0
0
POLYLINE
8
0
66
1
40
0.008000
41
0.008000
0
VERTEX
8
0
10
0.133110
20
-0.278976
0
VERTEX
8
0
10
0.168465
20
-0.314331
0
SEQEND
8
0
0
POLYLINE
8
0
66
1
40
0.008000
41
0.008000
0
VERTEX
8
0
10
0.133110
20
-0.314331
0
VERTEX
8
0
10
0.168465
20
-0.278976
0
SEQEND
8
0
0
POLYLINE
8
0
66
1
40
0.008000
41
0.008000
0
VERTEX
8
0
10
0.341102
20
-0.671654
0
VERTEX
8
0
10
0.341102
20
-0.721654
0
SEQEND
8
0
0
POLYLINE
8
0
66
1
40
0.008000
41
0.008000
0
VERTEX
8
0
10
0.316102
20
-0.696654
0
VERTEX
8
0
10
0.366102
20
-0.696654
0
SEQEND
8
0
0
POLYLINE
8
0
66
1
40
0.008000
41
0.008000
0
VERTEX
8
0
10
0.323425
20
-0.678976
0
VERTEX
8
0
10
0.358780
20
-0.714331
0
SEQEND
8
0
0
POLYLINE
8
0
66
1
40
0.008000
41
0.008000
0
VERTEX
8
0
10
0.323425
20
-0.714331
0
VERTEX
8
0
10
0.358780
20
-0.678976
0
SEQEND
8
0
0
POLYLINE
8
0
66
1
40
0.008000
41
0.008000
0
VERTEX
8
0
10
0.341102
20
-0.271654
0
VERTEX
8
0
10
0.341102
20
-0.321654
0
SEQEND
8
0
0
POLYLINE
8
0
66
1
40
0.008000
41
0.008000
0
VERTEX
8
0
10
0.316102
20
-0.296654
0
VERTEX
8
0
10
0.366102
20
-0.296654
0
SEQEND
8
0
0
POLYLINE
8
0
66
1
40
0.008000
41
0.008000
0
VERTEX
8
0
10
0.323425
20
-0.278976
0
VERTEX
8
0
10
0.358780
20
-0.314331
0
SEQEND
8
0
0
POLYLINE
8
0
66
1
40
0.008000
41
0.008000
0
VERTEX
8
0
10
0.323425
20
-0.314331
0
VERTEX
8
0
10
0.358780
20
-0.278976
0
SEQEND
8
0
0
POLYLINE
8
0
66
1
40
0.008000
41
0.008000
0
VERTEX
8
0
10
0.531417
20
-0.671654
0
VERTEX
8
0
10
0.531417
20
-0.721654
0
SEQEND
8
0
0
POLYLINE
8
0
66
1
40
0.008000
41
0.008000
0
VERTEX
8
0
10
0.506417
20
-0.696654
0
VERTEX
8
0
10
0.556417
20
-0.696654
0
SEQEND
8
0
0
POLYLINE
8
0
66
1
40
0.008000
41
0.008000
0
VERTEX
8
0
10
0.513740
20
-0.678976
0
VERTEX
8
0
10
0.549095
20
-0.714331
0
SEQEND
8
0
0
POLYLINE
8
0
66
1
40
0.008000
41
0.008000
0
VERTEX
8
0
10
0.513740
20
-0.714331
0
VERTEX
8
0
10
0.549095
20
-0.678976
0
SEQEND
8
0
0
POLYLINE
8
0
66
1
40
0.008000
41
0.008000
0
VERTEX
8
0
10
0.531417
20
-0.271654
0
VERTEX
8
0
10
0.531417
20
-0.321654
0
SEQEND
8
0
0
POLYLINE
8
0
66
1
40
0.008000
41
0.008000
0
VERTEX
8
0
10
0.506417
20
-0.296654
0
VERTEX
8
0
10
0.556417
20
-0.296654
0
SEQEND
8
0
0
POLYLINE
8
0
66
1
40
0.008000
41
0.008000
0
VERTEX
8
0
10
0.513740
20
-0.278976
0
VERTEX
8
0
10
0.549095
20
-0.314331
0
SEQEND
8
0
0
POLYLINE
8
0
66
1
40
0.008000
41
0.008000
0
VERTEX
8
0
10
0.513740
20
-0.314331
0
VERTEX
8
0
10
0.549095
20
-0.278976
0
SEQEND
8
0
0
POLYLINE
8
0
66
1
40
0.008000
41
0.008000
0
VERTEX
8
0
10
0.715118
20
0.568661
0
VERTEX
8
0
10
0.715118
20
0.518661
0
SEQEND
8
0
0
POLYLINE
8
0
66
1
40
0.008000
41
0.008000
0
VERTEX
8
0
10
0.690118
20
0.543661
0
VERTEX
8
0
10
0.740118
20
0.543661
0
SEQEND
8
0
0
POLYLINE
8
0
66
1
40
0.008000
41
0.008000
0
VERTEX
8
0
10
0.697441
20
0.561339
0
VERTEX
8
0
10
0.732796
20
0.525984
0
SEQEND
8
0
0
POLYLINE
8
0
66
1
40
0.008000
41
0.008000
0
VERTEX
8
0
10
0.697441
20
0.525984
0
VERTEX
8
0
10
0.732796
20
0.561339
0
SEQEND
8
0
0
POLYLINE
8
0
66
1
40
0.008000
41
0.008000
0
VERTEX
8
0
10
0.915118
20
0.568661
0
VERTEX
8
0
10
0.915118
20
0.518661
0
SEQEND
8
0
0
POLYLINE
8
0
66
1
40
0.008000
41
0.008000
0
VERTEX
8
0
10
0.890118
20
0.543661
0
VERTEX
8
0
10
0.940118
20
0.543661
0
SEQEND
8
0
0
POLYLINE
8
0
66
1
40
0.008000
41
0.008000
0
VERTEX
8
0
10
0.897441
20
0.561339
0
VERTEX
8
0
10
0.932796
20
0.525984
0
SEQEND
8
0
0
POLYLINE
8
0
66
1
40
0.008000
41
0.008000
0
VERTEX
8
0
10
0.897441
20
0.525984
0
VERTEX
8
0
10
0.932796
20
0.561339
0
SEQEND
8
0
0
POLYLINE
8
0
66
1
40
0.008000
41
0.008000
0
VERTEX
8
0
10
0.728346
20
-0.671654
0
VERTEX
8
0
10
0.728346
20
-0.721654
0
SEQEND
8
0
0
POLYLINE
8
0
66
1
40
0.008000
41
0.008000
0
VERTEX
8
0
10
0.703346
20
-0.696654
0
VERTEX
8
0
10
0.753346
20
-0.696654
0
SEQEND
8
0
0
POLYLINE
8
0
66
1
40
0.008000
41
0.008000
0
VERTEX
8
0
10
0.710669
20
-0.678976
0
VERTEX
8
0
10
0.746024
20
-0.714331
0
SEQEND
8
0
0
POLYLINE
8
0
66
1
40
0.008000
41
0.008000
0
VERTEX
8
0
10
0.710669
20
-0.714331
0
VERTEX
8
0
10
0.746024
20
-0.678976
0
SEQEND
8
0
0
POLYLINE
8
0
66
1
40
0.008000
41
0.008000
0
VERTEX
8
0
10
0.728346
20
-0.271654
0
VERTEX
8
0
10
0.728346
20
-0.321654
0
SEQEND
8
0
0
POLYLINE
8
0
66
1
40
0.008000
41
0.008000
0
VERTEX
8
0
10
0.703346
20
-0.296654
0
VERTEX
8
0
10
0.753346
20
-0.296654
0
SEQEND
8
0
0
POLYLINE
8
0
66
1
40
0.008000
41
0.008000
0
VERTEX
8
0
10
0.710669
20
-0.278976
0
VERTEX
8
0
10
0.746024
20
-0.314331
0
SEQEND
8
0
0
POLYLINE
8
0
66
1
40
0.008000
41
0.008000
0
VERTEX
8
0
10
0.710669
20
-0.314331
0
VERTEX
8
0
10
0.746024
20
-0.278976
0
SEQEND
8
0
0
POLYLINE
8
0
66
1
40
0.008000
41
0.008000
0
VERTEX
8
0
10
-0.413386
20
1.073622
0
VERTEX
8
0
10
-0.413386
20
1.023622
0
SEQEND
8
0
0
POLYLINE
8
0
66
1
40
0.008000
41
0.008000
0
VERTEX
8
0
10
-0.438386
20
1.048622
0
VERTEX
8
0
10
-0.388386
20
1.048622
0
SEQEND
8
0
0
POLYLINE
8
0
66
1
40
0.008000
41
0.008000
0
VERTEX
8
0
10
-0.431063
20
1.066300
0
VERTEX
8
0
10
-0.395708
20
1.030944
0
SEQEND
8
0
0
POLYLINE
8
0
66
1
40
0.008000
41
0.008000
0
VERTEX
8
0
10
-0.431063
20
1.030944
0
VERTEX
8
0
10
-0.395708
20
1.066300
0
SEQEND
8
0
0
POLYLINE
8
0
66
1
40
0.008000
41
0.008000
0
VERTEX
8
0
10
-0.013386
20
1.073622
0
VERTEX
8
0
10
-0.013386
20
1.023622
0
SEQEND
8
0
0
POLYLINE
8
0
66
1
40
0.008000
41
0.008000
0
VERTEX
8
0
10
-0.038386
20
1.048622
0
VERTEX
8
0
10
0.011614
20
1.048622
0
SEQEND
8
0
0
POLYLINE
8
0
66
1
40
0.008000
41
0.008000
0
VERTEX
8
0
10
-0.031063
20
1.066300
0
VERTEX
8
0
10
0.004292
20
1.030944
0
SEQEND
8
0
0
POLYLINE
8
0
66
1
40
0.008000
41
0.008000
0
VERTEX
8
0
10
-0.031063
20
1.030944
0
VERTEX
8
0
10
0.004292
20
1.066300
0
SEQEND
8
0
0
POLYLINE
8
0
66
1
40
0.008000
41
0.008000
0
VERTEX
8
0
10
-1.102362
20
-1.156102
0
VERTEX
8
0
10
1.102362
20
-1.156102
0
VERTEX
8
0
10
1.102362
20
1.206102
0
VERTEX
8
0
10
-1.102362
20
1.206102
0
VERTEX
8
0
10
-1.102362
20
-1.156102
0
SEQEND
8
0
0
POLYLINE
8
0
66
1
40
0.008000
41
0.008000
0
VERTEX
8
0
10
-0.981362
20
-1.160102
0
VERTEX
8
0
10
-0.981362
20
-1.210102
0
SEQEND
8
0
0
POLYLINE
8
0
66
1
40
0.008000
41
0.008000
0
VERTEX
8
0
10
-1.006362
20
-1.185102
0
VERTEX
8
0
10
-0.956362
20
-1.185102
0
SEQEND
8
0
0
TEXT
8
0
10
-0.931362
20
-1.205102
40
0.040000
41
1.000000
1
3mm (4)
0
POLYLINE
8
0
66
1
40
0.008000
41
0.008000
0
VERTEX
8
0
10
-0.399040
20
-1.167425
0
VERTEX
8
0
10
-0.363685
20
-1.202780
0
SEQEND
8
0
0
POLYLINE
8
0
66
1
40
0.008000
41
0.008000
0
VERTEX
8
0
10
-0.399040
20
-1.202780
0
VERTEX
8
0
10
-0.363685
20
-1.167425
0
SEQEND
8
0
0
TEXT
8
0
10
-0.331362
20
-1.205102
40
0.040000
41
1.000000
1
15th (22)
0
POLYLINE
8
0
66
1
40
0.008000
41
0.008000
0
VERTEX
8
0
10
0.218638
20
-1.160102
0
VERTEX
8
0
10
0.218638
20
-1.210102
0
SEQEND
8
0
0
POLYLINE
8
0
66
1
40
0.008000
41
0.008000
0
VERTEX
8
0
10
0.193638
20
-1.185102
0
VERTEX
8
0
10
0.243638
20
-1.185102
0
SEQEND
8
0
0
POLYLINE
8
0
66
1
40
0.008000
41
0.008000
0
VERTEX
8
0
10
0.200960
20
-1.167425
0
VERTEX
8
0
10
0.236315
20
-1.202780
0
SEQEND
8
0
0
POLYLINE
8
0
66
1
40
0.008000
41
0.008000
0
VERTEX
8
0
10
0.200960
20
-1.202780
0
VERTEX
8
0
10
0.236315
20
-1.167425
0
SEQEND
8
0
0
TEXT
8
0
10
0.268638
20
-1.205102
40
0.040000
41
1.000000
1
30th (74)
0
CIRCLE
8
0
10
0.818638
20
-1.185102
40
0.025000
0
POLYLINE
8
0
66
1
40
0.008000
41
0.008000
0
VERTEX
8
0
10
0.818638
20
-1.160102
0
VERTEX
8
0
10
0.818638
20
-1.210102
0
SEQEND
8
0
0
POLYLINE
8
0
66
1
40
0.008000
41
0.008000
0
VERTEX
8
0
10
0.793638
20
-1.185102
0
VERTEX
8
0
10
0.843638
20
-1.185102
0
SEQEND
8
0
0
TEXT
8
0
10
0.868638
20
-1.205102
40
0.040000
41
1.000000
1
40th (30)
0
CIRCLE
8
0
10
1.418638
20
-1.185102
40
0.025000
0
POLYLINE
8
0
66
1
40
0.008000
41
0.008000
0
VERTEX
8
0
10
1.400960
20
-1.167425
0
VERTEX
8
0
10
1.436315
20
-1.202780
0
SEQEND
8
0
0
POLYLINE
8
0
66
1
40
0.008000
41
0.008000
0
VERTEX
8
0
10
1.400960
20
-1.202780
0
VERTEX
8
0
10
1.436315
20
-1.167425
0
SEQEND
8
0
0
TEXT
8
0
10
1.468638
20
-1.205102
40
0.040000
41
1.000000
1
60th (5)
0
ENDSEC
0
EOF

