M48
INCH
T01C0.0150
T02C0.0400
T03C0.0600
T04C0.1181
T05C0.0300
%
T01
X+010196Y-012974
X+005196Y-020974
X+019446Y-016474
X+003446Y-019474
X+003446Y-018224
X+007446Y-018224
X+007196Y-011474
X+013196Y-000724
X+015696Y-010724
X+017446Y-004724
X+008696Y-004474
X+009946Y-019724
X+006946Y-020474
X+006696Y-015724
X+014696Y-010724
X+010196Y-005974
X+005946Y-013474
X+012696Y-012224
X+012696Y-009224
X+013696Y-009224
X+018446Y-009224
X+015196Y-009724
T02
X+011417Y-022244
X+010417Y-022244
X+007874Y-022244
X+006874Y-022244
X+005874Y-022244
X+004874Y-022244
X+003874Y-022244
X+018094Y-001377
X+019094Y-001377
X+012204Y-001377
X+013204Y-001377
X+014204Y-001377
X+001574Y-008464
X+001574Y-007464
X+001574Y-006464
X+001574Y-005464
X+020472Y-011173
X+020472Y-012173
X+020472Y-013173
X+020472Y-014173
X+001574Y-011614
X+001574Y-010614
X+020275Y-015929
X+020275Y-016929
X+020275Y-017929
X+001574Y-019125
X+001574Y-018125
X+001574Y-017125
X+001574Y-016125
X+001574Y-015125
T03
X+019094Y-021456
X+017124Y-021456
X+015154Y-021456
X+003149Y-002362
X+005119Y-002362
T04
X+021062Y-002952
X+000984Y-002952
X+000984Y-022637
X+021062Y-022637
T05
X+004196Y-010824
X+005196Y-010824
X+006196Y-010824
X+007196Y-010824
X+008196Y-010824
X+009196Y-010824
X+010196Y-010824
X+011196Y-010824
X+012196Y-010824
X+013196Y-010824
X+014196Y-010824
X+015196Y-010824
X+016196Y-010824
X+017196Y-010824
X+017196Y-007824
X+016196Y-007824
X+015196Y-007824
X+014196Y-007824
X+013196Y-007824
X+012196Y-007824
X+011196Y-007824
X+010196Y-007824
X+009196Y-007824
X+008196Y-007824
X+007196Y-007824
X+006196Y-007824
X+005196Y-007824
X+004204Y-007824
X+016270Y-005050
X+015089Y-005050
X+011022Y-012924
X+013022Y-012924
X+009774Y-006624
X+010774Y-006624
X+011774Y-006624
X+012774Y-006624
X+012774Y-003624
X+011774Y-003624
X+010774Y-003624
X+009774Y-003624
X+015222Y-012924
X+016222Y-012924
X+006755Y-019027
X+006755Y-015027
X+008725Y-019027
X+008725Y-015027
X+010627Y-019027
X+010627Y-015027
X+018174Y-004524
X+020174Y-004524
X+004196Y-004524
X+004196Y-006524
X+004461Y-018502
X+004461Y-015502
X+018240Y-011611
X+018240Y-013776
X+006296Y-004524
X+006296Y-006689
X+005839Y-012858
X+005051Y-012858
X+008595Y-012792
X+007807Y-012792
X+012531Y-019027
X+012531Y-015027
X+014434Y-019027
X+014434Y-015027
X+016337Y-019027
X+016337Y-015027
X+018174Y-006624
X+020174Y-006624
X+018307Y-019027
X+018307Y-015027
X+006889Y-001574
X+010889Y-001574
M30
